<svg viewBox="0 0 700 500" xmlns="http://www.w3.org/2000/svg"><path d="m700 0h-700v500h700z" fill="#e41e20"/><g transform="matrix(10 0 0 10 600 303.54)"><g transform="matrix(.1 0 0 .1 -60 -30)"><path d="m368.56 368.19c-4.3042-3.7326-9.5229-11.291-9.4497-18.577 0.38574-5.4328 4.1113-8.5887 6.5186-1.9574 3.4033 7.3204 10.703 19.424 20.762 12.324 4.3945-3.2258 4.3262-7.9745-1.6992-7.4302-7.4414-0.50933-12.012-4.6039-15.342-15.145-0.60546-5.7974 1.8066-5.6526 5.1709-1.9224 4.3262 4.9634 12.935 12.464 22.432 8.4439 5.2783-2.2121 6.7676-6.7761-1.206-7.8996-7.5488 0.10981-13.711-4.7837-19.844-12.249-3.3643-4.1296 1.5967-8.2991 4.5752-4.7837 2.6562 2.282 6.377 6.4864 9.5654 7.0657 3.6865 0.72404 8.2568 0.36452 13.32-2.317 5.459-4.569 3.6865-7.8646-2.9394-8.6236-5.1367 0.25467-7.9346 2.2071-14.561-2.2121-11.909-8.0494-21.377-18.805-22.856-31.743-0.97168-8.5088 3.6035-11.085 7.4072-10.107 10.347 2.6615 17.114 21.996 24.272 32.617 2.3438 3.061 4.4971 3.1109 6.0205 2.1672 2.8711-2.4618 5.1641-4.486 8.0352-7.2374 0 0 21.06 3.7831 32.528 7.5212l-12.769 4.5381c-4.8348-2.6696-10.67 0.20903-10.67 4.8408-4.5753 3.1642-4.2069 6.8729-2.2329 10.453 0.6021-2.4931 1.1159-5.7303 4.73-6.161 5.1582 2.1336 11.168-0.91125 11.168-4.9399l15.063-5.9203 15.218 8.6154c0 5.8244 5.5184 7.6695 11.259 6.0964 2.7058 1.6804 4.4458 4.5954 5.3614 7.7128 1.6948-4.4957 1.3407-7.6697-1.3125-9.875 1.5228-5.812-6.6221-11.401-12.927-7.6791l-10.948-6.2866 18.74-0.52473c2.1737 3.8503 10.035 4.062 12.328 0 1.9594-0.53691 3.616-0.87856 7.4375 1.962-1.2042-4.596-3.5476-6.5608-7.0625-6.5608-2.672-4.7329-12.339-4.7107-13.735 0.6172l-19.517 0.54303 11.58-8.2451c4.3228 2.5523 10.388-0.28472 11.603-4.9215 1.7234-2.0482 3.8481-3.0107 8.0312-1.6205-2.1558-3.8186-5.1932-4.9582-10.68-2.3667-5.0058-3.7918-11.602 0.80792-10.601 4.6263l-15.406 10.482c-11.184-3.3364-31.438-8.5331-31.438-8.5331 2.4121-2.5367 4.8584-4.8936 7.2656-7.4652 0.86971-1.5064-0.45898-3.2607-2.3047-3.6252-18.071-3.7301-28.418-11.015-34.688-29.531-2.6221-7.7548 3.0469-10.072 4.9951-5.328 2.6953 6.5963 5.6689 13.807 13.784 19.389 2.7978 1.9574 11.128 0.35952 6.2012-4.3143-5.1025-4.2044-7.2998-6.0121-9.8144-16.234 0-5.1782 5.2783-7.5001 8.2226-2.5367 3.1494 10.182 3.4717 14.566 9.1748 21.127 4.3213 4.9635 9.956 8.299 12.754 8.2242 5.0342-0.07 10.103-5.5078 3.3691-9.4575-9.8877-3.9498-13.501-9.3477-14.956-14.496-1.5918-8.9832 0.14648-13.332 5.5664-8.9133 7.6856 8.7335 22.358 25.002 30.044 32.577 8.6133 6.5963 18.496 6.811 26.362 0.1098 4.502-5.1832 2.9053-10.761-4.1455-9.5674-15.908 1.3432-27.954-6.5564-41.172-27.903-2.5879-4.8187-3.2959-11.74 2.4121-6.5913 6.5869 8.9133 16.191 16.488 25.122 19.749 8.9648 3.2208 16.366 1.4414 19.238-1.3782 3.4588-3.4588 2.5488-12.174-3.4375-10.072-4.9268 1.7377-11.87 2.1721-19.097-0.61919-7.2314-2.8263-14.741-8.9133-22.715-19.24-2.7295-5.8323-1.8408-10.761 3.6865-7.7548 13.076 11.09 29.941 20.074 38.55 14.676 6.3428-3.9498 6.4502-14.096-1.5918-13.442-16.196 2.2071-22.324-1.3782-37.881-15.11-3.54-2.6465-3.2959-9.3527 2.3389-5.0733 13.076 8.4439 30.933 11.74 37.949 7.3204 6.3086-3.9498 5.3858-16.019-5.2441-11.745-8.5059 5.1832-17.896 5.0384-36.709-8.4039-4.7461-3.9498-1.206-9.098 2.6904-6.8859 15.132 8.6236 37.173 12.319 42.91-5.2181 2.2314-6.7012-1.8066-10.616-7.7246-5.9771-13.003 12.029-27.744 6.122-35.996 0.07-2.3633-1.3932-6.6992-8.4439 0.91798-7.1356 19.702 4.4941 39.189 0.57923 42.734-13.372 2.0557-4.529-1.9873-12.538-9.1797-5.8323-9.458 9.3477-19.487 9.6723-32.1 9.6024-6.416-1.3432-6.4844-8.4089-1.0986-9.4576 9.9561 0.21472 19.771-4.1345 27.637-8.5537 7.6904-4.4192 14.067-10.616 16.089-19.205 1.2402-7.6799-6.167-15.834-10.63-7.6799-6.5918 11.919-21.191 23.155-37.422 25.182-0.84473-1.4131-2.9736-5.0384-5.5957-4.0197-4.7656 1.8476-10.444 4.3206-16.291 7.0969-12.602 5.9845-17.855 8.8687-16.341 19.208 1.5797 10.789-6.7383 17.607-13.608 15.724-5.9912-1.6129-9.2969-7.0258-8.2226-16.413 0.85938-7.4802 8.3691-16.528 16.831-21.272 5.4785-3.066 13.75-4.7438 23.706-6.9558 6.0596-1.1934 9.1455-3.5503 9.4971-6.0171 0 0-4.1406 3.031-10.771 2.5766-3.1348-0.22471-5.2344-1.6029-6.0254-3.011 2.3047-0.46942 6.4844 0.0749 10.239 0.0749 4.9951-0.04 16.592-1.1585 19.668-8.1892 0.95703-4.6389-2.0898-5.4728-4.9268-2.5017-3.0469 3.2108-4.3018 6.097-10.415 7.1755-3.7207 0.65414-7.4414 1.4131-12.227 0.25466 2.6953-3.2008 6.9775-6.4765 10.63-5.8723 1.2012 0.19974 2.7978 1.3083 4.0772 3.3006 0.78125-5.0733-0.60546-10.801-14.175-8.4089 0.21484-3.8399-7.8662-5.5077-12.72-5.4328-2.7637 0.06991-8.3984 1.7028-12.471 3.6552-6.4502 1.9974-12.827 3.4455-20.342 3.9897 4.3604 3.7301 5.1758 3.9498 9.5312 7.1007-6.5869 2.4618-11.689 7.5351-13.994 10.871 0 0 7.6904-0.21472 9.6387 0.65415-8.0469 2.3519-11.66 3.765-15.913 8.1143 1.4893 0.25465 3.7207 0.68909 4.6777 1.0536 0.99607 0.35953 0.73727 1.0137-0.0684 1.6278-1.7334 1.3233-8.8962 9.6423-10.986 11.635-2.0899-1.9924-9.2527-10.311-10.986-11.635-0.80567-0.61418-1.0645-1.2683-0.0684-1.6278 0.95702-0.36451 3.1885-0.79895 4.6777-1.0536-4.2529-4.3493-7.8662-5.7624-15.913-8.1143 1.9482-0.86887 9.6387-0.65415 9.6387-0.65415-2.3047-3.3356-7.4072-8.4089-13.994-10.871 4.3555-3.1508 5.1709-3.3706 9.5312-7.1007-7.5146-0.54427-13.892-1.9924-20.342-3.9897-4.0723-1.9524-9.707-3.5853-12.471-3.6552-4.8535-0.0749-12.935 1.5929-12.72 5.4328-13.569-2.3919-14.956 3.3356-14.175 8.4089 1.2793-1.9924 2.876-3.1009 4.0772-3.3006 3.6523-0.60421 7.9346 2.6715 10.63 5.8723-4.7852 1.1585-8.5058 0.39948-12.227-0.25466-6.1133-1.0786-7.3682-3.9648-10.415-7.1755-2.8369-2.9711-5.8838-2.1372-4.9268 2.5017 3.0762 7.0307 14.673 8.1492 19.668 8.1892 3.7549 0 7.9346-0.54432 10.239-0.0749-0.79103 1.4082-2.8906 2.7863-6.0254 3.011-6.6308 0.4544-10.771-2.5766-10.771-2.5766 0.35157 2.4668 3.4375 4.8236 9.4971 6.0171 9.9561 2.2121 18.228 3.8899 23.706 6.9558 8.4619 4.7438 15.972 13.792 16.831 21.272 1.0742 9.3876-2.2314 14.8-8.2226 16.413-6.8701 1.8825-15.188-4.9353-13.608-15.724 1.514-10.34-3.7385-13.224-16.341-19.208-5.8466-2.7764-11.525-5.2493-16.291-7.0969-2.6221-1.0186-4.751 2.6066-5.5957 4.0197-16.23-2.0273-30.83-13.263-37.422-25.182-4.4629-8.1543-11.87 0-10.63 7.6799 2.0215 8.5887 8.3984 14.786 16.089 19.205 7.8662 4.4192 17.681 8.7684 27.637 8.5537 5.3857 1.0486 5.3174 8.1143-1.0986 9.4576-12.612 0.0699-22.642-0.25466-32.1-9.6024-7.1924-6.7062-11.235 1.3033-9.1797 5.8323 3.5449 13.952 23.032 17.866 42.734 13.372 7.6172-1.3083 3.2812 5.7424 0.91798 7.1356-8.252 6.052-22.993 11.959-35.996-0.07-5.918-4.6389-9.956-0.72405-7.7246 5.9771 5.7373 17.537 27.778 13.842 42.91 5.2181 3.8965-2.2121 7.4365 2.9361 2.6904 6.8859-18.813 13.442-28.203 13.587-36.709 8.4039-10.63-4.2744-11.553 7.7947-5.2441 11.745 7.0166 4.4192 24.873 1.1235 37.949-7.3204 5.6348-4.2794 5.8789 2.4268 2.3389 5.0733-15.557 13.732-21.685 17.317-37.881 15.11-8.042-0.65414-7.9346 9.4925-1.5918 13.442 8.6084 5.3979 25.474-3.5853 38.55-14.676 5.5274-3.006 6.416 1.9225 3.6865 7.7548-7.9736 10.326-15.483 16.413-22.715 19.24-7.2266 2.7913-14.17 2.3569-19.097 0.61919-5.9863-2.1022-6.8963 6.6129-3.4375 10.072 2.8722 2.8196 10.273 4.5989 19.238 1.3782 8.9307-3.2607 18.535-10.836 25.122-19.749 5.708-5.1482 5 1.7727 2.4121 6.5913-13.218 21.347-25.264 29.246-41.172 27.903-7.0508-1.1934-8.6475 4.3842-4.1455 9.5674 7.8662 6.7012 17.749 6.4865 26.362-0.1098 7.6856-7.575 22.358-23.844 30.044-32.577 5.4199-4.4192 7.1582-0.0699 5.5664 8.9133-1.4551 5.1482-5.0684 10.546-14.956 14.496-6.7334 3.9498-1.665 9.3875 3.3691 9.4575 2.7978 0.0749 8.4326-3.2607 12.754-8.2242 5.7031-6.5614 6.0254-10.946 9.1748-21.127 2.9443-4.9634 8.2226-2.6415 8.2226 2.5367-2.5146 10.222-4.7119 12.029-9.8144 16.234-4.9268 4.6738 3.4033 6.2717 6.2012 4.3143 8.1152-5.5826 11.089-12.793 13.784-19.389 1.9482-4.7437 7.6172-2.4268 4.9951 5.328-6.2695 18.516-16.616 25.801-34.688 29.531-1.8457 0.36451-3.1744 2.1188-2.3047 3.6252 2.4072 2.5716 4.8535 4.9285 7.2656 7.4652 0 0-20.254 5.1967-31.438 8.5331l-15.406-10.482c1.0005-3.8184-5.5954-8.4181-10.601-4.6263-5.4868-2.5916-8.5242-1.4519-10.68 2.3667 4.1831-1.3902 6.3078-0.42773 8.0312 1.6205 1.2149 4.6368 7.2799 7.4738 11.603 4.9215l11.58 8.2451-19.517-0.54303c-1.396-5.3279-11.063-5.3501-13.735-0.6172-3.5149 0-5.8583 1.9648-7.0625 6.5608 3.8215-2.8405 5.4781-2.4989 7.4375-1.962 2.2932 4.062 10.155 3.8503 12.328 0l18.74 0.52473-10.948 6.2866c-6.3044-3.7223-14.449 1.8671-12.927 7.6791-2.6531 2.2053-3.0072 5.3793-1.3125 9.875 0.91565-3.1174 2.6556-6.0325 5.3614-7.7128 5.741 1.5731 11.259-0.27195 11.259-6.0964l15.218-8.6154 15.063 5.9203c0 4.0286 6.0102 7.0735 11.168 4.9399 3.6141 0.43077 4.1279 3.668 4.73 6.161 1.9741-3.5804 2.3425-7.2891-2.2329-10.453 0-4.6318-5.8357-7.5104-10.67-4.8408l-12.769-4.5381c11.468-3.738 32.528-7.5212 32.528-7.5212 2.8711 2.7514 5.1641 4.7756 8.0352 7.2374 1.5234 0.94375 3.6768 0.89383 6.0205-2.1672 7.1582-10.621 13.926-29.956 24.272-32.617 3.8037-0.97872 8.3789 1.5979 7.4072 10.107-1.4795 12.938-10.947 23.694-22.856 31.743-6.626 4.4192-9.4238 2.4668-14.561 2.2121-6.626 0.759-8.3984 4.0546-2.9394 8.6236 5.0635 2.6815 9.6338 3.041 13.32 2.317 3.1885-0.57924 6.9092-4.7837 9.5654-7.0657 2.9785-3.5154 7.9395 0.65414 4.5752 4.7837-6.1328 7.4652-12.295 12.359-19.844 12.249-7.9736 1.1235-6.4844 5.6875-1.206 7.8996 9.4971 4.0197 18.105-3.4804 22.432-8.4439 3.3642-3.7301 5.7764-3.8749 5.1709 1.9224-3.3301 10.541-7.9004 14.636-15.342 15.145-6.0254-0.54429-6.0938 4.2044-1.6992 7.4302 10.059 7.1006 17.358-5.0034 20.762-12.324 2.4072-6.6313 6.1328-3.4754 6.5186 1.9574 0.0732 7.2854-5.1455 14.844-9.4497 18.577-4.3042 3.7326 18.556 27.465 18.556 27.465s22.86-23.733 18.556-27.465zm30.635-268.76c-3.5585 0-5.7567 1.2474-5.7567 2.7596 0 1.5346 2.1983 2.7865 5.7567 2.7865 3.5365 0 5.7831-1.3641 5.7831-2.9032 0-1.5122-2.2465-2.6429-5.7831-2.6429zm-98.381 0c3.5585 0 5.7567 1.2474 5.7567 2.7596 0 1.5346-2.1983 2.7865-5.7567 2.7865-3.5365 0-5.7831-1.3641-5.7831-2.9032 0-1.5122 2.2465-2.6429 5.7831-2.6429z" fill-rule="evenodd"/></g></g></svg>