<svg viewBox="0 0 450 300" xmlns="http://www.w3.org/2000/svg"><path d="M0,0H450V300H0"/><path d="M0,0H450V150H0" fill="#cc092f"/><path d="m195.43 102.9h18.322l5.5561-17.269 5.7053 17.269h18.32l-14.716 10.963 5.7043 17.567-15.013-10.662-14.866 10.662 5.7053-17.567z" fill="#ffcb00" fill-rule="evenodd"/><path d="m262.4 197.35l-14.413-11.265c14.563-11.862 24.026-30.032 24.026-50.302 0-30.933-22.072-56.912-51.206-63.069l2.2521-10.513c4.0547 0.90177 8.8122 2.6087 12.716 3.958l3.7554-6.304c4.05 1.9499 8.5588 3.9017 12.31 6.304l-2.8517 6.7591c3.7554 2.4041 8.2877 6.1257 10.808 9.0562l5.6386-4.4047c3.0037 3.3021 6.6089 6.7534 9.1613 10.361l-5.1057 5.2558c3.2974 4.8401 4.5717 7.0678 7.0021 12.644l7.1635-1.6797c1.3532 4.2039 3.4073 9.3508 4.1598 13.704l-6.7825 2.6659c0.80976 3.3828 1.8589 9.2917 1.7913 14.262-0.00563 0.29934-0.02815 0.63809-0.02815 0.9393l7.0837 1.0106c-0.30023 4.3559-0.44852 9.3124-1.3522 13.666h-7.3568c-1.05 4.5023-2.4051 10.01-4.0547 14.213l6.1538 3.6062c-1.9509 3.9027-3.8998 8.5589-6.454 12.313l-6.7572-2.8517c-2.5552 3.7525-5.405 7.3549-8.5588 10.661l4.3531 5.7053c-1.1992 1.05-2.2512 2.102-3.4541 3.3049m-31.681-1.3522l10.886 6.5601c-1.0153 0.92805-4.0556 2.5026-4.8617 2.8217l1.7801 6.8332c-4.2039 1.3541-8.7099 3.304-13.362 4.2058l-2.7025-6.7562c-4.355 0.8999-8.7081 1.4995-13.213 1.4995l-0.90365 7.0575c-4.203-0.29934-9.3086 0-13.964-1.051v-7.0556c-4.2058-0.75257-8.2595-1.8026-12.162-3.1557l-3.4551 6.1613c-3.6033-1.5051-8.4078-3.3077-12.314-5.7081l2.5542-6.7572c-3.1548-1.6534-6.0074-3.7544-8.7099-5.8601l6.7572-8.5588c11.113 8.861 25.077 14.114 40.394 14.114 8.1103 0 16.066-1.3484 23.277-4.3503" fill="#ffcb00" fill-rule="evenodd"/><path d="m276.1 213.41l-71.865-54.691-0.65498 0.93274 71.68 54.787-4.2546 5.3234-69.876-44.82c-18.919-11.863-18.169-21.171-14.264-31.233l3.304-8.1084c1.8026 10.512 12.612 18.472 23.874 27.329l63.457 48.748zm18.042 16.3c-0.6165 0-1.1148-0.49921-1.1148-1.1195 0-0.61556 0.49828-1.1157 1.1148-1.1157 0.61841 0 1.1204 0.50016 1.1204 1.1157 0 0.62027-0.502 1.1195-1.1204 1.1195m-4.2949-3.1539c-0.61552 0-1.1185-0.50108-1.1185-1.1176 0-0.61839 0.50299-1.1185 1.1185-1.1185 0.61651 0 1.1176 0.50015 1.1176 1.1185 0 0.61651-0.50109 1.1176-1.1176 1.1176m-4.3953-3.5029c-0.6156 0-1.1176-0.50014-1.1176-1.1157 0-0.61744 0.502-1.1185 1.1176-1.1185 0.61742 0 1.1176 0.50109 1.1176 1.1185 0 0.61558-0.50017 1.1157-1.1176 1.1157m14.777 6.1998l-21.533-16.682-6.257 8.0634 18.705 13.117c1.5024 1.05 1.6496 5.8592 7.2029 6.6108 2.2568 0.2984 3.7544-1.355 3.7544-1.355 2.42-2.9455 1.7604-7.0012-1.873-9.7543" fill="#ffcb00" fill-rule="evenodd"/></svg>