<svg viewBox="-66.5 0 400 267" xmlns="http://www.w3.org/2000/svg" xmlns:xlink="http://www.w3.org/1999/xlink"><defs><clipPath id="z"><path d="m-66.5 0h400v267h-400z"/></clipPath><g id="a" fill="none"><circle cx="133.5" cy="133.5" r="49.5"/><circle cx="133.5" cy="133.5" r="92.5"/><circle cx="133.5" cy="133.5" r="133"/><path id="b" d="m-100 133.5h467m-233.5-233.5v467"/><use transform="matrix(.86603 .5 -.5 .86603 84.636 -48.864)" width="400" height="267" xlink:href="#b"/><use transform="matrix(.5 .86603 -.86603 .5 182.36 -48.864)" width="400" height="267" xlink:href="#b"/></g><path id="c" transform="translate(0,-1.5)" d="m146.4 44.921-0.62414-0.2673 0.62414 0.2673zm17.833 176.42-2.4074-1.4256-7.133 1.782-6.2414-3.9205v1.5147l-1.5158-2.0493 1.7832-1.782-0.26749-5.3461h2.0507l1.2483-3.5641 1.4266-0.62369-1.1591-1.782 1.7832-0.62369-0.26748-2.673-1.7833-0.891 2.3182-0.26731-1.4266-6.5044-3.5665-3.564-2.1399 0.89101 0.89163 2.9404h-7.4005l-6.2414-2.673-2.4074-1.1583-11.859-2.673-0.89162 1.4256-4.1906 0.35638h-1.1591l-1.7832 2.9404-5.0823-3.5641-2.6749 0.89104 0.35665 2.4057-6.598-3.5641-0.26749 2.3166-6.5089-2.9403-0.35665 0.26728-3.2099 1.2474-0.62414-2.4057-7.7571-3.8314-8.2921-2.673-1.5158-6.8608v-1.5147l-3.2099-5.8807 1.4266-7.1281-2.6749-0.89101-0.89163-3.0294 4.4581-0.53459h-2.0507l0.26749-4.4551-6.5089 2.0493-0.26749-1.782-0.89163 3.2967-3.5665 1.4256-2.4074-2.3166-0.89163-2.4058-0.89163-4.7224 2.0507-1.5147 0.89163 1.1583 0.62414-1.4256-1.5158-10.692 2.4074 0.53461 1.1591-11.227 0.35665-0.35641 2.3182-1.4256-2.9424 0.26731-1.1591-2.673 5.3498-5.9698-4.8148-0.89102-3.5665 3.5641-1.4266-4.0986-2.1399 2.9403-0.53497-2.0493-2.6749 0.89102-1.7833 0.89101 1.4266-5.3461-1.1591-0.6237 0.62414-1.5147-1.5158 0.3564-0.26749-3.0295h5.6173l-0.26749-1.4256h-1.7833l-3.299-5.7025-1.7833 0.62371-1.1591-2.0493-0.62414 1.782-1.7833-1.2474 1.7833-1.1583-2.6749-0.89101 0.62414-1.5147-2.1399-1.1583-0.53498-4.7224-2.1399-0.62371 1.2483-0.89101-2.4074-6.2371 0.26749-2.0493 0.89163-6.2371h1.7832l-0.53497 3.8314 4.4581 6.2371 3.2099 4.1878 6.598 1.782v0.2673l0.89163-1.5147 3.5665 4.1878 1.7833 2.0493 0.89163 0.89101 10.075 4.8115 1.7833 0.89101 0.62414 0.53461 4.7256 5.7025 2.6749-1.2474 19.616-4.455 0.62414-3.5641 1.4266 0.62371-0.26748-1.1583 0.89162-0.62371 4.1907-1.5147v-4.0986l1.4266-1.5147 1.7833-6.8608-0.89163-2.673 4.1906-10.068v-1.5147-4.7224h2.0507l2.4074-3.5641 2.9424-0.89101 0.35665-3.2967 4.1015-4.9897 1.7833 0.89101 8.3813-3.0295 0.89163-0.89101 1.7832-1.782-0.62414-2.9403h1.7833l0.89163 4.7224 9.1837 2.1384 1.5158-1.5147 0.62414 0.2673 8.0246 1.782 0.26749-0.2673 4.1906-2.4057 0.26749 2.673 3.5665 0.3564 2.9424 2.3166 0.62412 0.62371 4.4581 3.8314 5.3498 0.35641 3.299 0.5346 4.1015-1.4256 0.35665 2.673 1.7833 1.1583 1.4266-2.673h1.7833l1.2483 6.8608 1.4266 0.2673-0.26746 2.4057-0.26753 0.2673h0.53499l3.5665-1.782 3.299-1.1583 9.1838 3.2077 1.7832-0.53461 0.62418 3.2077 2.4074 0.3564-0.62418-1.5147h2.0507l0.62417 3.2967 2.4074-2.673 5.6172 3.5641 1.5158 6.5044-2.4074 0.62371 0.62417 4.9897 0.89158 1.5147 6.2414 15.771-3.299 2.9403-0.26746 3.5641-2.6749 3.2967 2.9424 2.0493-1.1591 0.89101 2.6749 2.673 4.1015 0.62371 1.2483 1.782 1.1591 2.3166 2.9424 1.2474 3.5666-2.4057 2.4074 0.26731-2.9423 4.1878 2.9423 7.7518-3.5665 2.9403 1.5158 4.7224-0.8916 4.1878 1.7832 2.4057 4.7256 0.891-4.7256 6.5044 0.89164 1.1583 1.1591 1.2474-2.0508 3.2077 2.0508 1.2474-10.432 8.5537 2.4074 5.9698-0.62415 3.5641-3.5665 1.1583-0.89158 3.0295-4.1015 1.782-1.2483 3.8314-0.89163 2.0493 4.1907 2.1384-6.2414 0.53459 1.5158 3.2967-3.0315 2.9404-4.7256 0.891-1.5158 2.673 3.5665 1.782-6.7764 6.2371 2.0507 3.2967-5.3498-1.1583-5.9739 3.5641-8.0246 3.8314-1.7833 2.673-1.1591-0.89101 1.1591-2.6731-5.3498 2.0493-1.1591-2.0493-8.0246 4.7224-3.5665-1.1583-6.5089 1.1583-1.7833-0.89103m0.26749-172.23-0.62415-0.62371h-0.26746v0.3564h0.62412l0.26749 0.2673zm-2.0508 171.34 1.7833 0.89101-1.7833-0.89101zl1.7833 0.89101m-126.97-123.49l0.35665-2.1384-3.299-2.0493 2.9424 4.1878h-3e-6zm-7.133-16.395h-1.7832l0.89163 2.673 0.89162-2.3166v-0.3564zm-0.89162-2.673-0.89163 0.89101 1.7832 1.2474-0.89162-2.1384zm8.0246 19.068 0.35665-2.1384-3.299-2.0493 2.9424 4.1878zm-7.133-16.395h-1.7833l0.89163 2.673 0.89163-2.3166v-0.35641zm-0.89163-2.673-0.89163 0.89101 1.7833 1.2474-0.89163-2.1384zm8.0246 19.068 0.35665-2.1384-3.299-2.0493 2.9424 4.1878h-3e-6zm-7.133-16.395h-1.7832l0.89162 2.673 0.89163-2.3166v-0.35641zm-0.89163-2.673-0.89162 0.89101 1.7832 1.2474-0.89163-2.1384zm5.3498-6.2371v-2.3166l-2.0508 0.5346 0.26749 1.5147 1.7833 0.2673zm-2.3182-6.5044 0.53498 1.1583 1.2483-2.673-1.7833 1.2474v0.2673zm2.3182 6.5044v-2.3166l-2.0508 0.5346 0.26749 1.5147 1.7833 0.2673zm-2.3182-6.5044 0.53498 1.1583 1.2483-2.673-1.7833 1.2474v0.2673zm2.3182 6.5044v-2.3166l-2.0508 0.5346 0.26749 1.5147 1.7833 0.2673zm-2.3182-6.5044 0.53498 1.1583 1.2483-2.673-1.7833 1.2474v0.2673zm31.742 90.883-2.0507 0.26734-1.7833 2.4057 2.9424-0.62369 0.89163-2.0493zl-2.0507 0.26734-1.7833 2.4057 2.9424-0.62369 0.89163-2.0493v0zl-2.0507 0.26734-1.7833 2.4057 2.9424-0.62369 0.89163-2.0493v0zm2.1399-60.321-0.62414-0.53461-1.7833-0.89101 1.7833 0.89101 0.62414 0.53461z" fill="#fff"/><clipPath id="d"><use width="400" height="267" xlink:href="#c"/></clipPath></defs><g clip-path="url(#z)"><rect x="-66.5" width="400" height="267" fill="#072b5f"/><use width="400" height="267" stroke="#fff" stroke-width="2" xlink:href="#a"/><use width="400" height="267" xlink:href="#c"/><use width="400" height="267" clip-path="url(#d)" stroke="#072b5f" stroke-width="2" xlink:href="#a"/></g></svg>