<svg viewBox="0 0 10080 5040" xmlns="http://www.w3.org/2000/svg" xmlns:xlink="http://www.w3.org/1999/xlink"><defs><clipPath id="b"><path d="M0,0V1.5H7V3H6zM6,0H3V3.5H0V3z"/></clipPath><clipPath id="z"><path d="m0 0h10080v5040h-10080z"/></clipPath><path id="a" d="m0-360 69.421 215.84 212.04-80.301-125.47 188.85 194.99 115.71-225.88 19.651 31.105 224.59-156.2-164.35-156.2 164.35 31.105-224.59-225.88-19.651 194.99-115.71-125.47-188.85 212.04 80.301z"/><path id="c" d="m0-210 54.86 134.49 144.86 10.615-110.96 93.735 34.67 141.05-123.43-76.56-123.43 76.56 34.67-141.05-110.96-93.735 144.86-10.615z"/><use id="d" transform="scale(2.1)" xlink:href="#a"/></defs><g transform="scale(840)" clip-path="url(#z)"><rect width="12" height="6" fill="#00008b"/><path d="m0 0 6 3m0-3-6 3" stroke="#fff" stroke-width=".6"/><path d="m0 0 6 3m0-3-6 3" clip-path="url(#b)" stroke="#f00" stroke-width=".4"/><path d="m3 0v3.5m-3-2h7" stroke="#fff"/><path d="m3 0v3.5m-3-2h7" stroke="#f00" stroke-width=".6"/><path d="M0,3H6V0H8V4H0z" fill="#00008b"/></g><g fill="#fff"><use x="2520" y="3780" xlink:href="#d"/><use x="7560" y="4200" xlink:href="#a"/><use x="6300" y="2205" xlink:href="#a"/><use x="7560" y="840" xlink:href="#a"/><use x="8680" y="1869" xlink:href="#a"/><use x="8064" y="2730" xlink:href="#c"/></g></svg>