<svg viewBox="0 0 24e3 16e3" xmlns="http://www.w3.org/2000/svg" xmlns:xlink="http://www.w3.org/1999/xlink"><path d="M0,0H24e3V16e3H0" fill="#00267f"/><path d="M8e3,0H16e3V16e3H8e3" fill="#ffc726"/><path id="a" d="m12e3 4124c-260 709-525 1447-1092 2012 176-58 484-110 682-105v2982l-842 125c-30-3-40-50-40-114-81-926-300-1704-552-2509-18-110-337-530-91-456 30 4 359 138 307 74-448-464-1103-798-1739-897-56-14-89 14-39 79 844 1299 1550 2832 1544 4651 328 0 1123-194 1452-194v2104h415l95-5876z"/><use transform="translate(24e3) scale(-1 1)" xlink:href="#a"/></svg>