<svg viewBox="0 0 600 300" xmlns="http://www.w3.org/2000/svg" xmlns:xlink="http://www.w3.org/1999/xlink"><clipPath id="e"><path d="M0,0V75H350V150H300zM300,0H150V200H0V150z"/></clipPath><clipPath id="z"><path d="m0 0h600v300h-600z"/></clipPath><path d="M0,0H600V300H0" fill="#00247d"/><path d="M0,0L300,150M300,0L0,150" stroke="#fff" stroke-width="30" clip-path="url(#z)"/><path d="M0,0L300,150M300,0L0,150" clip-path="url(#e)" stroke="#cf142b" stroke-width="20"/><path d="M150,0V200M0,75H350" stroke="#fff" stroke-width="50"/><path d="M150,0V200M0,75H350" stroke="#cf142b" stroke-width="30"/><path d="M300,0V150H0V300H600V0z" fill="#00247d"/><g transform="translate(450,150)"><g id="a" transform="translate(0,-102)" fill="#fff"><g id="b"><path id="c" transform="rotate(18,0,-22.5)" d="M0,-22.5V0H12"/><use transform="scale(-1,1)" xlink:href="#c"/></g><use transform="rotate(72)" xlink:href="#b"/><use transform="rotate(144)" xlink:href="#b"/><use transform="rotate(216)" xlink:href="#b"/><use transform="rotate(288)" xlink:href="#b"/></g><g id="d"><use transform="rotate(24)" xlink:href="#a"/><use transform="rotate(48)" xlink:href="#a"/><use transform="rotate(72)" xlink:href="#a"/><use transform="rotate(96)" xlink:href="#a"/><use transform="rotate(120)" xlink:href="#a"/><use transform="rotate(144)" xlink:href="#a"/><use transform="rotate(168)" xlink:href="#a"/></g><use transform="rotate(168)" xlink:href="#d"/></g></svg>