<svg viewBox="0 0 500 300" fill="#ce1126" xmlns="http://www.w3.org/2000/svg" xmlns:xlink="http://www.w3.org/1999/xlink"><defs><g id="c"><g id="b"><path id="d" transform="rotate(18 0,-1)" d="m0-1v1h0.5" fill="#fcd116"/><use transform="scale(-1,1)" xlink:href="#d"/></g><use transform="rotate(72)" xlink:href="#b"/><use transform="rotate(144)" xlink:href="#b"/><use transform="rotate(216)" xlink:href="#b"/><use transform="rotate(288)" xlink:href="#b"/></g></defs><path d="M0,0H500V300H0"/><path d="M42,42H458V258H42" fill="#007a5e"/><path d="m42 42h416l-416 216h416z" fill="#fcd116"/><circle cx="250" cy="150" r="36"/><use transform="translate(250,150) scale(33)" xlink:href="#c"/><use x="-100" xlink:href="#a"/><use id="a" transform="translate(250,21) scale(19.5)" xlink:href="#c"/><use x="100" xlink:href="#a"/><use x="-100" y="258" xlink:href="#a"/><use y="258" xlink:href="#a"/><use x="100" y="258" xlink:href="#a"/><path d="m67.749 150.41c4.504 8.39 13.265 17.52 20.916 20.73 0.123-8.52-2.9-19.44-7.034-28.14l-13.882 7.41z"/><path d="m60.112 121.63c6.529 13.61-16.933 46.08 22.156 53.69-4.822-6.58-7.931-17.44-6.755-26.16 8.201 3.12 16.83 12.25 20.317 19.23 10.23-37.15-26.24-34.89-35.718-46.76z" fill="#fcd116"/></svg>