<svg viewBox="0 0 512 256" xmlns="http://www.w3.org/2000/svg" xmlns:xlink="http://www.w3.org/1999/xlink"><path d="M0,0H512V256H0" fill="#da000c"/><path d="M0,0H512V171.5H0" fill="#fff"/><g stroke="#000"><g id="a" fill="#da000c" stroke-linecap="square"><rect x="196.57" y="116.3" width="64" height="43.993" fill="#000" stroke="none"/><path d="m229.82 153.86h-39.069l-8.6601 5.6998v6.0397h47.729"/><path d="m213.47 128.59c5.6248 0 10.219 4.6893 10.219 10.469v14.781h7.3438v-56h-40.281v56h12.5v-14.781c-1e-5 -5.5537 4.5149-10.469 10.219-10.469z"/><rect x="204.53" y="59.962" width="18.523" height="33.959" fill="#000" stroke="none"/><path d="m223 88.656h-16.209v-5.75h-11.885v5.75h-8.0625v-5.75h-4.8125v10.438h40.969m-36.156-0.037712h34.97v4.5377h-34.97z"/><path d="m200.72 47.625v35.281h6.0723v-9.6875c0-3.6293 2.5621-6.5994 6.1464-6.7812 0.11562-0.005867 0.22668 0 0.34375 0 3.7464-3e-6 6.7812 3.0349 6.7812 6.7812v9.6875h5.7812v-35.281z"/><path d="m198.53 42.844v4.7812h29.25v-4.7812z"/><path d="m194.78 33.688v9.1562h35.094v-9.1562h-5.4062v4.6562h-6.5312v-4.6562h-9.9688v4.6562h-6.5312v-4.6562z"/><path d="m182.09 159.56h47.91"/><path d="m261 156.81h-32.438l-9.7812 4.7188v7.0312h42.219"/><path d="m218.77 161.52h43.229" stroke-linecap="butt"/></g><use transform="matrix(-1,0,0,1,512,0)" xlink:href="#a"/><g fill="#f8d80e"><g stroke-linecap="round"><path d="m273.3 150.03c-2.6543 0.88339-5.0533 2.369-7.4689 3.7528-3.1004 1.8316-6.1068 3.8273-8.9045 6.0988-0.98462 0.64912-1.9293 1.3606-2.6891 2.2733-1.0258 0.8776-2.0649 2.0548-1.8688 3.513 0.0518 0.64315 0.87359-0.75523 1.414-0.82297 0.94235-0.54095 2.0838-0.7154 3.1422-0.4713 1.2712-1.3386 2.9099-2.2356 4.3249-3.4061 3.0047-2.2422 6.2366-4.1677 9.525-5.9608 1.1481-0.58838 2.301-1.1857 3.5251-1.6018-0.33328-1.125-0.66657-2.25-0.99985-3.375z" stroke-width=".768"/><path d="m260.4 157.39v3.9119"/><path d="m262.82 155.69v3.8828"/><path d="m265.23 154.18v3.8581"/><path d="m267.65 152.69v3.9813"/><path d="m238.89 150.16c-0.39583 1.1042-0.79167 2.2083-1.1875 3.3125 5.537 2.1004 10.809 4.8787 15.798 8.0604 1.6907 1.1508 3.4672 2.2663 4.7959 3.8459 0.2927 0.81098-0.51392 1.489-1.3141 1.244-0.73225-0.24871-1.4535-0.53169-2.2263-4e-3 -1.1064 0.50311-2.106 2.1416-0.42575 2.6911 2.3153 1.5549 6.0816 0.87915 7.1945-1.8452 0.58146-1.4013 0.61878-3.1952-0.50753-4.3446-2.0626-2.364-4.7973-4.008-7.4215-5.6718-4.6892-2.8202-9.5728-5.3739-14.706-7.288z" stroke-width=".768"/><path d="m254.05 158.04-0.31238 3.3395"/><path d="m256.83 159.74-0.86199 3.2697"/><path d="m259.8 162.01-1.8089 2.5373"/><path d="m260.72 168.18-2.6102-1.4005"/><path d="m261.53 165.43-2.9954 0.28045"/><path d="m257.66 169.76-0.2051-2.6323"/><path d="m256.57 166.76-2.473 1.8222"/><path d="m244.68 152.94v3.115"/><path d="m250.96 156.24v3.5342"/><path d="m247.82 154.59v3.3189"/></g><path d="m235.78 227.56v8.0312h5.0312v-4.0312h6.8438v4.0312h5.4062v-8.0312zm0 11.062v8.0625h17.281v-8.0625h-5.4062v4.0312h-6.8438v-4.0312z"/><rect x="253.05" y="193.65" width="4.9902" height="58.115"/><rect x="253.05" y="198.68" width="4.9902" height="50.06"/><path d="m255.55 179.41 10.625 6.1875-10.625 6.1562-10.625-6.1562zm-14.219 3.9688h-2.7812v4.4375h2.7812l14.219 8.25 14.219-8.25h2.7812v-4.4375h-2.7812l-14.219-8.25z" stroke-width="1.024"/><path d="m255.34 164.28c-2.4187 0.33922-4.2259 2.7302-4.0938 5.1341 9e-3 3.7377-0.0185 7.4763 0.0141 11.214 0.12824 2.4083 2.2322 4.5662 4.6744 4.5882 1.9849 0.18804 3.9789-0.97232 4.8115-2.7796-0.57292-0.34375-1.1458-0.6875-1.7188-1.0312-0.44378 1.1839-1.7234 1.9176-2.9688 1.7812-1.6351 0.046-2.9592-1.544-2.8125-3.1341 0.01-3.7134-0.0192-7.428 0.0146-11.141 0.0899-1.5151 1.5349-2.7549 3.048-2.6002 0.6265-0.17973 1.4875 0.67715 1.8747-0.0623 0.5838-0.82944-0.41442-1.4774-0.96875-1.9374-0.61348-0.0841-1.2542-8e-3 -1.8747-0.0316zm5.7812 3.9062c-0.39638 0.7459-1.2163 1.1892-1.875 1.5804v7.5133c0.66667 0.38542 1.3333 0.77083 2 1.1562-8e-3 -3.2038 0.0153-6.4081-0.0117-9.6115-0.0315-0.19722-8e-3 -0.4984-0.11328-0.63848z" stroke-width="1.024"/></g><g fill="#da000c"><rect x="240.8" y="38.351" width="29.329" height="53.255" fill="#000" stroke="none"/><path d="m238.75 38.375v44.562h9.3125v-13.219c0-3.0489 1.9525-7.2812 7.9375-7.2812s7.9375 4.2323 7.9375 7.2812v13.219h9.3125v-44.562zm15.812 5h2.875v15.25h-2.875zm-8.25 3h2.9062v11.156h-2.9062zm16.469 0h2.9062v11.156h-2.9062z"/><path d="m235.59 31.969v6.3438h40.812v-6.3438z"/><path d="m231.75 24.594v7.375h48.5v-7.375h-6.0938v4.0625h-6.875v-4.0625h-7.8438v4.0625h-6.875v-4.0625h-7.8438v4.0625h-6.875v-4.0625z"/><path d="m222.75 97.844v4.5938h66.5v-4.5938z"/><path d="m220.03 82.906v14.938h71.938v-14.938h-6.8125v5.75h-9.0625v-5.75h-12.156v5.75h-15.875v-5.75h-12.156v5.75h-9.0625v-5.75z"/><path d="m228.69 102.44v54.344h12.844v-20.344c0-9.5827 6.3963-14.094 14.469-14.094 7.7589 0 14.469 4.511 14.469 14.094v20.344h12.844v-54.344z" stroke-linejoin="round"/></g></g></svg>