<svg viewBox="0 0 600 300" xmlns="http://www.w3.org/2000/svg"><path d="M0,0H600V300H0" fill="#cf142b"/><g transform="matrix(.3498 0 0 .3498 163.24 23.834)"><path d="m419.1 546.46c0.2907-0.8793 0.87689-9.9462 0.58379-9.9462-0.29309 0-13.747-15.794-13.454-15.794s17.257 3.8031 17.257 3.2169c0-0.58379 6.7269-16.671 6.7269-16.964 0-0.2907 8.19 19.597 8.19 19.597l16.671 7.3131-11.7 9.6507s2.6331 18.72 2.6331 19.013c0 0.2907-11.7-11.116-11.7-11.116l-12.87 1.4631s-1.7538-5.85-2.3376-6.4338z" fill="#f9dd16" fill-opacity=".98823" fill-rule="evenodd" stroke="#000" stroke-width="2.4025pt"/><path d="m328.48 300.67c-11.114 5.7226-53.767 54.478-59.617 62.082-4.901 11.039-14.487 25.005-24.361 33.995-10.54 7.9738-16.397 18.866-14.946 29.18-0.11772 12.834 7.0776 21.572 12.81 30.602 3.3923 4.125 7.9569 6.7917 12.81 7.1161 9.9558 1.3141 10.84 4.3797 15.823 6.2776 19.628 26.725 48.909 46.432 69.998 62.043 13.442 7.0848 22.79 14.17 25.992 18.038 6.1743 11.789 5.0379 23.285 4.1923 28.933-5.2181 19.691-10.439 39.381-15.657 59.072-2.6331 16.087 11.347 12.469 12.099 9.2518 6.3088-8.19 15.724-2.4385 29.178-49.82 6.1671-8.3029 12.337-16.606 18.504-24.909 0 0 7.1185-2.8469 7.1185-3.558 10.823-12.995 2.5826-20.433-3.5604-22.773-4.507-1.6601-9.014-3.3226-13.521-4.9827 0 0-15.657-15.657-16.368-15.657-7.4404-21.644-43.96-67.85-52.443-74.284-5.8716-6.119-8.6656-8.7257-14.239-12.13-8.5696-4.0986-11.335-5.4319-16.584-7.5269-4.3701-1.7538-1.2589-6.5515 1.5208-8.7449 28.926-15.746 51.855-33.245 79.61-51.038 1.4222-0.94897 2.8469-1.8979 4.2692-2.8469-3.3202-18.977-6.6428-37.956-9.963-56.933-15.419-5.456-30.84-10.914-46.259-16.37-2.4265 1.6601-4.2692 3.3226-6.4049 4.9827z" fill="#fff" fill-rule="evenodd" stroke="#000" stroke-width="3.7164"/><path d="m367.19 600.43c0.14655-0.58379 28.954-5.85 28.954-5.85s-3.3634 10.676-3.51 10.676l-28.661 8.6272 3.2169-13.454z" fill="#f9dd16" fill-rule="evenodd" stroke-width="1pt"/><path d="m292.11 491.96c5.5569-14.77 20.983-26.465 31.345-29.692" fill="none" stroke="#000" stroke-width="2.4025pt"/><path d="m366.15 600.69c1.8595-0.52374 10.117-2.9334 12.522-3.3082 2.5658-0.60062 5.1196-1.2733 7.587-2.0685 2.8469-0.58139 4.6295-1.1171 7.587-1.6553 2.316-0.8841 4.6055-1.4895 7.0824-2.0685m-39.994 26.912c0.24025-0.32193 2.203-2.0565 3.6133-2.895 1.6601-0.52373 7.3371-2.9334 9.4849-3.3082 2.2919-0.60061 4.5719-1.2733 6.7749-2.0685 2.5442-0.58139 4.1346-1.1171 6.7773-1.6553 2.0685-0.8841 4.113-1.4895 6.3233-2.0685" fill="none" stroke="#000" stroke-width="2.6566pt"/><path d="m372.63 496.14h-0.41322c1.2949 0 0.49971-0.10811-1.2421 2.0685-0.61983 1.6721-5.9293 5.3767-9.9269 5.3767-1.9292 0.20661-4.8938 0.41322-6.8254 0.41322-0.55016 0-1.3093-0.41322-1.8619-0.41322" fill="none" stroke="#000" stroke-width="2.4025pt"/><path d="m372.22 581.35h0.41322 1.6529c2.1454 0 4.298 0.38199 6.2055 0.41322 2.0685 0 4.137 0.5862 6.2055 0.5862 2.0877 0.2955 4.6031 0.19941 6.7629 0.50692 2.4217 0.0817 4.3653 0.55977 6.8854 0.55977 2.0325 0.0769 3.128 0.41563 5.3791 0.41563l-5.3791-0.41563c2.0325 0.0769 3.128 0.41563 5.3791 0.41563" fill="none" stroke="#000" stroke-width="2.4025pt"/><path d="m358.15 631.81c0.22103-0.32193 2.0181-2.0565 3.3082-2.895 1.5208-0.52374 6.7197-2.9334 8.6873-3.3082 2.0973-0.60061 4.1851-1.2733 6.2031-2.0685 2.3304-0.5814 3.7863-1.1171 6.2055-1.6553 1.8955-0.88411 3.767-1.4895 5.7899-2.0685" fill="none" stroke="#000" stroke-width="2.4025pt"/><path d="m396.89 559.91c-1.17 3.3971 0.34595 4.2499 0.97299 5.7154 1.0907 1.4198 3.8752 3.5845 8.274 4.9635 1.6961 0.45646 3.0007 0.90332 4.9635 1.6553 1.2997 0.12012 1.9388 0.44445 2.895 0.82644" fill="none" stroke="#000" stroke-width="2.4025pt"/><path d="m233.24 435.33h0.41323c-1.2973 0-0.51893 0.0841 1.6553-1.6553 1.343-1.5015 2.4649-2.1814 3.7214-3.7214" fill="none" stroke="#000" stroke-width="2.4025pt"/><path d="m260.02 464.8c0.27628 0 24.063-11.988 26.602-14.549 1.7994-1.3045 3.1616-2.6811 5.3503-4.1634 1.403-0.73275 2.4097-1.6721 3.7238-2.4817 1.0931-1.5832 2.5202-2.5394 3.3082-3.9881 1.4607-1.2661 0.83365-2.6379 2.0181-4.1634 0.55978-1.5616 1.6072-4.1923 1.9484-5.6217" fill="none" stroke="#000" stroke-width="2.4025pt"/><path d="m333.27 447.62c0.12973 0.85527-0.37959 3.4908-0.34355 5.4968-0.0817 2.3256-3.0727 9.5089-6.6884 11.654" fill="none" stroke="#000" stroke-width="2.4025pt"/><path d="m290.53 447.36c0.13934 0 3.7598 1.1772 9.8116 3.0391 7.2842 2.6187 22.434 12.166 23.938 13.48 1.5352 1.2084 4.2812 2.2871 5.3334 3.7214 1.6457 1.4222 2.8517 3.0631 4.137 4.5502 1.5112 1.8427 2.7989 3.4019 3.7214 4.9635 4.6007 3.731 16.976 29.565 17.372 31.023 0.69431 1.3646 1.5544 3.2649 2.0685 4.5502 0.91774 1.0571 1.54 2.5514 2.4817 4.137 0.86488 2.0565 1.8331 2.9935 2.8974 4.5502 1.3694 0.95137 3.2145 2.758 4.9635 3.7214 1.8643 1.5952 3.6133 2.2439 4.9635 3.3106 1.9508 0.82885 23.751 14.609 24.762 15.299 1.9916 1.6 8.0722 7.9017 3.8031 12.486-1.8114 1.5496-3.4427 3.6013-4.9899 4.4782-1.576 1.5784-3.7694 2.2847-5.5809 3.1016-9.8212 2.9022-14.823 1.8619-16.755 1.8619h-2.0685" fill="none" stroke="#000" stroke-width="2.4025pt"/><path d="m242.38 398.62c2.7916 1.0931 1.6649 0.28589 4.1779 1.4295 1.6889 0.73995 2.8013 0.75917 4.4614 1.3646 1.761 0.56458 6.6812 1.4511 9.0452 3.8247 1.7346 1.5664 3.0583 2.8902 4.9635 4.0337 2.2535 1.5544 3.88 2.2463 6.674 3.4115 2.3568 0.8817 4.9923 1.8595 7.3755 1.9436 2.4769 0.14414 3.0703 0.0216 5.4464 0.0216h5.7923-5.7923 5.7923" fill="none" stroke="#000" stroke-width="2.4025pt"/><path d="m241.72 426.23c6.2031-0.41322 16.543 1.4487 16.75 1.4487 2e-3 0 13.651-0.20661 13.651-0.20661 7.1713-0.69191 8.7545-3.4475 9.9269-5.3791 2.6884-4.1346 4.5502-5.5833 6.6188-8.6849 3.3082-2.4817 7.8608 3.3082 8.0674 3.3082 11.58 10.962 2.2727 24.404 1.6529 24.817-5.7899 5.3094-7.032 5.653-10.547 2.2751-3.5172-4.137-4.5502-5.9965-7.4452-7.4452-5.5833-2.6884-17.166-0.61983-17.375-0.61983-0.20661 0-5.9965 2.2751-5.9965 2.2751-2.8277 1.0331-4.6199 3.5172-9.5137 4.3412-4.9635 0.34595-6.6188-0.13694-9.1005-4.1346-3.3082-5.1701-1.6553-11.376 3.3106-11.995z" fill="#ffe606" fill-rule="evenodd" stroke="#000" stroke-width="2.4025pt"/><path d="m565.57 175.36c-0.90893 0.17754-9.0996 4.1101-8.9559 4.3656 0.14364 0.25549-7.0299 19.723-7.1735 19.468-0.14365-0.25549-5.1423-16.906-5.6533-16.619-0.50888 0.28611-17.828 2.3064-18.084 2.45-0.2534 0.14247 13.068-16.743 13.068-16.743l-1.7954-18.115 14.146 5.4689s15.027-11.47 15.283-11.613c0.25339-0.14247-3.9557 15.646-3.9557 15.646l7.5827 10.501s-4.2398 4.3957-4.4625 5.1907z" fill="#f9dd16" fill-opacity=".98823" fill-rule="evenodd" stroke="#000" stroke-width="2.4025pt"/><path d="m395.73 374.81c10.435 6.883 73.838 20.168 83.333 21.541 12.025-1.1381 28.896 0.3733 41.571 4.5744 12.116 5.2792 24.481 5.0464 32.76-1.2731 11.245-6.1871 15.335-16.741 20.397-26.164 1.9332-4.9786 2.0206-10.264-0.0751-14.654-3.7337-9.3222-1.4948-11.595-2.2824-16.869 13.676-30.207 16.504-65.389 19.777-91.422-0.41193-15.189 1.1824-26.81 2.9845-31.497 7.2501-11.16 17.828-15.803 23.165-17.834 19.721-5.1015 39.443-10.201 59.164-15.303 15.313-5.5887 5.3078-16.001 2.1352-15.08-10.231-1.4855-9.8317-12.511-57.726-1.0176-10.26-1.3066-20.521-2.6152-30.781-3.9218 0 0-5.9702-4.8098-6.5901-4.4612-16.632-3.0656-19.077 7.7626-18.106 14.264 0.76175 4.7422 1.5214 9.4856 2.2832 14.228 0 0-5.9744 21.321-5.6259 21.941-15.22 17.093-37.876 71.981-39.327 82.528-0.6867 9.9113-4.4299 8.1214-3.4262 17.755 0.0376 7.5279-0.83827 2.8278 1.675 18.337 0.61297 4.6688-5.0938 4.3081-8.368 2.9602-27.901-17.497-54.392-28.907-83.504-44.381-1.5242-0.77467-3.0496-1.5514-4.5738-2.3261-14.915 12.194-29.83 24.392-44.745 36.587 2.8008 16.114 5.6006 32.232 8.4014 48.346 2.6362 1.3015 4.9885 2.093 7.4823 3.1411z" fill="#fff" fill-rule="evenodd" stroke="#000" stroke-width="3.7164"/><path d="m638.05 194.17c-0.5807 0.15836-19.289-22.372-19.289-22.372s10.955-2.3006 11.027-2.1728l21.567 20.755-13.304 3.7894z" fill="#f9dd16" fill-rule="evenodd" stroke-width="1pt"/><path d="m580.29 312.77c-15.598 2.3949-33.353-5.32-41.243-12.771" fill="none" stroke="#000" stroke-width="2.4025pt"/><path d="m638.78 194.94c-1.3678-1.3642-7.515-7.3809-9.0203-9.2935-1.781-1.9422-3.619-3.8386-5.5213-5.5996-1.902-2.1966-3.2426-3.488-5.1611-5.8021-1.9057-1.5855-3.5555-3.2845-5.2741-5.1598m43.059 21.672c-0.39836-0.0516-2.8723-0.91248-4.2943-1.7308-1.2701-1.1904-6.1528-4.9579-7.5321-6.6464-1.6468-1.7035-3.3505-3.3612-5.1234-4.8918-1.7537-1.9328-3.0001-3.0566-4.7644-5.0964-1.7844-1.3698-3.3141-2.8552-4.902-4.4981" fill="none" stroke="#000" stroke-width="2.6566pt"/><path d="m544.47 240.53c0.0683 0.12146 0.1354 0.24083 0.20251 0.3602-0.63462-1.1288-0.33914-0.3826 2.4118 0.0689 1.7613-0.27918 7.5926 2.5333 9.5518 6.018 1.1256 1.5804 2.7586 4.0633 3.7052 5.747 0.26963 0.47956 0.2815 1.3438 0.5523 1.8255" fill="none" stroke="#000" stroke-width="2.4025pt"/><path d="m618.95 199.13c-0.0671-0.11937-0.13422-0.23874-0.20251-0.3602 0.2708 0.48166-0.54043-0.96122-0.81006-1.4408-1.0514-1.8701-1.7734-3.9337-2.681-5.6117-1.0138-1.8031-1.5165-3.8934-2.5303-5.6965-0.76558-1.9646-2.0821-4.1101-2.8725-6.1435-1.1156-2.1509-1.6514-4.0794-2.8865-6.2762-0.92908-1.8093-1.1707-2.9303-2.2739-4.8925l2.2739 4.8925c-0.92908-1.8093-1.1707-2.9303-2.2739-4.8925" fill="none" stroke="#000" stroke-width="2.4025pt"/><path d="m669.83 186.66c-0.38894-0.0349-2.7816-0.75123-4.1448-1.4649-1.2018-1.0689-5.8502-4.4197-7.1412-5.9512-1.5514-1.5338-3.161-3.024-4.8431-4.3934-1.6489-1.7464-2.8294-2.7529-4.4841-4.598-1.6996-1.219-3.1446-2.5536-4.6406-4.0332" fill="none" stroke="#000" stroke-width="2.4025pt"/><path d="m588.18 188.13c3.5345-0.645 3.535-2.3844 4.5052-3.6492 0.7031-1.6466 1.2253-5.1346 0.27153-9.6448-0.43336-1.7022-0.68318-3.0583-0.98965-5.1378-0.53227-1.1918-0.56275-1.9078-0.69839-2.9285" fill="none" stroke="#000" stroke-width="2.4025pt"/><path d="m559.79 391.84c-0.0671-0.11936-0.1354-0.24082-0.20251-0.36019 0.6358 1.1308 0.32761 0.41113-2.2541-0.63164-1.967-0.43476-3.1095-1.0795-5.0677-1.42" fill="none" stroke="#000" stroke-width="2.4025pt"/><path d="m572.35 354.05c-0.1354-0.24083-22.243-15.1-25.72-16.058-2.019-0.9292-3.8866-1.4419-6.2513-2.6232-1.3263-0.86388-2.6385-1.281-3.9882-2.0297-1.9158-0.17692-3.4486-0.95225-5.0976-0.92915-1.8195-0.65276-2.7079 0.56612-4.6182 0.28136-1.6355 0.27737-4.442 0.65358-5.8552 1.0568" fill="none" stroke="#000" stroke-width="2.4025pt"/><path d="m521.48 298.62c0.68194-0.53224 3.2288-1.3799 4.9598-2.3944 2.0672-1.0685 9.7946-1.9818 13.437 0.11852" fill="none" stroke="#000" stroke-width="2.4025pt"/><path d="m542.19 336c-0.0683-0.12146-0.8165-3.8543-2.1594-10.042-1.2873-7.6329-0.38983-25.518 0.0186-27.473 0.30099-1.9304-0.10451-4.8527 0.63-6.4728 0.43321-2.1315 1.2725-3.987 1.9388-5.8362 0.86563-2.2203 1.5936-4.1069 2.5027-5.6764 0.99749-5.8388 17.451-29.287 18.528-30.347 0.84921-1.274 2.0842-2.955 2.9526-4.0331 0.47166-1.318 1.4693-2.5928 2.3899-4.1908 1.3687-1.7618 1.711-3.0649 2.5464-4.7556 0.15816-1.6599 0.82872-4.1536 0.81132-6.1503 0.47685-2.4069 0.18512-4.2493 0.45322-5.949-0.23357-2.1067 1.0947-27.863 1.2-29.082 0.41863-2.5202 2.9316-10.909 9.0195-9.434 2.2385 0.81957 4.8264 1.236 6.349 2.1549 2.1482 0.60021 3.8389 2.166 5.4387 3.3447 7.343 7.1386 8.8876 12.008 9.8342 13.692 0.33792 0.60102 0.67583 1.202 1.0138 1.8031" fill="none" stroke="#000" stroke-width="2.4025pt"/><path d="m523.19 401.02c-0.0671-0.11937-0.13541-0.24083-0.20252-0.3602 0.5475 0.97378 0.24424 0.48833-0.45104-1.6454-0.18272-1.8348-0.74862-4.3169-1.0345-6.0607-0.37092-1.8117-1.2198-3.8756-0.98966-5.1378-0.64874-1.8402-0.24065-3.3595-0.0667-5.1826 0.5153-2.2796 0.74819-3.9292 0.81133-6.1503 0.25051-2.7261 0.0491-4.6579 0.20469-7.2342-0.71831-2.1208-0.86479-3.896-1.9595-6.0147-0.97405-2.0266-1.7191-3.9008-2.8836-5.9719-0.94664-1.6837-1.8921-3.3653-2.8387-5.049l2.8387 5.049c-0.94664-1.6837-1.8921-3.3653-2.8387-5.049" fill="none" stroke="#000" stroke-width="2.4025pt"/><path d="m547.7 388.9c-3.4003-5.2046-6.8449-15.13-6.9461-15.31-1e-3 -2e-3 -6.8701-11.798-6.8701-11.798-4.1177-5.912-7.2956-5.9415-9.5539-6.0168-4.9216-0.31704-7.0968-1.23-10.814-1.5131-3.7846-1.6674-0.96883-8.4734-1.0701-8.6535 3.8805-15.466 20.159-13.941 20.823-13.603 7.4656 2.4448 8.3738 3.3592 7.152 8.0784-1.8824 5.0933-2.997 6.9052-2.841 10.139 0.39293 6.1844 7.8723 15.267 7.9747 15.449 0.10125 0.18009 4.922 4.112 4.922 4.112 2.2863 1.9585 5.33 2.3033 8.4467 6.1653 2.7341 4.157 3.1244 5.8365 0.85598 9.959-2.8853 5.4174-9.1046 7.0179-12.079 2.993z" fill="#f9dd16" fill-rule="evenodd" stroke="#000" stroke-width="2.4025pt"/><g transform="matrix(-1.107 2.1322 -2.1322 -1.107 906.74 -15.63)"><path d="m238.86 224.5c0.121-0.366 0.365-4.14 0.243-4.14s-5.722-6.574-5.6-6.574 7.183 1.583 7.183 1.339c0-0.243 2.8-6.939 2.8-7.061 0-0.121 3.409 8.157 3.409 8.157l6.939 3.044-4.87 4.017s1.096 7.792 1.096 7.914c0 0.121-4.87-4.627-4.87-4.627l-5.357 0.609s-0.73-2.435-0.973-2.678z" fill="#f9dd16" fill-opacity=".98823" fill-rule="evenodd" stroke="#000" stroke-width="1pt"/><path d="m201.14 122.2c-4.626 2.382-22.38 22.676-24.815 25.841-2.04 4.595-6.03 10.408-10.14 14.15-4.387 3.319-6.825 7.853-6.221 12.146-0.049 5.342 2.946 8.979 5.332 12.738 1.412 1.717 3.312 2.827 5.332 2.962 4.144 0.547 4.512 1.823 6.586 2.613 8.17 11.124 20.358 19.327 29.136 25.825 5.595 2.949 9.486 5.898 10.819 7.508 2.57 4.907 2.097 9.692 1.745 12.043-2.172 8.196-4.345 16.392-6.517 24.588-1.096 6.696 4.723 5.19 5.036 3.851 2.626-3.409 6.545-1.015 12.145-20.737 2.567-3.456 5.135-6.912 7.702-10.368 0 0 2.963-1.185 2.963-1.481 4.505-5.409 1.075-8.505-1.482-9.479-1.876-0.691-3.752-1.383-5.628-2.074 0 0-6.517-6.517-6.813-6.517-3.097-9.009-18.39-28.426-21.921-31.104-3.456-2.271-2.043-3.264-5.743-4.865-2.739-1.522-0.855-0.881-6.995-3.133-1.819-0.73-0.524-2.727 0.633-3.64 12.04-6.554 21.584-13.838 33.137-21.244 0.592-0.395 1.185-0.79 1.777-1.185-1.382-7.899-2.765-15.799-4.147-23.698-6.418-2.271-12.837-4.543-19.255-6.814-1.01 0.691-1.777 1.383-2.666 2.074z" fill="#fff" fill-rule="evenodd" stroke="#000" stroke-width="1.5469"/><path d="m217.25 246.97c0.061-0.243 12.052-2.435 12.052-2.435s-1.4 4.444-1.461 4.444l-11.93 3.591 1.339-5.6z" fill="#f9dd16" fill-rule="evenodd"/><path d="m186 201.82c2.313-6.148 8.734-11.016 13.047-12.359" fill="none" stroke="#000" stroke-width="1pt"/><path d="m216.82 247.07c0.774-0.218 4.211-1.221 5.212-1.377 1.068-0.25 2.131-0.53 3.158-0.861 1.185-0.242 1.927-0.465 3.158-0.689 0.964-0.368 1.917-0.62 2.948-0.861m-16.647 11.202c0.1-0.134 0.917-0.856 1.504-1.205 0.691-0.218 3.054-1.221 3.948-1.377 0.954-0.25 1.903-0.53 2.82-0.861 1.059-0.242 1.721-0.465 2.821-0.689 0.861-0.368 1.712-0.62 2.632-0.861" fill="none" stroke="#000" stroke-width="1.1058pt"/><path d="m219.52 203.56h-0.172c0.539 0 0.208-0.045-0.517 0.861-0.258 0.696-2.468 2.238-4.132 2.238-0.803 0.086-2.037 0.172-2.841 0.172-0.229 0-0.545-0.172-0.775-0.172" fill="none" stroke="#000" stroke-width="1pt"/><path d="m219.35 239.02h0.172 0.688c0.893 0 1.789 0.159 2.583 0.172 0.861 0 1.722 0.244 2.583 0.244 0.869 0.123 1.916 0.083 2.815 0.211 1.008 0.034 1.817 0.233 2.866 0.233 0.846 0.032 1.302 0.173 2.239 0.173l-2.239-0.173c0.846 0.032 1.302 0.173 2.239 0.173" fill="none" stroke="#000" stroke-width="1pt"/><path d="m213.49 260.03c0.092-0.134 0.84-0.856 1.377-1.205 0.633-0.218 2.797-1.221 3.616-1.377 0.873-0.25 1.742-0.53 2.582-0.861 0.97-0.242 1.576-0.465 2.583-0.689 0.789-0.368 1.568-0.62 2.41-0.861" fill="none" stroke="#000" stroke-width="1pt"/><path d="m229.62 230.1c-0.487 1.414 0.144 1.769 0.405 2.379 0.454 0.591 1.613 1.492 3.444 2.066 0.706 0.19 1.249 0.376 2.066 0.689 0.541 0.05 0.807 0.185 1.205 0.344" fill="none" stroke="#000" stroke-width="1pt"/><path d="m161.5 178.25h0.172c-0.54 0-0.216 0.035 0.689-0.689 0.559-0.625 1.026-0.908 1.549-1.549" fill="none" stroke="#000" stroke-width="1pt"/><path d="m172.64 190.51c0.115 0 10.016-4.99 11.073-6.056 0.749-0.543 1.316-1.116 2.227-1.733 0.584-0.305 1.003-0.696 1.55-1.033 0.455-0.659 1.049-1.057 1.377-1.66 0.608-0.527 0.347-1.098 0.84-1.733 0.233-0.65 0.669-1.745 0.811-2.34" fill="none" stroke="#000" stroke-width="1pt"/><path d="m203.13 183.36c0.054 0.356-0.158 1.453-0.143 2.288-0.034 0.968-1.279 3.958-2.784 4.851" fill="none" stroke="#000" stroke-width="1pt"/><path d="m185.34 183.25c0.058 0 1.565 0.49 4.084 1.265 3.032 1.09 9.338 5.064 9.964 5.611 0.639 0.503 1.782 0.952 2.22 1.549 0.685 0.592 1.187 1.275 1.722 1.894 0.629 0.767 1.165 1.416 1.549 2.066 1.915 1.553 7.066 12.306 7.231 12.913 0.289 0.568 0.647 1.359 0.861 1.894 0.382 0.44 0.641 1.062 1.033 1.722 0.36 0.856 0.763 1.246 1.206 1.894 0.57 0.396 1.338 1.148 2.066 1.549 0.776 0.664 1.504 0.934 2.066 1.378 0.812 0.345 9.886 6.081 10.307 6.368 0.829 0.666 3.36 3.289 1.583 5.197-0.754 0.645-1.433 1.499-2.077 1.864-0.656 0.657-1.569 0.951-2.323 1.291-4.088 1.208-6.17 0.775-6.974 0.775h-0.861" fill="none" stroke="#000" stroke-width="1pt"/><path d="m165.63 163.1h0.172c-0.465 0-0.227-0.011 0.689 0.172 0.703 0.308 1.719 0.609 2.41 0.861 0.733 0.235 1.655 0.348 2.066 0.689 0.8 0.14 1.268 0.598 1.894 1.033 0.722 0.652 1.273 1.073 2.066 1.549 0.938 0.647 1.68 0.968 2.583 1.55 0.916 0.172 1.59 0.481 2.582 0.516 0.934 0.06 1.766 0.172 2.755 0.172h2.411-2.411 2.411" fill="none" stroke="#000" stroke-width="1pt"/><path d="m221.24 142.95h-0.345c0.637 0 0.458-0.023-0.516 0.172-1.017 0.525-2.371 0.922-3.272 1.377-1.028 0.34-2.133 0.717-3.099 1.206-1.094 0.641-2.102 1.162-3.099 1.893-0.991 0.531-1.965 1.185-2.927 1.722-0.959 0.521-1.751 1.024-2.582 1.722-0.694 0.385-1.637 0.93-2.411 1.549-0.727 0.261-1.252 0.779-1.721 1.206-0.911 0.807-1.469 1.226-2.411 2.066-0.495 0.468-1.153 1.018-1.894 1.721-0.778 0.519-1.62 1.517-2.238 2.066-0.396 0.517-0.976 1.132-1.549 1.55-0.441 0.555-0.952 1.285-1.55 1.722-0.355 0.528-0.976 1.216-1.55 1.894-0.465 0.569-1.105 1.142-1.549 1.721-0.598 0.662-1.056 1.329-1.722 1.894-0.119 0.398-0.369 0.604-0.516 0.861" fill="none" stroke="#000" stroke-width="1pt"/><path d="m165.03 174.46c2.582-0.172 6.886 0.603 6.972 0.603 1e-3 0 5.682-0.086 5.682-0.086 2.985-0.288 3.644-1.435 4.132-2.239 1.119-1.721 1.894-2.324 2.755-3.615 1.377-1.033 3.272 1.377 3.358 1.377 4.82 4.563 0.946 10.158 0.688 10.33-2.41 2.21-2.927 2.353-4.39 0.947-1.464-1.722-1.894-2.496-3.099-3.099-2.324-1.119-7.145-0.258-7.232-0.258-0.086 0-2.496 0.947-2.496 0.947-1.177 0.43-1.923 1.464-3.96 1.807-2.066 0.144-2.755-0.057-3.788-1.721-1.377-2.152-0.689-4.735 1.378-4.993z" fill="#f9dd16" fill-rule="evenodd" stroke="#000" stroke-width="1pt"/></g><path d="m332.3 290.15c-2.276-2.067 42.811 16.337 49.014 16.546 8.481-3.102 43.433-32.676 43.433-32.676 0.345 2.895 1.584 10.409 4.961 11.996-13.51 10.962-25.782 21.508-39.293 32.468 0.966 17.373-2.205 35.78 6.618 55.221 0 0-10.546 0.205-10.546 0-9.307-9.307-12.618-54.185-12.618-54.185-14.821-6.619-29.644-13.029-44.465-19.648 2.138-1.38 3.861-5.652 2.896-9.722z" fill="#f9dd16" fill-opacity=".98742" fill-rule="evenodd" stroke="#000" stroke-width="2.4024pt"/><path d="m375.2 336.15c0.721-0.523-8.133 4.113-10.407 5.277-40.961 21.85-62.04 53.634-63.354 54.835-0.708 1.354-2.011 3.16-3.204 4.929-0.96 1.483-2.338 3.018-3.246 4.518-1.255 1.738-3.893 5.17-5.334 6.694-0.18 0.982 0.683-0.336 0.401 0.317" fill="none" stroke="#000" stroke-width="2.4024pt"/><path d="m403.19 310.18c-0.795-0.402 7.378 5.351 9.453 6.84 38.166 26.431 76.072 30.638 77.741 31.257 1.528 0.01 3.73 0.343 5.848 0.595 1.759 0.175 3.753 0.698 5.503 0.82 2.119 0.32 6.378 1.096 8.393 1.681 0.954-0.29-0.611-0.453 0.098-0.502" fill="none" stroke="#000" stroke-width="2.4024pt"/></g></svg>