<svg viewBox="0 0 600 300" xmlns="http://www.w3.org/2000/svg" xmlns:xlink="http://www.w3.org/1999/xlink"><defs><clipPath id="k"><path d="M0 0V75H350V150H300zM300 0H150V200H0V150z"/></clipPath><clipPath id="j"><rect width="300" height="150"/></clipPath></defs><path d="M0,0H600V300H0" fill="#FFF"/><path id="c" d="m600 260.88c-6.723 4.045-12.499 13.498-30.36 13.498-35.711 0-44.641-19.902-71.427-19.902-17.856 0-26.785 19.902-44.641 19.902-35.715 0-44.643-19.902-71.429-19.902-17.857 0-26.786 19.902-44.643 19.902-35.714 0-44.643-19.902-71.428-19.902-17.858 0-26.786 19.902-44.643 19.902-35.714 0-44.643-19.902-71.429-19.902-17.858 0-26.786 19.902-44.643 19.902-35.714 0-44.643-19.902-71.428-19.902-17.858 0-23.215 14.182-33.929 14.182v25.621c10.714 0 16.071-14.181 33.929-14.181 26.785 0 35.714 19.901 71.428 19.901 17.857 0 26.785-19.901 44.643-19.901 26.785 0 35.715 19.901 71.429 19.901 17.857 0 26.785-19.901 44.643-19.901 26.785 0 35.714 19.901 71.428 19.901 17.857 0 26.786-19.901 44.643-19.901 26.786 0 35.714 19.901 71.429 19.901 17.856 0 26.785-19.901 44.641-19.901 26.786 0 35.716 19.901 71.427 19.901 17.861 0 23.637-5.64 30.36-9.684v-29.435z" fill="#002b7f"/><use transform="translate(0 -49.753)" xlink:href="#c"/><use transform="translate(0 -99.507)" xlink:href="#c"/><use transform="translate(0 -149.26)" xlink:href="#c"/><use transform="translate(0 -199.01)" xlink:href="#c"/><use transform="translate(0 -248.77)" xlink:href="#c"/><path d="M0,0H300V152H0" fill="#FFF"/><g clip-path="url(#j)"><rect width="300" height="150" fill="#00247d"/><path d="M0 0L300 150M300 0L0 150" stroke="#fff" stroke-width="30"/><path d="M0 0L300 150M300 0L0 150" clip-path="url(#k)" stroke="#cf142b" stroke-width="20"/><path d="M150 0V200M0 75H350" stroke="#fff" stroke-width="50"/><path d="M150 0V200M0 75H350" stroke="#cf142b" stroke-width="30"/></g><g transform="matrix(.60476 0 0 .60476 0 -.00011607)"><path transform="matrix(.2 0 0 .475 575.17 274.56)" d="m814.96-301.18l-17.717 708.66c0 37.298 80.097 37.298 88.583 0l-17.717-708.66h-53.149z" fill="#a24300" stroke="#fff" stroke-width="6.935"/><g transform="matrix(.7252 0 0 .6231 202.06 41.434)"><g transform="matrix(-.31451 .10485 -.13829 -.30324 1046.5 373.32)"><g id="d" fill="none" stroke="#000"><path transform="translate(177.17 -224.05)" d="m496.06 549.21l17.717 70.866 35.433-53.15-17.717 88.583 35.433-35.433-35.433 88.582 35.433-35.433-35.433 88.583 35.433-35.433-35.433 106.3 35.433-35.433-35.433 106.3 35.433-35.433-35.433 106.3-17.716 53.151-17.717 17.72-17.717-17.72-17.716-53.151-35.433-106.3 35.433 35.433-35.433-106.3 35.433 35.433-35.433-106.3 35.433 35.433-35.433-88.583 35.433 35.433-35.433-88.582 35.433 35.433-17.717-88.583 35.433 53.15 17.717-70.866z" fill="#006d00" stroke="#fff" stroke-width="8.25"/><path transform="translate(177.17 -224.05)" d="m496.06 549.21v496.07"/><path transform="translate(177.17 -224.05)" d="m425.2 868.11l70.866 106.3 70.866-106.3"/><path transform="translate(177.17 -224.05)" d="m425.2 797.24l70.866 106.3 70.866-106.3"/><path transform="translate(177.17 -224.05)" d="m425.2 726.38l70.866 106.3 70.866-106.3"/><path transform="translate(177.17 -224.05)" d="m425.2 673.23l70.866 88.583 70.866-88.583"/><path transform="translate(177.17 -224.05)" d="m425.2 620.08l70.866 88.582 70.866-88.582"/><path transform="translate(177.17 -224.05)" d="m442.91 566.93l53.15 106.3 53.15-106.3"/></g></g><use transform="matrix(.23652 -.28186 .29496 .22762 354.57 204.65)" xlink:href="#d"/><use transform="matrix(.15164 .33524 -.3329 .16731 907.54 -153.47)" xlink:href="#d"/><use transform="matrix(-.20952 .30246 -.3147 -.19945 1141.4 167.58)" xlink:href="#d"/><use transform="matrix(-.20772 -.25838 .23618 -.23515 689.99 567.28)" xlink:href="#d"/><g transform="matrix(-.36218 -.099472 -.20981 .31773 1222.4 -24.229)"><g id="i" fill="none" stroke="#000"><path transform="translate(283.46 -124.02)" d="m460.63 549.21l28.643 70.866 42.223-53.15-10.184 88.583 27.9-35.433-17.716 88.582 25.249-35.433-25.249 88.583 35.433-35.433-35.433 106.3 35.433-35.433-35.433 106.3 35.433-35.433-35.433 106.3-17.716 53.151-17.717 17.72-17.717-17.72-17.716-53.151-35.433-106.3 35.433 35.433-35.433-106.3 35.433 35.433-35.433-106.3 35.433 35.433-45.617-88.583 45.617 35.433-53.15-88.582 42.966 35.433-25.25-88.583 35.433 53.15 1e-3 -70.866z" fill="#006d00" stroke="#fff" stroke-width="8.25"/><path transform="translate(283.46 -124.02)" d="m467.21 584.65l28.855 124.02v336.62"/><path transform="translate(283.46 -124.02)" d="m436.23 885.83l59.833 88.582 60.682-88.582"/><path transform="translate(283.46 -124.02)" d="m434.53 814.96l61.53 88.582 60.682-88.582"/><path transform="translate(283.46 -124.02)" d="m435.38 744.1l60.682 88.582 59.833-88.582"/><path transform="translate(283.46 -124.02)" d="m432.84 690.94l63.228 70.866 53.149-70.866"/><path transform="translate(283.46 -124.02)" d="m425.2 637.8l70.866 70.865 45.406-70.865"/><path transform="translate(283.46 -124.02)" d="m436.12 593.24l53.15 86.886 35.327-95.478"/></g></g><use transform="matrix(.36088 .10411 .013211 .38052 452.76 -239.27)" xlink:href="#i"/><g transform="matrix(.046132 -.36474 .32602 .064796 379.58 479.54)" fill="none" stroke="#000"><path transform="translate(442.91 -42.966)" d="m354.33 531.5l88.583 88.583 17.716-53.149v88.582l35.433-35.433-17.716 88.583 35.432-35.434-17.716 88.584 35.433-35.433-17.716 106.3 35.433-35.433-35.433 106.3 35.433-35.433-17.717 106.3-17.716 53.151-17.717 17.72-17.717-17.72-17.716-53.151-53.15-82.294 35.434 11.429-35.433-106.3 35.433 35.433-53.15-106.3 35.433 35.433-53.15-88.584 53.15 35.434-70.866-88.583 53.149 35.433-70.866-70.866 70.866 35.433-53.149-88.583z" fill="#006d00" stroke="#fff" stroke-width="8.25"/><path transform="translate(442.91 -42.966)" d="m378.96 560.02l63.952 95.497 17.716 53.15 8.859 45.205 8.858 78.811 9.315 70.866 8.401 141.74"/><path transform="translate(442.91 -42.966)" d="m425.2 903.54l63.665 70.866 50.749-88.583"/><path transform="translate(442.91 -42.966)" d="m417.08 814.96l70.579 88.583 50.75-88.583"/><path transform="translate(442.91 -42.966)" d="m407.48 752.44l70.867 80.235 45.948-88.583"/><path transform="translate(442.91 -42.966)" d="m372.05 637.8l88.583 70.866 25.831-70.866"/><path transform="translate(442.91 -42.966)" d="m360.62 602.36l82.296 53.149 10.515-53.149"/><path transform="translate(442.91 -42.966)" d="m389.76 690.94l81.095 70.866 33.946-70.866"/></g></g></g><g transform="matrix(.25333 0 0 .25333 412 157.18)"><path d="m52.504 257.67l98.536-17.68 102.64 17.68-47.626 19.801-87.861 1.415-65.691-21.216z" fill="#9d9d9d" stroke="#000" stroke-width="1.008"/><path d="m151.79 98.445c-17.223 5.987-36.302-8.425-67.359 15.094 0 0-54.144-23.163-58.257 30.371-0.165 2.167 8.57 15.223 9.786 14.29 6.804-5.224-3.23 5.072-3.23 6.56 0 1.5 0.998 2.333 1.335 2.994 0.331 0.667 1.163 1.665 1.329 4.494 0.165 2.828-6.137 10.544-3.474 13.372 2.657 2.829 2.822 10.984 2.822 13.311 0 2.326 1.666 8.816 2.829 10.151 1.163 1.328 3.159 4.653 3.159 7.481 0 2.829 1.163 10.647 0.661 12.637-0.496 1.996 2.994 4.494 6.16 5.492 3.159 0.998 43.935 1.706 101.16 0.708 57.233-0.998 76.328 8.057 99.974-0.543 3.655-1.328 4.322-4.322 3.992-5.988-0.337-1.659 0-6.979 0.998-8.314 0.998-1.328 7.653-11.975 6.318-13.971 1.256-1.134 10.589 5.39 4.645-0.436-1.524-1.493 0.853-17.216 1.673-20.528 0.827-3.318 2.096-9.549 3.621-10.706 1.532-1.157-2.598-5.488-2.305-6.27 0.298-0.788 1.411-3.229 2.962-4.341 0 0 2.885-13.527 1.106-20.176-1.767-6.655-8.27-36.583-48.862-30.588 0 0-54.34-20.9-71.045-15.094z" fill="#c00" stroke="#000" stroke-width="1.629"/><g transform="translate(0 -.00026004)"><g transform="matrix(1.0858 0 0 1.0858 6.9147 26.112)"><g transform="matrix(.49697 -.044597 .089467 .72678 44.7 100.54)" stroke-width="1.241"><g id="h"><path d="m49.75 0.125c-5.093 0.89-15.156 29.245-12.609 38.75 1.763 6.58 4.498 11.12 6.047 13.906-3.405-4.685-11.383-13.75-22.25-13.75-13.664 0-15.431 29.948-15.094 31.875 1e-3 7e-3 -2e-3 0.026 0 0.032 1e-3 4e-3 0.029 0.027 0.031 0.031 2e-3 -1e-3 0.029 1e-3 0.031 0 0.613-0.715 6.142-13.094 19.657-13.094 8.896 0 15.829 7.035 18.375 10.031-1e-3 0.945 0.022 1.858 0.031 2.782-2.004 2.828-3.282 9.531-9.469 17.968-7.477 10.196-30.372 11.241-34.219 11.344h49.532c0.047 0 0.109 3e-3 0.156 0 0.022 2e-3 0.04-1e-3 0.062 0 0.047 3e-3 0.109 0 0.157 0h49.531c-3.847-0.103-27.18-1.148-34.656-11.344-6.188-8.437-7.028-15.14-9.032-17.968 9e-3 -0.924 0.032-1.837 0.032-2.782 2.545-2.996 9.478-10.031 18.375-10.031 13.514 0 19.043 12.379 19.656 13.094 2e-3 1e-3 0.029-1e-3 0.031 0 2e-3 -4e-3 0.03-0.027 0.031-0.031 2e-3 -6e-3 -1e-3 -0.025 0-0.032 0.337-1.927-1.43-31.875-15.093-31.875-10.868 0-18.846 9.065-22.25 13.75 1.548-2.786 4.29-8.575 5.718-13.906 2.587-9.656-7.44-38.743-12.531-38.75-0.08 0-0.169-0.014-0.25 0zm-6.437 52.844c0.352 0.49 0.662 0.912 0.906 1.281 5e-3 8e-3 0.541 2.977 0.547 2.984-3e-3 0.064 2.627 10.186 2.624 10.25-0.264-0.392-3.737-13.915-4.077-14.515zm13.375 0c-0.341 0.6-4.033 14.123-4.297 14.515-3e-3 -0.064 3.393-13.139 3.39-13.203 0-0.01-0.437 2.964-0.437 2.953 0.244-0.369 0.991-3.775 1.344-4.265z" fill="#f7d917" stroke="#000" stroke-width="1.241"/><path d="m42 67.578s4-1.859 8-1.859 8 1.859 8 1.859v4.953s-4-1.859-8-1.859-8 1.859-8 1.859v-4.953z" fill="#f7d917" stroke="#000" stroke-width="1.241"/></g></g><use transform="matrix(.49538 .059703 -.063593 .7295 168.92 96.59)" xlink:href="#h"/><g fill="#f7d917" stroke="#000" stroke-width=".715"><path d="m24.308 134.56l9.69-11.814s0.903 1.168 0 0c-19.866-25.681-20.871-40.415-18.635-47.876s6.709-15.544 18.635-25.493c11.926-9.948 20.156-4.419 31.336-4.419 11.181 0 14.163 2.487 23.852 3.731 9.69 1.243 35.778 2.487 35.778 2.487v-6.84s1.029 0.192 0 0c-11.518-2.147-26.088 0-35.778-2.487-9.689-2.487-17.889-3.108-28.324-3.108s-17.92-3.043-24.628 1.31c-6.709 4.352-14.908 11.813-20.871 18.031s-8.944 18.653-8.199 26.736c0.746 8.083 3.727 14.923 8.199 21.14 4.473 6.218 3.727 11.192 5.218 15.544 1.491 4.353 3.727 13.679 3.727 13.058z"/><path d="m239.26 134.56l-9.69-11.814s-0.904 1.168 0 0c19.865-25.681 20.87-40.415 18.634-47.876s-6.708-15.544-18.634-25.493c-11.926-9.948-20.156-4.419-31.337-4.419s-14.162 2.487-23.852 3.731c-9.69 1.243-35.778 2.487-35.778 2.487v-6.84s-1.029 0.192 0 0c11.519-2.147 26.088 0 35.778-2.487s17.889-3.108 28.324-3.108c10.436 0 17.92-3.043 24.629 1.31 6.708 4.352 14.907 11.813 20.87 18.031s8.945 18.653 8.199 26.736c-0.745 8.083-3.727 14.923-8.199 21.14-4.472 6.218-3.727 11.192-5.217 15.544-1.491 4.353-3.727 13.679-3.727 13.058z"/><rect x="115.55" y="38.701" width="34.563" height="70.894" stroke-width=".835"/></g><g transform="translate(0,-8)" fill="#f7d917" stroke="#000" stroke-width=".5"><path d="m119.68-15.799s3.72 3.028 6.575 6.922c2.856 3.893 4.846 8.652 4.846 8.652s-4.759-1.99-8.652-4.846c-3.894-2.855-6.922-6.575-6.922-6.575v26.302s3.028-3.72 6.922-6.575c3.893-2.856 8.652-4.846 8.652-4.846s-1.534 3.927-2.524 8.653c-0.891 4.25-8.183 14.064-8.183 14.064l21.303 1.429s-3.542-11.243-4.969-15.493c-1.536-4.578-2.167-8.653-2.167-8.653s4.759 1.99 8.653 4.846c3.893 2.855 6.921 6.575 6.921 6.575v-26.302s-3.028 3.72-6.921 6.575c-3.894 2.856-8.653 4.846-8.653 4.846s1.99-4.759 4.846-8.652c2.855-3.894 6.575-6.922 6.575-6.922h-26.302z"/><path transform="translate(-.022093 8)" d="m150 23.076a17.143 17.143 0 1 1 -34.286 0 17.143 17.143 0 1 1 34.286 0z"/><path d="m116.07 33.535h34.102s0.494-6.596-1.974-9.064h-10.594l-0.179-9.888h-3.945-6.097l-0.179 9.888s-7.127 0.357-10.41 0.357c-1.489 4.041-1.26 4.381-1.26 4.381l0.536 4.326z"/></g><g fill="#f7d917" stroke="#000" stroke-width=".75"><path d="m110.88 107.22s6.212 5.056 10.979 11.557 8.09 14.446 8.09 14.446-7.946-3.323-14.446-8.09c-6.501-4.767-11.557-10.979-11.557-10.979v43.916s5.056-6.211 11.557-10.979c6.5-4.767 14.446-8.09 14.446-8.09s-3.323 7.946-8.09 14.447c-4.767 6.5-10.979 11.557-10.979 11.557h43.916s-6.212-5.057-10.979-11.557c-4.767-6.501-8.09-14.447-8.09-14.447s7.946 3.323 14.446 8.09c6.501 4.768 11.557 10.979 11.557 10.979v-43.916s-5.056 6.212-11.557 10.979c-6.5 4.767-14.446 8.09-14.446 8.09s3.323-7.945 8.09-14.446 10.979-11.557 10.979-11.557h-43.916z"/><path d="m27.24 181.78l21.625-3.813s-6.995-3.901-12.819-9.475-10.476-12.822-10.476-12.822 8.402 1.892 15.632 5.458 13.288 8.806 13.288 8.806l-7.626-43.249s-3.901 6.995-9.475 12.819-12.822 10.475-12.822 10.475 1.892-8.401 5.458-15.631 8.806-13.288 8.806-13.288l-21.625 3.813 10.034 56.907z"/><path d="m226.84 121.06s5.24 6.058 8.806 13.288 5.458 15.631 5.458 15.631-7.248-4.651-12.822-10.475-9.475-12.819-9.475-12.819l-7.626 43.249s6.058-5.24 13.288-8.806 15.632-5.458 15.632-5.458-4.652 7.248-10.476 12.822c-5.823 5.574-12.819 9.475-12.819 9.475l21.625 3.813 10.034-56.907-21.625-3.813z"/><path d="m27.464 179.53l0.15 31.506s52.648-17.928 105.3-17.928 105.3 17.928 105.3 17.928v-31.506s-52.685-17.929-105.37-17.929-105.37 17.929-105.37 17.929z"/></g><g fill="#FFF" stroke="#000" store-width="1.5"><g transform="matrix(.66123 0 0 .66123 21.246 -360.32)"><path id="a" d="m2.02 723.05a12.122 12.122 0 1 1 -24.243 0 12.122 12.122 0 1 1 24.243 0z"/></g><use transform="matrix(.66123 0 0 .66123 10.965 -378.6)" xlink:href="#a"/><use transform="matrix(.66123 0 0 .66123 8.8223 -400.03)" xlink:href="#a"/><use transform="matrix(.66123 0 0 .66123 15.251 -420.03)" xlink:href="#a"/><use transform="matrix(.66123 0 0 .66123 28.822 -436.46)" xlink:href="#a"/><use transform="matrix(.66123 0 0 .66123 47.394 -447.89)" xlink:href="#a"/><use transform="matrix(.66123 0 0 .66123 68.108 -446.46)" xlink:href="#a"/><use transform="matrix(.66123 0 0 .66123 88.822 -443.03)" xlink:href="#a"/><use transform="matrix(.66123 0 0 .66123 109.54 -440.89)" xlink:href="#a"/><use transform="matrix(-.66123 0 0 .66123 242.32 -360.32)" xlink:href="#a"/><use transform="matrix(-.66123 0 0 .66123 252.6 -378.6)" xlink:href="#a"/><use transform="matrix(-.66123 0 0 .66123 254.74 -400.03)" xlink:href="#a"/><use transform="matrix(-.66123 0 0 .66123 248.31 -420.03)" xlink:href="#a"/><use transform="matrix(-.66123 0 0 .66123 234.74 -436.46)" xlink:href="#a"/><use transform="matrix(-.66123 0 0 .66123 216.17 -447.89)" xlink:href="#a"/><use transform="matrix(-.66123 0 0 .66123 195.45 -446.46)" xlink:href="#a"/><use transform="matrix(-.66123 0 0 .66123 174.74 -443.03)" xlink:href="#a"/><use transform="matrix(-.66123 0 0 .66123 154.03 -440.89)" xlink:href="#a"/><g transform="translate(1.0403)"><use transform="matrix(.66123 0 0 .66123 138.47 -378.32)" xlink:href="#a"/><use transform="matrix(.66123 0 0 .66123 138.47 -392.6)" xlink:href="#a"/><use transform="matrix(.66123 0 0 .66123 138.47 -404.03)" xlink:href="#a"/><use transform="matrix(.66123 0 0 .66123 138.47 -414.46)" xlink:href="#a"/><use transform="matrix(.66123 0 0 .66123 138.47 -447.89)" xlink:href="#a"/><use transform="matrix(.66123 0 0 .66123 138.47 -446.46)" xlink:href="#a"/><use transform="matrix(.66123 0 0 .66123 138.47 -439.03)" xlink:href="#a"/><use transform="matrix(.66123 0 0 .66123 138.47 -428.89)" xlink:href="#a"/></g></g><g fill="#FFF" stroke="#000"><g transform="translate(-.45714 -2)"><path id="f" d="m143.57 136.29a10.357 10.357 0 1 1 -20.714 0 10.357 10.357 0 1 1 20.714 0z"/></g><use transform="translate(-108.71 16.786)" xlink:href="#f"/><use transform="translate(107.29 16.786)" xlink:href="#f"/></g></g><rect x="134.79" y="210.1" width="34.762" height="15.153" fill="#002b7f" stroke="#000" stroke-width=".841"/><path transform="matrix(-.67815 -.068828 .023825 .9577 195.48 -.8303)" d="m16.043 233.11a22.995 8.556 0 1 1 -45.99 0 22.995 8.556 0 1 1 45.99 0z" fill="#3e8225" stroke="#000" stroke-width="1.5"/><path d="m36.937 229.28l-8.709 8.709 10.101 5.832 23.493-6.294-4.187-13.304-20.698 5.057z" fill="#c00" stroke="#000" stroke-width="1.086"/><path d="m267.41 229.28l8.71 8.709-10.102 5.832-23.493-6.294 4.187-13.304 20.698 5.057z" fill="#c00" stroke="#000" stroke-width="1.086"/><path transform="matrix(.67815 -.068828 -.023825 .9577 108.87 -.8303)" d="m16.043 233.11a22.995 8.556 0 1 1 -45.99 0 22.995 8.556 0 1 1 45.99 0z" fill="#3e8225" stroke="#000" stroke-width="1.5"/><g fill="#FFF" stroke="#000" store-width="0.7"><g transform="translate(1.0695 -3.4759)"><path id="b" d="m126.2 214.7a4.278 4.278 0 1 1 -8.556 0 4.278 4.278 0 1 1 8.556 0z"/></g><use transform="translate(2.4064 10.16)" xlink:href="#b"/><use transform="translate(-52.406 6.1497)" xlink:href="#b"/><use transform="translate(-47.059 18.984)" xlink:href="#b"/><use transform="matrix(-1 0 0 1 303.07 -3.4759)" xlink:href="#b"/><use transform="matrix(-1 0 0 1 301.74 10.16)" xlink:href="#b"/><use transform="matrix(-1 0 0 1 356.55 6.1497)" xlink:href="#b"/><use transform="matrix(-1 0 0 1 351.2 18.984)" xlink:href="#b"/></g></g><g transform="translate(0 -.00026004)"><path d="m238.54 280.6c3.267-0.567 22.977-5.253 27.127-7.76-2.678-4.828-7.484-8.605-3.744-7.018 2.014 0.855 3.607-5.799-2.239-10.885-16.973 5.567-57.68 15.739-108.83 15.739-52.344 0-93.562-10.707-110.54-16.273-5.846 5.086-4.025 10.864-4.378 13.023-3e-3 0.017 3e-3 2.725 1.069 4.879 5.754 6.251 24.394 9.332 27.662 9.9 15.352 2.666 30.705 6.697 86.148 6.697 51.289 0 72.366-5.635 87.719-8.302z" fill="#fff" stroke="#000" stroke-width="1.714"/><g transform="matrix(1.0858 0 0 1.0858 -81.341 -69.111)"><path d="m132.91 289.66c-3.009 0.523-22.147 7.301-25.968 9.61 3e-3 0.014-3e-3 0.045 0 0.061 0.325 1.988-3.322 11.251 2.062 15.935 15.632-5.127 59.525-20.406 106.63-20.406 48.209 0 88.14 15.279 103.77 20.406 5.384-4.684 1.737-13.947 2.063-15.935 3e-3 -0.016-4e-3 -0.047 0-0.061-3.822-2.309-22.96-9.087-25.969-9.61-14.14-2.455-28.772-11.586-79.835-11.586-47.237 0-68.619 9.131-82.759 11.586z" fill="#fff" stroke="#000" stroke-width="1.578"/><g transform="matrix(1.3844 -.14324 .15642 1.2678 -86.626 -64.755)"><g id="e" stroke="#000" store-width="1.6"><g transform="matrix(.4996 0 0 .4996 56.864 150.9)"><path id="g" d="m115.51 301.56a1.872 1.872 0 1 1 -3.743 0 1.872 1.872 0 1 1 3.743 0z"/></g><use transform="matrix(.4996 0 0 .4996 55.527 153.31)" xlink:href="#g"/><use transform="matrix(.4996 0 0 .4996 57.398 154.91)" xlink:href="#g"/><path d="m113.52 303.67l8.526-3.166-4.185 2.392 2.686-0.083-2.492 1.168 4.001 0.275-8.536-0.586z"/></g></g><use transform="matrix(1.3844 -.14324 .15642 1.2678 -45.032 -76.658)" xlink:href="#e"/><use transform="matrix(1.3784 .19234 -.15163 1.2683 100.17 -120.86)" xlink:href="#e"/><use transform="matrix(1.3844 .14324 .15642 -1.2678 54.434 659.46)" xlink:href="#e"/><use transform="matrix(1.3844 .14324 .15642 -1.2678 96.412 670.42)" xlink:href="#e"/></g></g></g></svg>