<svg viewBox="0 0 411 274" xmlns="http://www.w3.org/2000/svg"><path d="m2e-3 86.355h411v101.29h-411z" fill="#fff"/><path d="m0 0h411v91.288h-411z" fill="#ce1126"/><path d="m0 182.71h411v91.287h-411z"/><path d="m246.026 120.178c-.558-.295-1.186-.768-1.395-1.054-.314-.438-.132-.456 1.163-.104 2.318.629 3.814.383 5.298-.873l1.308-1.103 1.54.784c.848.428 1.748.725 2.008.656.667-.176 2.05-1.95 2.005-2.564-.054-.759.587-.568.896.264.615 1.631-.281 3.502-1.865 3.918-.773.201-1.488.127-2.659-.281-1.438-.502-1.684-.494-2.405.058-1.618 1.239-3.869 1.355-5.894.299z" fill="#007a3d"/><path d="m251.76 114.936c-.563-.717-1.239-3.424-1.021-4.088.192-.576.391-.691.914-.527.918.287 1.13.92.993 3.064-.107 1.747-.366 2.206-.886 1.551z" fill="#007a3d"/><path d="m184.24 112.99c-0.185 1.311 2.325 4.568 3.458 5.158-0.77 0.345-1.728 0.188-2.434 0.576-3.948 3.948-18.367 18.006-21 21.366 7.799 0.154 16.448-0.106 23.761-0.44-7e-3 -5.299 5.018-5.572 8.381-7.502 1.73 2.725 6.075 2.516 6.618 6.617 0 4.91 9e-3 12.307 9e-3 17.646h-66.625c-1.172 5.176-5.844 9.125-12.354 7.5 2.014-2.104 5.405-2.827 6.619-5.734 1.024-6.365-2.046-10.296-4.031-13.906 3.284-1.195 3.782-1.494 7.121-3.737-2.344 7.12 6.091 6.338 12.353 6.175 0.211-2.417 0.089-5.271-1.766-5.624 2.396-0.87 2.794-1.168 6.619-4.412v9.593c14.886 0 30.942-0.111 46.139-0.111 0-3.002 0.795-7.824-1.581-7.824-2.269 0-0.107 6.173-1.87 6.173s-23.719 0-35.63 0c0-1.328-0.034-4.104-0.034-6.104 1.51-1.51 1.331-1.379 11.648-11.697 1.028-1.031 8.266-7.568 14.599-13.713z" fill="#007a3d"/><path d="m273.3 112.74c2.487 1.339 4.457 3.191 7.502 3.972-0.354 1.261-1.476 1.759-1.77 3.087v26.91c3.402 0.75 4.118-1.178 5.737-2.205 0.442 4.307 3.186 8.529 3.088 11.91h-14.559c2e-3 -14.555 2e-3 -29.114 2e-3 -43.674z" fill="#007a3d"/><path d="m253.89 127.15s5.296-4.471 5.296-4.643v23.484l3.814-6e-3c0-8.947-0.118-18.022-0.118-26.338 1.548-1.549 4.58-3.791 5.338-5.358v42.06c-10.746 0-30.793 0.012-33.443 0.012-0.493-8.729-0.577-17.771 9.6-15.826v-3.563c-0.311-0.609-0.868 0.147-0.998-0.645 1.615-1.617 2.163-2.029 6.538-5.852 0 4.612 0.08 15.5 0.08 15.5 1.07 0 3.153 4e-3 3.857 4e-3 1e-3 2e-3 0.036-18.227 0.036-18.829zm-12.553 18.603c0.716 1.075 3.154 1.056 3.04-0.755-0.411-1.493-3.616-0.924-3.04 0.755z" fill="#007a3d"/><circle cx="144.53" cy="161.37" r="2.042" fill="#007a3d"/><path d="m207.55 112.78c2.488 1.339 4.457 3.191 7.502 3.971-0.353 1.26-1.476 1.76-1.768 3.087v26.911c3.401 0.749 4.117-1.18 5.736-2.206 0.441 4.308 3.185 8.528 3.088 11.91h-14.56c2e-3 -14.556 2e-3 -29.114 2e-3 -43.673z" fill="#007a3d"/></svg>