<svg viewBox="0 0 630 360" xmlns="http://www.w3.org/2000/svg" xmlns:xlink="http://www.w3.org/1999/xlink"><path d="M0,0H630V360H0" fill="#da0000"/><path d="M0,0H630V240H0" fill="#fff"/><path d="M0,0H630V120H0" fill="#239f40"/><g transform="translate(8.4,100.4)"><g id="d"><g id="a" fill="none" stroke="#fff" stroke-width="2"><path id="c" transform="scale(1.4)" d="M0,1H26M1,10V5H9V9H17V5H12M4,9H6M26,9H21V5H29M29,0V9H37V0M33,0V9"/><path id="b" transform="scale(2.8)" d="m0 7h9m1 0h9"/><use y="120" xlink:href="#b"/><use y="145.2" xlink:href="#c"/></g><g id="e"><use x="56" xlink:href="#a"/><use x="112" xlink:href="#a"/><use x="168" xlink:href="#a"/></g></g><use x="168" xlink:href="#e"/><use x="392" xlink:href="#d"/></g><g transform="matrix(45,0,0,45,315,180)" fill="#da0000"><g id="f"><path d="m-0.54815 0.83638a0.91205 0.91205 0 0 0 0.87669 -1.5588 1 1 0 0 1 -0.87669 1.5588"/><path d="m0.61834 0.66141a0.76393 0.76393 0 0 0 -0.1967 -1.4025 1 1 0 0 1 0.1967 1.4025"/><path d="m0 1-0.05-1 0.05-0.78728a0.31 0.31 0 0 0 0.11803 0.099087v0.58778l-0.040225 0.99331z"/><path d="M-0.02,-0.85 0,-0.831217A0.14431,0.14431 0 0,0 0.252075,-0.967708A0.136408,0.136408 0 0,1 0,-0.924634"/></g><use transform="scale(-1,1)" xlink:href="#f"/></g></svg>