<svg viewBox="0 0 900 600" xmlns="http://www.w3.org/2000/svg" xmlns:xlink="http://www.w3.org/1999/xlink"><defs><path id="b" transform="rotate(30)" d="m-1 55.426h2v-93.426c2-2 2-5 2-8 0-2 0-10-3-18.663-3 8.6632-3 16.663-3 18.663 0 3 0 6 2 8z" stroke-miterlimit="10"/></defs><path d="M0,0H900V600H0" fill="#060"/><path d="M0,0H900V420H0" fill="#fff"/><path d="M0,0H900V180H0"/><path d="M0,210H900V390H0" fill="#b00"/><g transform="translate(450,300) scale(3.75)"><g id="c"><use xlink:href="#b"/><use fill="#fff" xlink:href="#b"/></g><use transform="scale(-1,1)" xlink:href="#c"/><path d="m-19 24c3 8 13 24 19 24s16-16 19-24v-48c-3-8-13-24-19-24s-16 16-19 24z" fill="#b00"/><path id="d" d="m19 24c3-8 5-16 5-24s-2-16-5-24c-3 8-5 16-5 24s2 16 5 24z"/><use transform="scale(-1,1)" xlink:href="#d"/><g fill="#fff"><ellipse rx="4" ry="6"/><path id="a" d="m1 5.85s4 8 4 21-4 21-4 21z"/><use transform="scale(-1)" xlink:href="#a"/><use transform="scale(-1,1)" xlink:href="#a"/><use transform="scale(1,-1)" xlink:href="#a"/></g></g></svg>