<svg viewBox="0 0 750 500" xmlns="http://www.w3.org/2000/svg"><path d="M0,0H750V500H0" fill="#ed1c24"/><path d="M0,125H750V375H0" fill="#fff"/><path d="m371.59 125c-5.3662 11.3-15.472 19.198-25.131 26.672-1.5891 1.3878-5.5399 4.0757-2.6737 6.1211 2.4556-2.7444 9.1949 0.88988 5.2781 3.8408-3.5087 3.2841-8.3396 4.4865-12.235 7.1964-3.4502 1.8745-6.9495 3.8319-9.6855 6.7012-0.18637 4.4824 5.5616 2.0011 7.8942 3.8686 3.0375 3.2474-1.288 8.7217-5.2743 7.4697-5.0971 0.15619-8.6174 4.641-10.545 8.9198-3.9871 6.1655-11.542 7.9912-17.557 11.5-3.4418 2.0063-6.781 4.2261-9.9849 6.5671-4.1308 2.8243-0.53706 8.4163 3.8582 7.0436 4.7445-0.47302 9.0131-4.2008 13.925-3.1266 4.4547 1.5652 5.7049 7.387 4.1867 11.452-1.124 3.2544-3.8489 5.5467-6.0321 8.0889-3.5441 3.5904-8.1789 5.9214-13.066 7.0328-4.7234 1.5858-8.9685 4.4794-12.067 8.3857-3.596 3.62-7.1775 7.2986-11.311 10.317-1.3056 3.3313 2.3789 6.169 5.4507 6.0806 6.4723-0.40757 10.958-5.7048 16.47-8.427 4.5743-2.0559 9.9578 2.8744 8.8388 7.6399-0.35398 4.6362-4.6948 6.9888-8.5543 8.4154-11.346 5.7037-21.197 13.975-29.944 23.101-1.8091 3.6901-6.7825 2.6038-9.4605 5.1762-1.7446 3.2554 2.6338 4.9719 5.2458 4.6372 11.225-1.3501 21.699-6.0946 31.622-11.315 3.6901-1.7643 7.1551-4.0861 10.992-5.4922 3.6036-0.89024 8.6285 0.67626 9.2732 4.7775-0.0051 4.3295-4.2943 6.7275-7.6911 8.4188-10.475 5.5035-21.971 8.5459-33.167 12.184-4.1914-1.1718-7.3491 6.2853-2.751 7.6262 4.8621 1.6673 10.031 0.33054 15.004 0.11201 15.379-2.3561 28.829-10.678 43.204-16.057 5.9763-1.9481 13.031 0.7705 15.98 6.3705 2.9632 4.9916 2.6923 11.556-0.43346 16.405-4.9398 10.569-12.45 20.282-22.532 26.358-6.3284 3.133-13.715 4.3317-19.139 9.1284-5.0161 1.6535 2.5147 8.4316 3.6033 3.052 3.0142-4.111 8.3304-5.3398 13.153-5.5096 7.2472-0.78893 14.944-2.1257 20.575-7.1428 5.0484-3.9203 10.023-9.3285 16.878-9.4129 3.7885 0.44927 7.5356 3.4935 11.383 1.636 3.366-1.5407 8.6473-0.63787 9.5265 3.5014 1.6074 4.8421 6.5983 7.0452 10.556 9.6365 1.4326 2.0118 6.193 7.2003 7.2908 2.6258-0.88582-3.2626 0.37987-8.2551 4.6598-7.1648 3.7384 0.16692 7.301 1.5454 11.032 1.7715 4.9689 1.0292 9.1136 4.4309 11.935 8.5382 1.941 2.6804 6.1926 7.2859 9.3515 3.7317 1.9603-3.6758-1.7816-6.7415-4.8278-8.0541-4.442-2.7527-8.2398-6.4186-12.124-9.8896-5.7242-5.3461-10.668-12.146-11.577-20.133-1.2318-7.9633-0.58354-16.085 0.45571-24.027 1.308-5.1129 7.8461-7.9043 12.418-5.1876 6.4328 2.9351 12.821 7.135 20.196 6.6796 10.657 0.22962 21.607-1.8108 32.022 1.2773 10.134 3.1924 17.38 11.745 27.252 15.446 2.21 1.3431 5.0372 0.06489 5.847-2.2955 0.97841-2.1211 0.28806-4.8349-1.7557-6.0437-11.441-11.549-27.078-17.159-40.315-26.184-4.1677-1.0584-4.9265-7.7636-1.0738-9.6994 5.0656-3.6812 12.232-1.9676 16.726 1.8279 3.7951 2.2231 8.0707 3.8886 12.523 3.8925 4.5609-1.4278 2.3497-8.0276-1.734-8.5238-7.3992-4.1778-12.699-11.034-19.109-16.467-3.6907-3.125-7.7303-6.2889-12.691-6.8955-2.7112-0.49371-5.4848-0.60175-8.2318-0.41738-2.5763-2.7998 0.85729-7.0869 4.1885-6.7363 3.4184 0.23026 6.8172 0.48435 10.231 0.00865 3.8152-0.27951 7.627-0.67444 11.456-0.70064 3.0906 2.1047 9.2664-1.531 6.4771-5.1598-3.047-2.67-7.4532-2.4381-11.094-3.8083-6.3966-2.0986-12.906-3.7948-19.498-5.125-4.6113-0.27496-4.0425-6.3438 0.01043-7.0132 2.6524-0.98945 4.9578 1.0484 7.504 1.3643 4.3484 0.93443 8.8379 0.92243 13.184 1.8698 3.6851-1.8191 0.83638-7.203-2.4972-7.5167-7.8655-2.8126-14.663-7.8888-21.308-12.827-7.3367-5.5177-13.993-11.899-21.42-17.289-2.6947-1.6699-7.1114-2.1508-7.8203-5.8516-0.25-3.4045 3.7573-4.955 6.598-4.159 4.0304 1.1902 7.786 3.2629 11.894 4.2805 3.2228 0.5477 6.5457 1.5013 9.6521 1.0952 3.9432-2.4776-1.6912-4.0611-3.7306-4.9207-5.2574-2.8354-9.9288-6.6132-14.66-10.216-3.9983-3.4129 3.3913-4.9207 5.9332-3.6066 4.2499 1.778 4.7342-4.4149 1.5574-5.9732-3.7431-1.5916-6.9621-4.2337-10.356-6.5379-6.1325-4.3655-13.078-7.8212-20.617-8.7811-8.4521-0.8493-16.341-5.7097-20.825-12.938-2.7806-4.1191-4.8212-8.6743-6.7939-13.218zm-27.757 47.418c4.3563 0.12924 3.6866 7.9802-0.60227 7.4564-4.165-0.26804-3.9101-8.2998 0.60227-7.4564zm41.09 4.2279c4.2389-0.75826 5.1366 6.9771 0.90145 7.3402-4.4126 0.78986-6.048-7.8297-0.90145-7.3402zm-12.035 1.0082c4.2974 0.8454 3.5329 8.3317-0.80403 8.3971-3.1731 0.70654-6.593 2.8722-9.8032 1.2491-2.6106-2.761 1.1626-6.8437 4.0767-7.7412 2.2352-0.45054 4.2916-1.4654 6.5306-1.905zm27.698 0.03253c4.1412 1.5107 2.6807 8.8214-1.6875 8.7282-4.1309 0.55352-6.0545-6.3375-2.2025-7.9719 1.247-0.44214 2.5534-0.81472 3.89-0.75629zm-46.724 8.2932c3.0452 2.898 1.2466 8.4905-2.5082 9.8276-2.7065 1.5055-6.3963 5.0667-9.3442 2.1365-1.5995-3.5791 2.4153-6.2742 4.7768-8.2609 2.1076-1.6387 4.4334-3.1263 7.0756-3.7032zm34.778 16.164c4.3599 2.0586 2.1467 9.9158-2.6384 9.4274-3.93-0.99583-3.4169-7.7362 0.54165-8.2739 0.74828-0.28639 1.4346-0.70797 2.0968-1.1535zm-13.834 0.78051c4.0776 1.9091 0.96423 8.7138-3.1428 7.7332-4.2584-0.50009-4.1798-7.9868 0.51635-7.3109 0.8849-0.04389 1.7987-0.0664 2.6265-0.42235zm29.822 3.9027c4.4692-1.3868 9.8498 3.2176 8.3993 7.8867-1.9907 3.6198-6.9167 4.078-10.445 2.7252-4.0514-0.2-6.7764-6.2906-3.1672-8.8697 1.4935-1.128 3.3762-1.5916 5.2127-1.7423zm-66.016 1.1708c3.6953-2.0104 7.6188 4.032 4.4762 6.6973-2.0817 3.0604-7.427 4.3107-9.784 0.90738-1.9581-3.3241 1.2079-8.9087 5.3078-7.6046zm-17.05 2.862c4.1918 0.57349 6.9232 4.3809 8.4724 8.0063 0.37817 4.4181-6.1409 6.8423-8.9848 3.6278-3.1978-2.0062-5.9971-6.132-4.3206-9.9612 1.0329-1.5205 3.0907-2.1479 4.833-1.6729zm102 15.969c4.5493-1.1989 7.8522 6.0716 3.9459 8.7018-3.5717 3.2442-10.516-1.0538-8.6537-5.6827 0.92574-1.7161 2.7776-2.8566 4.7079-3.0191zm-57.904 8.2932c3.8146 0.4858 2.5787 7.0971-0.94845 6.8752-3.7856-0.70169-2.9188-7.2481 0.94845-6.8752zm-19.35 3.5124c3.1113-2.2014 7.1241 3.1717 4.536 5.6755-3.102 2.1846-7.1256-3.1032-4.536-5.6755zm30.766 0.65045c3.6064 2.1913 5.7474 6.2771 6.1957 10.4-1.7283 3.8519-8.403 2.9234-9.1555-1.1786-1.3198-3.2441-0.10346-7.4177 2.9598-9.2215zm10.737 6.3744c4.6474-1.1674 2.9797 8.5466-0.90075 5.1772-1.2895-1.5313-0.59889-4.051 0.90075-5.1772zm-67.432 6.7647c3.0774-0.90137 7.5632 0.04606 8.4126 3.5779 0.35882 3.3193-3.2913 5.0461-5.9659 5.8687-4.2868 1.3228-8.4794 3.4944-13.089 3.2026-3.4553-1.9749-4.6956-6.0164-5.9276-9.5412 3.3347-3.1266 8.2452-2.2094 12.379-2.992 1.396-0.07156 2.7936-0.1056 4.1913-0.11613zm104.6 15.22c3.9256-1.9246 8.1471 4.3064 4.8612 7.2168-4.1108 4.7315-12.025 5.6107-16.941 1.6358-0.59091-4.1872 3.5917-7.2284 7.307-7.8294 1.5629-0.4415 3.1162-1.1011 4.7725-1.0233zm22.064 4.7808c4.4602-0.76762 7.9736 5.5953 4.7883 8.8884-3.0145 4.5454-10.203 5.7375-14.314 2.0116-1.6025-3.7684 1.6483-7.6949 5.1082-8.9039 1.4871-0.63289 2.8951-1.444 4.4172-1.9961zm-110.94 6.7647c4.1306-0.40762 7.9147 3.6906 7.3726 7.763 2.9902 2.9426-2.3049 8.4246-5.284 5.3775-2.6252-3.181-2.6114-7.4964-3.6283-11.303-0.0455-0.84562 0.58052-1.941 1.5396-1.8371zm31.71 2.3742c4.2703-1.8462 9.7951 3.2625 7.4702 7.5875-1.6603 3.5226-8.1355 2.3419-7.9204-1.7384-0.01105-1.9518-0.16861-3.9536 0.45019-5.8491zm-15.427 2.7644c4.2819-0.98171 8.2105 4.569 5.831 8.2728-4.269 0.37953-6.4852-4.6869-5.831-8.2728z" fill="#00a651"/></svg>