<svg viewBox="0 0 1e3 600" xmlns="http://www.w3.org/2000/svg" xmlns:xlink="http://www.w3.org/1999/xlink"><path d="M0,0H1e3V600H0" fill="#ce1126"/><path d="M0,0H1e3V300H0" fill="#002b7f"/><g fill="#ffd83d" stroke="#000" stroke-linecap="round" stroke-linejoin="round" stroke-width="2"><g id="a"><path d="m216.38 122.29l-1.8382 62.5h-63.419c-7.8025-15.168-14.246-28.051-14.246-45.496 0-14.6 11.483-26.195 28.033-26.195 17.52 0 36.769 5.9036 51.471 9.1912z" stroke="none"/><g stroke-width="1.5"><path d="m144.46 125.16v36.075"/><path d="m149.55 121.48v48.034"/><path d="m154.64 118.95v57.225"/><path d="m159.74 117.77v44.881"/><path d="m164.83 117.55v45.327"/><path d="m169.92 115.96v46.885"/><path d="m175.02 115.96v46.885"/><path d="m180.11 116.42v46.885"/><path d="m185.2 116.88v46.885"/><path d="m190.3 119.87v46.885"/><path d="m195.39 120.33v52.859"/><path d="m200.48 120.33v46.885"/><path d="m205.58 120.33v46.885"/><path d="m176.4 117.92c10.763 1.7754 34.406 12.837 31.71 27.803-3.8213 21.209-16.208 12.698-32.629 9.6507l-12.408 4.136c-4.4398 4.5318-10.978 8.6835-15.395 3.2169h-7.3529v28.722h81.342v-69.393z" fill="#000"/></g><circle cx="212.82" cy="112.98" r="4.9403"/><circle cx="201.71" cy="110.31" r="4.9403"/><circle cx="190.45" cy="107.48" r="4.9403"/><circle cx="179.14" cy="105.6" r="4.9403"/><circle cx="167.84" cy="104.48" r="4.9403"/><circle cx="156.75" cy="105.11" r="4.9403"/><circle cx="146.18" cy="108.73" r="4.9403"/><circle cx="137.28" cy="115.28" r="4.9403"/><circle cx="130.96" cy="124.41" r="4.9403"/><circle cx="127.91" cy="135.16" r="4.9403"/><circle cx="128.03" cy="146.3" r="4.9403"/><circle cx="130.15" cy="157.22" r="4.9403"/><path d="m215 119.53l-0.45956 6.4338c-12.291-1.8831-29.715-8.7316-45.956-8.7316-15.006 0-26.654 6.0027-26.654 21.14 0 14.918 6.3178 28.485 14.706 42.279l-8.7316 4.136c-7.8025-15.168-14.246-28.051-14.246-45.496 0-14.6 11.483-28.952 31.25-28.952 17.52 0 35.39 5.9036 50.092 9.1912z"/></g><use transform="translate(443.94) scale(-1 1)" xlink:href="#a"/><path d="m221.97 53.125l-5.1562 9.6562 5.1562 9.625 5.1562-9.625-5.1562-9.6562zm0 24.375l-5.1562 9.625 5.1562 9.6562 5.1562-9.6562-5.1562-9.625z"/><path d="m203.59 74.953l8.1315 5.1562 8.1052-5.1562-8.1052-5.1562-8.1315 5.1562zm20.526 0l8.1052 5.1562 8.1315-5.1562-8.1315-5.1562-8.1052 5.1562z"/><circle cx="221.97" cy="75.069" r="3.9062"/><circle cx="221.97" cy="100" r="10.455"/><path d="m219.34 89.875c0 3.1144-0.02212 4.9241-0.03125 6.625-2.5204 0.11186-5.0057 0.37671-7.4375 0.78125m20.188 0c-2.4318-0.40454-4.9171-0.66938-7.4375-0.78125v-6.625m-12.781 12.688c3.2947-0.55035 6.6741-0.84375 10.125-0.84375s6.8303 0.2934 10.125 0.84375" fill="none" stroke-width="1.5"/><path d="m211.75 117.69c-0.99188 17.082-3.0086 34.479-9.6562 47.125l10.812-4.375c3.7765-14.329 4.5698-32.843 5.7188-41.594l-6.875-1.1562zm20.438 0l-6.875 1.1562c1.1489 8.7512 1.9423 27.265 5.7188 41.594l10.812 4.375c-6.6477-12.646-8.6644-30.043-9.6562-47.125z"/><path d="m221.95 154.69c-12.913 0-22.399 6.0866-22.969 21.594-3.1566-5.5549-16.51-23.026-28.969-20.688-7.4099 1.3907-13.957 11.666-12.844 23.438-6.1349-17.63-24.107-20.519-37.219-10.094 11.642 9.5725 16.821 37.835 26.625 50.094h75.375 75.375c9.8039-12.259 15.014-40.521 26.656-50.094-13.112-10.425-31.084-7.5362-37.219 10.094 1.1133-11.772-5.4651-22.047-12.875-23.438-12.459-2.3382-25.781 15.133-28.938 20.688-0.56959-15.507-10.087-21.594-23-21.594z"/><g stroke-width="1.5"><path d="m297.11 219.03c0 5.5809-33.662 11.719-75.138 11.719-41.476 0-75.138-6.1378-75.138-11.719 0-5.5809 33.662-8.5018 75.138-8.5018 41.476 0 75.138 2.921 75.138 8.5018z" fill="#000"/><circle cx="221.97" cy="114.44" r="3.5041"/><circle cx="221.97" cy="122.03" r="3.7339"/><circle cx="221.97" cy="130.18" r="4.0786"/><circle cx="221.97" cy="139.26" r="4.653"/><circle cx="221.97" cy="149.37" r="5.1126"/><path d="m219.94 159.21c-0.55295-0.00687-1.0759 0.45902-0.9375 1.3438 0.16296 1.0435 0.36705 2.9952 0.5625 4.3125 0.22088 1.4932 1.0912 1.1302 1.3125-0.03125 0.2213-1.161 0.13208-1.9059 0.1875-4.0625 0.02773-1.0781-0.57204-1.5556-1.125-1.5625zm4.0625 0c-0.55296 0.00688-1.1527 0.48441-1.125 1.5625 0.05542 2.1566-0.03378 2.9015 0.1875 4.0625 0.22128 1.1614 1.0916 1.5244 1.3125 0.03125 0.19545-1.3173 0.39956-3.269 0.5625-4.3125 0.13836-0.88473-0.38453-1.3506-0.9375-1.3438zm-7.6875 0.5625c-0.50583 0.07036-1.0303 0.58054-1 1.125 0.05502 0.99518 0.3304 2.1889 0.4375 3.6875 0.11045 1.5482 1.2016 0.94683 1.3125 0.0625 0.11045-0.88472 0.23542-2.1922 0.125-3.9062-0.04141-0.64291-0.32221-0.92563-0.65625-0.96875-0.06958-0.00897-0.14649-0.01005-0.21875 0zm11.094 0c-0.33404 0.04312-0.61482 0.32584-0.65625 0.96875-0.11042 1.714 0.01457 3.0215 0.125 3.9062 0.11085 0.88433 1.2021 1.4857 1.3125-0.0625 0.1071-1.4986 0.3825-2.6923 0.4375-3.6875 0.03031-0.54446-0.49415-1.0546-1-1.125-0.07226-0.01005-0.14915-0.00897-0.21875 0zm-15.438 1.75c-0.46309 0.11967-0.88836 0.67656-0.75 1.3125 0.27631 1.2719 0.53125 2.6781 0.53125 3.9688 1e-5 1.106 0.94458 0.71137 1-0.0625 0.05502-0.77429 0.15625-2.4135 0.15625-3.9062 1e-5 -1.1146-0.4744-1.4322-0.9375-1.3125zm19.688 0c-0.32879 0.09109-0.625 0.47658-0.625 1.3125 0 1.4928 0.10125 3.132 0.15625 3.9062 0.05542 0.77387 1 1.1685 1 0.0625 0-1.2906 0.25496-2.6969 0.53125-3.9688 0.13836-0.63594-0.28689-1.1928-0.75-1.3125-0.11577-0.02992-0.2029-0.03036-0.3125 0zm-59.094 0.17096c-0.55406-0.0184-0.94278 0.7332-0.5625 1.5625 0.60803 1.3273 1.2541 2.1648 1.875 3.5938 0.55302 1.2719 1.4013 0.47889 1.125-0.40625-0.27671-0.88473-0.57693-1.8701-1.4062-3.75-0.31113-0.70511-0.69881-0.98895-1.0312-1zm98.812 0c-0.33244 0.01105-0.72012 0.29489-1.0312 1-0.82932 1.8799-1.1295 2.8653-1.4062 3.75-0.27629 0.88514 0.57198 1.6781 1.125 0.40625 0.62094-1.429 1.267-2.2664 1.875-3.5938 0.38028-0.8293-0.00844-1.5809-0.5625-1.5625zm-94.812 0.0625c-0.40782 0.12446-0.65504 0.64177-0.40625 1.25 0.49801 1.2165 1.2166 2.4635 1.7188 3.7812 0.44217 1.161 1.4259 0.83185 1.0938-0.21875-0.33172-1.0506-0.4303-1.6655-1.0938-3.6562-0.33192-0.99516-0.90467-1.2807-1.3125-1.1562zm90.5 0c-0.3487 0.07445-0.75106 0.40988-1 1.1562-0.66345 1.9908-0.76203 2.6057-1.0938 3.6562-0.33214 1.0506 0.65158 1.3798 1.0938 0.21875 0.50217-1.3177 1.2207-2.5648 1.7188-3.7812 0.24879-0.60823 0.00157-1.1255-0.40625-1.25-0.10196-0.03111-0.19627-0.02482-0.3125 0zm-85.5 0.96875c-0.51413 0.09784-0.91225 0.88218-0.5625 1.8438 0.44259 1.2165 1.072 2.3677 1.625 3.75 0.55302 1.3823 1.4713 1.1035 1.25 0.21875-0.22127-0.88473-0.49238-2.3509-1.1562-4.5625-0.29025-0.96776-0.75636-1.3261-1.1562-1.25zm80.812 0c-0.39989-0.07609-0.866 0.28224-1.1562 1.25-0.66387 2.2116-0.93498 3.6778-1.1562 4.5625-0.22129 0.88472 0.69698 1.1636 1.25-0.21875 0.55301-1.3823 1.1824-2.5335 1.625-3.75 0.34975-0.96157-0.04837-1.7459-0.5625-1.8438zm-93.188 0.6875c-0.55687 0.05687-1.0641 0.96524-0.71875 1.6562 0.55344 1.106 0.90366 1.4823 1.4375 2.6562 0.55302 1.2165 1.1588 0.2743 0.9375-0.5-0.22128-0.77429-0.50494-1.6757-0.78125-2.7812-0.20252-0.80997-0.54087-1.0654-0.875-1.0312zm105.56 0c-0.33413-0.03412-0.67248 0.22128-0.875 1.0312-0.27631 1.1056-0.55997 2.007-0.78125 2.7812-0.22128 0.7743 0.38448 1.7165 0.9375 0.5 0.53384-1.1739 0.88406-1.5502 1.4375-2.6562 0.34537-0.69101-0.16188-1.5994-0.71875-1.6562zm-67.031 2.7978c-0.58375-5.2e-4 -1.2073 0.77436-1 1.5 0.33173 1.1615 0.84452 2.191 1.2188 3.6875 0.33173 1.3269 1.2742 0.66599 1.2188-0.21875-0.05541-0.88472-0.207-2.0884-0.59375-3.9688-0.14517-0.70496-0.49349-0.99968-0.84375-1zm28.5 0c-0.35026 3.2e-4 -0.69856 0.29504-0.84375 1-0.38675 1.8803-0.53832 3.084-0.59375 3.9688-0.05542 0.88474 0.88704 1.5457 1.2188 0.21875 0.37423-1.4965 0.88704-2.526 1.2188-3.6875 0.20733-0.72564-0.41623-1.5005-1-1.5zm-14.25 1.1875c-0.71918 1e-5 -0.81853 0.96561-0.84375 1.75-0.08265 2.5713-1.1498 5.0685-2.0625 6.3125-0.91223 1.2444-2.2556 0.91345-3.5 0.25-1.2444-0.66343-1.9856-1.1607-3.3125-2.1562-1.3273-0.99515-2.3336-0.4133-0.75 1.8438 4.6175 6.5803 9.625 12.205 9.625 22.938 1e-5 1.3877 0.24246 1.8125 0.84375 1.8125s0.87498-0.42476 0.875-1.8125c0-10.733 4.9763-16.357 9.5938-22.938 1.5836-2.257 0.57733-2.8389-0.75-1.8438-1.3269 0.99559-2.0681 1.4928-3.3125 2.1562-1.2444 0.66345-2.5878 0.99437-3.5-0.25-0.91266-1.244-1.9798-3.7412-2.0625-6.3125-0.02522-0.78439-0.12455-1.75-0.84375-1.75zm-35.281-1.6103c-0.06292-0.00172-0.13154 0.01363-0.1875 0.03125-0.26858 0.08461-0.44752 0.40881-0.34375 0.96875 0.18546 1.0023 0.87995 2.9665 1.1562 3.9062 0.27673 0.94018 1.4326 0.74022 1.1562-0.53125-0.2767-1.2719-0.26202-1.656-0.59375-3.0938-0.1814-0.78626-0.74696-1.2692-1.1875-1.2812zm70.562 0c-0.44054 0.01208-1.0061 0.49499-1.1875 1.2812-0.33173 1.4377-0.31703 1.8219-0.59375 3.0938-0.2763 1.2715 0.87954 1.4714 1.1562 0.53125 0.2763-0.93974 0.97079-2.904 1.1562-3.9062 0.10377-0.55994-0.07517-0.88414-0.34375-0.96875-0.05596-0.01762-0.12456-0.03297-0.1875-0.03125zm-91.531 0.40625c-0.57879 0.04531-0.99385 0.77247-0.40625 1.8438 0.63386 1.1569 1.7212 2.6082 2.2188 3.4375 0.4976 0.82932 1.3584 0.26977 0.75-0.78125-0.60802-1.0506-0.81237-2.2572-1.5312-3.75-0.26956-0.55993-0.68397-0.77718-1.0312-0.75zm112.5 0c-0.34728-0.02718-0.76169 0.19007-1.0312 0.75-0.71888 1.4928-0.92323 2.6994-1.5312 3.75-0.60843 1.051 0.2524 1.6106 0.75 0.78125 0.49758-0.82931 1.5849-2.2806 2.2188-3.4375 0.5876-1.0713 0.17254-1.7984-0.40625-1.8438zm-144.19 3.329c-0.66781-0.03548-0.87717 1.1702-0.25 1.9688 0.91267 1.161 1.5478 1.7769 2.5938 2.7188 0.82973 0.74639 1.0709-0.22237 0.65625-0.96875-0.41464-0.74637-1.0144-1.5056-1.8438-2.75-0.45463-0.68201-0.8527-0.95262-1.1562-0.96875zm175.88 0c-0.30355 0.01613-0.70162 0.28674-1.1562 0.96875-0.82931 1.2444-1.4291 2.0036-1.8438 2.75-0.41466 0.74638-0.17348 1.7151 0.65625 0.96875 1.046-0.94183 1.6811-1.5577 2.5938-2.7188 0.62717-0.7985 0.41781-2.0042-0.25-1.9688zm-170.84 1c-0.53222 0.00694-0.8834 0.40005-0.46875 1.3125 0.59387 1.3061 1.377 2.7857 1.875 3.7812 0.4976 0.99519 2.0143 1.3294 1.4062-0.21875-0.60842-1.5482-0.72824-2.3435-1.2812-3.7812-0.2765-0.71886-0.99902-1.1007-1.5312-1.0938zm165.81 0c-0.53223-0.00693-1.2548 0.37489-1.5312 1.0938-0.55301 1.4378-0.67283 2.2331-1.2812 3.7812-0.60802 1.5482 0.90865 1.2139 1.4062 0.21875 0.498-0.99559 1.2811-2.4752 1.875-3.7812 0.41465-0.91245 0.06347-1.3056-0.46875-1.3125zm-175.56 0.34375c-0.77377 0.0079-0.84043 0.78367-0.15625 1.2812 0.91266 0.66346 2.0002 1.3998 3.0625 2.25 1.244 0.99518 1.7259 0.07972 1.0625-0.75-0.66344-0.8293-1.3097-1.6703-2.9688-2.5-0.41475-0.20732-0.74208-0.28388-1-0.28125zm185.31 0c-0.25792-0.00263-0.58525 0.07393-1 0.28125-1.659 0.82972-2.3053 1.6707-2.9688 2.5-0.66344 0.82972-0.18147 1.7452 1.0625 0.75 1.0623-0.85016 2.1498-1.5865 3.0625-2.25 0.68418-0.49758 0.61751-1.2734-0.15625-1.2812zm-109.66 0.71875c-0.43296 0.06057-0.80641 0.55234-0.625 1.1875 0.33173 1.161 0.70829 2.3914 0.9375 3.5938 0.2213 1.1615 1.565 1.1756 1.3438 0.125-0.22086-1.0506-0.33202-2.3651-0.71875-3.9688-0.14517-0.60134-0.44831-0.89021-0.75-0.9375-0.06284-0.00984-0.12565-0.00865-0.1875 0zm33.812 0c-0.30169 0.04729-0.60481 0.33616-0.75 0.9375-0.38673 1.6036-0.49787 2.9182-0.71875 3.9688-0.22129 1.0506 1.1225 1.0365 1.3438-0.125 0.22921-1.2023 0.60579-2.4327 0.9375-3.5938 0.18141-0.63516-0.19202-1.1269-0.625-1.1875-0.06185-0.00865-0.12464-0.00984-0.1875 0zm-63.906-1.9853c-0.33997 0.09397-0.53559 0.74396-0.28125 1.6562 1.4102 5.0596 1.8425 7.7244 1.5938 8.9688-0.24878 1.244-0.93151 1.4146-1.8438 1-0.91223-0.41465-1.9832-1.0132-2.8125-1.5938-0.8293-0.58092-1.6919 0.114-0.5 1.0938 6.0548 4.9767 10.252 10.664 11.875 17.562 0.33174 1.4098 1.2176 1.5757 0.96875 0-1.3723-8.6898-1.6362-15.833 0.4375-20.312 0.77931-1.6832-0.00562-3.2996-1.25-0.5625-0.8293 1.8249-2.1715 2.5449-3.25 0.96875-1.0781-1.5757-3.3053-5.7797-3.9688-7.6875-0.24894-0.71543-0.55598-1.0464-0.8125-1.0938-0.05343-0.00985-0.10768-0.01342-0.15625 0zm94.031 0c-0.25652 0.04733-0.56356 0.37832-0.8125 1.0938-0.66344 1.9078-2.8906 6.1118-3.9688 7.6875-1.0785 1.5761-2.4207 0.85617-3.25-0.96875-1.2444-2.7371-2.0293-1.1207-1.25 0.5625 2.0737 4.4791 1.8098 11.623 0.4375 20.312-0.2488 1.5757 0.63701 1.4098 0.96875 0 1.6232-6.8983 5.8202-12.586 11.875-17.562 1.1919-0.97975 0.3293-1.6747-0.5-1.0938-0.8293 0.58052-1.9003 1.1791-2.8125 1.5938-0.91224 0.41465-1.595 0.24398-1.8438-1-0.24879-1.2444 0.18351-3.9091 1.5938-8.9688 0.25434-0.91229 0.05872-1.5623-0.28125-1.6562-0.04857-0.01342-0.10282-0.00985-0.15625 0zm-124.47 2.4228c-0.54607 0.00694-0.99879 0.38944-0.75 1.2188 0.39883 1.3286 1.2237 2.7644 1.5 3.5938 0.27672 0.82933 1.1659 0.44229 1-0.71875-0.16584-1.161-0.24746-1.8531-0.46875-3.125-0.11063-0.63572-0.73517-0.97568-1.2812-0.96875zm155.06 0c-0.54608-0.00693-1.1706 0.33303-1.2812 0.96875-0.22129 1.2719-0.30291 1.964-0.46875 3.125-0.16586 1.161 0.72328 1.5481 1 0.71875 0.2763-0.82931 1.1012-2.2652 1.5-3.5938 0.24879-0.82931-0.20393-1.2118-0.75-1.2188zm-136.28-1.7353c-0.63504-0.11396-0.72634 1.5242-0.1875 2.1875 0.71889 0.88517 1.7173 1.9548 2.7188 3.1562 0.82932 0.9956 1.3417 0.11057 0.84375-0.71875-0.49757-0.82972-1.2356-1.7113-2.5625-3.8125-0.33182-0.52529-0.60082-0.77451-0.8125-0.8125zm117.5 0c-0.21168 0.03799-0.48068 0.28721-0.8125 0.8125-1.3269 2.1012-2.0649 2.9828-2.5625 3.8125-0.49799 0.82932 0.01443 1.7144 0.84375 0.71875 1.0014-1.2015 1.9999-2.2711 2.7188-3.1562 0.53884-0.66325 0.44754-2.3015-0.1875-2.1875zm-132 3.954c-0.39402-0.02765-0.72836 0.29195-0.5625 1.0938 0.2313 1.1164 0.56704 2.0432 0.84375 3.0938 0.27632 1.0506 1 0.87059 1-0.125 1e-5 -0.99517-0.17789-2.1056-0.34375-3.1562-0.08292-0.52529-0.54347-0.87859-0.9375-0.90625zm146.5 0c-0.39403 0.02766-0.85458 0.38096-0.9375 0.90625-0.16586 1.0506-0.34376 2.1611-0.34375 3.1562 0 0.99559 0.72368 1.1756 1 0.125 0.27671-1.0506 0.61245-1.9773 0.84375-3.0938 0.16586-0.8018-0.16848-1.1214-0.5625-1.0938zm-133.41 1.421c-0.61886 0.0935-1.1634 0.69176-0.4375 1.625 1.1611 1.4928 2.4324 2.5407 2.875 3.0938 0.44217 0.55303 1.5626 0.34895 0.84375-0.8125-0.7347-1.1864-1.8462-2.6153-2.3438-3.5-0.18658-0.33177-0.56618-0.46234-0.9375-0.40625zm120.06 0c-0.27216 0.02861-0.54756 0.15742-0.6875 0.40625-0.49759 0.88474-1.609 2.3136-2.3438 3.5-0.71887 1.1614 0.40158 1.3655 0.84375 0.8125 0.44258-0.55301 1.7139-1.601 2.875-3.0938 0.72591-0.93324 0.18136-1.5315-0.4375-1.625-0.09283-0.01402-0.15928-0.00954-0.25 0zm-140.72 4.1728c-0.48826-0.04434-0.65688 0.34959 0 1.25 1.4928 2.0458 3.1396 5.1418 3.25 6.4688 0.11087 1.3273-0.54531 1.3125-1.1562 1.3125-1.8249 2e-5 -2.7164-1.332-4.375-1.7188-1.659-0.38713-1.8998 0.48527-0.71875 1.3438 6.0823 4.4237 12.179 9.3592 14.625 13.844 0.99519 1.8249 2.3406 2.492 1.5938 0.75-2.2871-5.3372-2.8413-9.8566-2.3438-12.594 0.498-2.7371 1.1767-4.5802 1.0938-6.1562-0.08291-1.5757-0.97661-1.4682-1.3438 0-0.24879 0.9956-0.73078 2.3145-1.0625 2.8125-0.33171 0.49761-1.6656 0.77655-2.9375-0.9375-1.2719-1.714-4.4806-5.0144-5.5312-5.8438-0.39396-0.31098-0.80079-0.50464-1.0938-0.53125zm161.62 0c-0.29296 0.02661-0.69979 0.22027-1.0938 0.53125-1.0506 0.82931-4.2594 4.1297-5.5312 5.8438-1.2719 1.714-2.6058 1.4351-2.9375 0.9375-0.33172-0.498-0.81371-1.8169-1.0625-2.8125-0.36714-1.4682-1.2608-1.5757-1.3438 0-0.08293 1.5761 0.59575 3.4191 1.0938 6.1562 0.49759 2.7371-0.05669 7.2566-2.3438 12.594-0.7468 1.742 0.59856 1.0749 1.5938-0.75 2.4462-4.4845 8.5427-9.4201 14.625-13.844 1.181-0.85848 0.94027-1.7309-0.71875-1.3438-1.6586 0.38674-2.5501 1.7188-4.375 1.7188-0.61094 0-1.2671 0.01482-1.1562-1.3125 0.11044-1.3269 1.7572-4.423 3.25-6.4688 0.65688-0.90041 0.48826-1.2943 0-1.25z" fill="#000" stroke="none"/><path d="m150.13 212.65 1.9497 6.1742m2.0608-7.3444 1.7276 6.24m2.6046-6.9524 1.187 6.365m2.8332-7.1693 1.2705 6.3489m3.8851-6.8578 1.033 6.3918m4.4516-6.3851 1.1124 6.3784m4.2413-8.1888 0.80352 6.4247m4.2333-6.0997 0.80352 6.4247m4.0708-7.0746 0.80352 6.4247m4.0891-6.9296 0.442 6.4596m4.7866-6.4615 0.3835 6.4634m4.3568-6.7899 0.32661 6.4665m4.9004-6.7927 0.27128 6.469m5.7404-6.6315 0.27128 6.469m79.044 0.17749-1.9497 6.1742m-2.0608-7.3444-1.7276 6.24m-2.6046-6.9524-1.187 6.365m-2.8332-7.1693-1.2705 6.3489m-3.8851-6.8578-1.033 6.3918m-4.4516-6.3851-1.1124 6.3784m-4.2413-8.1888-0.80352 6.4247m-4.2333-6.0997-0.80352 6.4247m-4.0708-7.0746-0.80352 6.4247m-4.0891-6.9296-0.442 6.4596m-4.7866-6.4615-0.3835 6.4634m-4.3568-6.7899-0.32661 6.4665m-4.9004-6.7927-0.27128 6.469m-5.7404-6.6315-0.27128 6.469m-7.2022-6.8899v7.1232"/></g></g></svg>