<svg viewBox="0 0 2800 1400" xmlns="http://www.w3.org/2000/svg" fill="#fc0"><path d="M0,0H2800V1400H0" fill="#fff"/><path d="M0,0H2800V100H0V200H2800V300H0V400H2800V500H0V600H2800V700H0V800H2800V900H0V1e3H2800V1100H0V1200H2800V1300H0z" fill="#cc0001"/><path d="M0,0H1400V800H0" fill="#010066"/><circle r="300" cx="575" cy="400"/><circle r="262.5" cx="637.5" cy="400" fill="#010066"/><path transform="matrix(1.2738 0 0 1.2423 -89.443 -29.478)" d="m914.29 471.43l-99.538-53.251 29.43 108.98-66.576-91.165-20.77 110.96-20.428-111.02-66.857 90.959 29.766-108.89-99.701 52.943 74.065-85.193-112.8 4.4414 103.69-44.62-103.56-44.94 112.78 4.7893-73.801-85.421 99.538 53.251-29.43-108.98 66.576 91.165 20.77-110.96 20.428 111.02 66.857-90.959-29.766 108.89 99.701-52.943-74.065 85.193 112.8-4.4414-103.69 44.62 103.56 44.94-112.78-4.7893z"/></svg>