<svg viewBox="0 0 600 300" xmlns="http://www.w3.org/2000/svg"><path d="M0,0H600V300H0" fill="#002b7f"/><path d="M0,137.5H600V162.5H0" y="137.5" fill="#ffc61e"/><path d="m150 262.5l-6.4705-25.852-18.53 19.153 7.3223-25.624-25.624 7.3223 19.153-18.53-25.852-6.4705 25.852-6.4705-19.153-18.53 25.624 7.3223-7.3223-25.624 18.53 19.153 6.4705-25.852 6.4705 25.852 18.53-19.153-7.3223 25.624 25.624-7.3223-19.153 18.53 25.852 6.4705-25.852 6.4705 19.153 18.53-25.624-7.3223 7.3223 25.624-18.53-19.153-6.4705 25.852z" fill="#fff"/></svg>