<svg viewBox="0 0 120 60" xmlns="http://www.w3.org/2000/svg" xmlns:xlink="http://www.w3.org/1999/xlink"><clipPath id="b"><path d="M0,0V15H70V30H60zM0,30V40H30V0H60z"/></clipPath><clipPath id="z"><path d="m0 0h120v60h-120z"/></clipPath><path d="M0,0H120V60H0" fill="#002868"/><g stroke="#cf142b" stroke-width="6" clip-path="url(#z)"><path d="M0,0L60,30M60,0L0,30" stroke="#fff"/><path d="M0,0L60,30M60,0L0,30" clip-path="url(#b)" stroke-width="4"/><path d="M30,0V40M0,15H70" stroke="#fff" stroke-width="10"/><path d="M30,0V40M0,15H70"/></g><path d="M60,0h60V60H0V30H60z" fill="#fcd116"/><g transform="translate(30,15)"><g transform="scale(5.1039)"><circle r="1" fill="#002868"/><path id="a" transform="scale(1.9468e-6)" d="M0,-513674 301930,415571 -488533,-158734H488533L-301930,415571" fill="#fcd116"/></g><use transform="translate(-17.5 .29) scale(3)" xlink:href="#a"/><use transform="translate(17.5 .29) scale(3)" xlink:href="#a"/><use transform="translate(0,10.29) scale(3)" xlink:href="#a"/><use transform="translate(0,-9.71) scale(3)" xlink:href="#a"/></g></svg>