<svg viewBox="0 0 768 576" xmlns="http://www.w3.org/2000/svg" xmlns:xlink="http://www.w3.org/1999/xlink"><path d="M0,0H768V576H0"/><path d="m0 0h768v576z" fill="#ce1126"/><path d="m475.48 167.35c-5.6722 7.3264-19.095-7.3697-35.175-7.7053s-27.471 15.41-32.16 20.77-19.764 33.5-19.43 36.515c0.33467 3.015 9.3807-8.3747 12.73-10.385 0.33466 4.02-3.6853 8.7103-2.6803 10.05 1.005 1.3397 11.724-8.04 15.41-8.3747 1.005 2.6803-2.01 5.3597-1.005 9.3797 1.3407 1.3397 7.3707-6.7003 11.391-8.3747 0.66933 3.015-3.6853 8.7103-1.3407 12.395 1.6753 0.33467 11.724-11.39 15.075-12.73s-1.6753 11.055 0 12.06c3.015-2.01 12.396-12.73 15.411-14.07 3.015-1.3397-0.33467 13.735 1.005 13.735 3.6843-2.6803 13.065-15.41 14.07-17.42s-1.005 19.43 9.3797 30.82c10.385 11.391 26.131 24.455 27.805 24.455 2.01-3.6853-0.66933-11.39 1.005-11.055 4.6893 5.025 13.4 12.395 15.41 12.395s-1.3407-8.04 1.3397-8.04c5.3607 5.025 20.77 24.79 50.92 33.835-2.01-5.6953-6.3657-10.72-6.7003-13.4 2.01 0.33467 9.046 3.6853 10.386 3.3497 1.3397-0.33567-14.74-20.1-13.735-22.78 3.6853-0.33466 5.3607 2.01 6.7003 0.33467-1.6753-2.6793-15.745-18.425-15.745-22.11 0-3.6853 4.3557 0.67033 5.6953 0 1.3397-0.67034-5.3597-14.74-4.02-16.415 1.3397-1.6743 16.079 9.045 19.764 9.045 3.6853 0 1.005-13.065 2.6803-13.735 1.6753-0.67034 14.071 7.035 16.75 7.035s2.3447-5.6953 3.3497-5.025c1.005 0.67033 30.15 29.815 20.1 63.985-10.05 24.456-30.149 37.521-59.63 26.8 1.6743 2.6803 17.42 15.745 34.505 11.055 17.085-4.6903 37.854-18.09 35.51-51.59-2.3447-33.5-13.401-38.19-15.075-43.215s2.6813 1.3397 6.3657 2.6803-0.67034-7.036-1.6753-10.721c-1.005-3.6853 11.055 7.7053 14.07 8.7103s-7.035-27.47-10.05-29.48 3.015 0.66933 5.025 1.3397c2.01 0.67034-18.426-31.155-22.78-31.155-4.3547 0 3.6843-1.6753 6.03-1.6753s-23.449-20.77-27.804-20.77 9.3787-5.3607 10.719-5.6953c2.3457 0.33466-29.814-17.085-58.625 0.33466-1.6753-1.3387 13.569-11.891 14.07-16.414 0.16784-1.1728-5.024-3.6853-5.3597-5.025-0.33567-1.3397 8.04-5.3596 8.3747-8.3746-2.01-2.6803-5.6953-1.6753-7.7053-2.3447-0.5015-2.5125 7.036-8.7103 6.3657-11.39-0.5025-1.5075-6.031-2.01-7.3707-1.005-1.3397 1.005 3.5185-7.035 2.6803-9.3797-0.66933-1.005-3.3497-0.33466-6.03 0.33466-1.6753-0.33466 8.7103-14.74 6.7003-16.75s-30.151 14.739-40.536 33.5c-10.385 18.76-2.3437 33.835-3.6843 40.2-1.3407 6.3647-3.016 12.73-7.3707 12.73-4.3547 0-14.404-6.7003-17.754-10.05-3.3507-3.3497-4.02-5.6953-8.7103-7.035-4.6903-1.3397-15.41 2.6803-19.43 3.015-4.02 0.33467-19.765-3.015-20.77-2.01s15.41 7.035 19.095 9.045c3.6853 2.01 4.021 4.6903 6.7003 6.3647s27.804 9.045 19.764 19.43zm98.155 47.235c8.04 8.04 62.31 44.22 62.31 88.44s-39.531 42.881-50.92 41.541c12.73 10.719 60.97 8.7093 60.97-41.541 0-44.22-62.31-88.44-70.35-92.46s-10.05-4.02-2.01 4.02z" fill="#fcd116"/><g fill="#fff"><path d="m220.25 418.6 11.455-36.851 11.455 37.252-30.164-22.832h37.418z"/><path id="a" d="m192.42 178.5-22.909 73.702 60.327-44.862h-74.836l60.327 45.664z"/><use x="-88" y="112.504" xlink:href="#a"/><use x="87.582" y="104.504" xlink:href="#a"/><use y="264.504" xlink:href="#a"/></g></svg>