<svg viewBox="0 0 900 450" xmlns="http://www.w3.org/2000/svg" fill="#fcd116"><path d="M0,0H900V450H0" fill="#ce1126"/><path d="M0,0H900V225H0" fill="#0038a8"/><path d="M389.7114,225 0,450V0" fill="#fff" stroke-width="5"/><path d="m22.5 38.971 13.545 11.705 15.683-8.6334-6.9468 16.5l13.057 12.248-17.839-1.5082-7.6132 16.203-4.0781-17.432-17.762-2.2337 15.318-9.2652z"/><path d="m327.44 201.22 0.3647 17.899 16.91 5.8779-16.91 5.8778-0.3647 17.899-10.816-14.266-17.135 5.1841l10.225-14.695-10.225-14.695 17.135 5.1841z"/><path d="m32.387 364.52 7.6132 16.203 17.839-1.5082-13.057 12.248 6.9468 16.5-15.683-8.6334-13.545 11.705 3.3646-17.583-15.318-9.2652 17.762-2.2337z"/><path d="m140 130-5.8425 5.8425 2.8975 44.252c-0.9851 0.0635-1.9603 0.159-2.9272 0.285l-5.32-40.381-4.7678 4.7678 7.1785 36.094c-5.9049 1.1684-11.393 3.488-16.221 6.7212l-20.443-30.596h-6.745l24.795 32.318c-0.778 0.5981-1.5315 1.2237-2.2681 1.8703l-29.248-33.351h-8.265v8.265l33.351 29.248c-0.6473 0.7375-1.2717 1.4951-1.8703 2.274l-32.318-24.801v6.745l30.602 20.449c-3.2324 4.8275-5.559 10.312-6.7271 16.215l-36.094-7.1784-4.7678 4.7678 40.381 5.32c-0.126 0.96705-0.2215 1.9423-0.285 2.9272l-44.252-2.8975-5.8425 5.8425 5.8425 5.8425 44.252-2.8975c0.064 0.98545 0.159 1.966 0.285 2.9331l-40.381 5.3141 4.7678 4.7678 36.094-7.1784c1.1682 5.9046 3.4874 11.392 6.7212 16.221l-30.596 20.443v6.745l32.318-24.795c0.5981 0.7783 1.2237 1.5312 1.8703 2.2682l-33.351 29.248v8.265h8.265l29.248-33.351c0.7377 0.64775 1.4949 1.271 2.274 1.8703l-24.801 32.318h6.745l20.449-30.602c4.8262 3.2352 10.311 5.565 16.215 6.7331l-7.1785 36.088 4.7678 4.7678 5.32-40.381c0.9665 0.126 1.9421 0.2215 2.9272 0.285l-2.8975 44.252 5.8425 5.8425 5.8425-5.8425-2.8975-44.252c0.9852-0.064 1.9603-0.159 2.9272-0.285l5.32 40.381 4.7678-4.7678-7.1784-36.094c5.9048-1.1684 11.393-3.4879 16.221-6.7212l20.443 30.596h6.745l-24.795-32.318c0.778-0.5981 1.5316-1.2237 2.2682-1.8703l29.248 33.351h8.265v-8.265l-33.351-29.248c0.6473-0.7375 1.2716-1.4951 1.8703-2.274l32.318 24.801v-6.745l-30.602-20.449c3.2324-4.8274 5.5591-10.312 6.7272-16.215l36.094 7.1784 4.7678-4.7678-40.381-5.32c0.126-0.9671 0.2215-1.9423 0.285-2.9272l44.252 2.8975 5.8425-5.8425-5.8425-5.8425-44.252 2.8975c-0.063-0.98515-0.159-1.9603-0.285-2.9272l40.381-5.32-4.7678-4.7678-36.094 7.1784c-1.1684-5.9048-3.4879-11.393-6.7213-16.221l30.596-20.443v-6.745l-32.318 24.795c-0.5981-0.77795-1.2237-1.5315-1.8703-2.2681l33.351-29.248v-8.265h-8.265l-29.248 33.351c-0.7375-0.6473-1.4951-1.2716-2.2741-1.8703l24.801-32.318h-6.745l-20.449 30.602c-4.8275-3.2324-10.312-5.559-16.215-6.7272l7.1784-36.094-4.7678-4.7678-5.32 40.381c-0.967-0.126-1.9423-0.2215-2.9272-0.285l2.8975-44.252z" stroke-width="5"/></svg>