<svg viewBox="0 0 600 330" xmlns="http://www.w3.org/2000/svg"><path d="M0,0H600V330H0" fill="#0038a8"/><path d="M0,0H600V220H0" fill="#fff"/><path d="M0,0H600V110H0" fill="#d52b1e"/><path d="m341.82 164.99c0 23.102-18.716 41.827-41.818 41.827-23.089 0-41.815-18.725-41.815-41.827 0-23.093 18.726-41.806 41.815-41.806 23.102 0 41.818 18.713 41.818 41.806z" fill="#fff" stroke="#000" stroke-miterlimit="10" stroke-width="1.8429"/><path d="m320.24 158.5c-1.0158-0.04134-1.0222 1.0782-1.0222 1.0782s0.03522-0.33078 0.00638 0.04454c-0.0192 0.37214 0.16665 1.2787 0.91649 1.3518 0.79151 0.06995 1.0543-0.8556 1.0607-1.3041 0-0.17809-0.05768-1.1482-0.96137-1.1705" fill="#009b3a" stroke="#000" stroke-width=".49258"/><g transform="matrix(1.0001 0 0 1.0085 97.058 -.91806)"><path d="m176.7 181.1-0.35768-0.58836c-0.03675-0.0651-0.12984-0.17361-0.27929-0.33517-0.07349-0.0844-0.16904-0.12298-0.27683-0.13503-0.11025-0.01447-0.21559 0.00241-0.32583 0.0651-0.13965 0.0844-0.23029 0.19773-0.24499 0.33517-0.02695 0.13986 0.0392 0.33276 0.19599 0.59318l0.36258 0.61248 0.92605-0.54737zm3.5401-0.20255-4.5494 2.6838-1.3891-2.3149c-0.25724-0.43404-0.41403-0.77885-0.47528-1.0513-0.07104-0.2773-0.03675-0.53772 0.0784-0.79573 0.11514-0.26042 0.32338-0.47744 0.61491-0.65106 0.24254-0.14467 0.49488-0.2146 0.73987-0.22666 0.25478 0 0.48752 0.0627 0.71291 0.18085 0.13964 0.07957 0.30133 0.20255 0.47772 0.38099-0.04164-0.19291-0.06614-0.34482-0.05634-0.46297 0.0147-0.06993 0.04654-0.18568 0.11024-0.3617 0.06125-0.16879 0.12004-0.28695 0.15679-0.3617l0.9187-1.4516 0.9383 1.577-0.9383 1.5649c-0.11759 0.19773-0.18864 0.34964-0.19844 0.45574-0.0049 0.14709 0.02695 0.27489 0.098 0.40027l0.07839 0.1278 1.8423-1.0875 0.8403 1.3937z"/><path d="m172.23 177.22-1.3891-4.1161 1.0706-0.35688 0.8697 2.5801 0.80356-0.26765-0.81826-2.3944 1.029-0.33276 0.80845 2.3824 0.98485-0.31588-0.8893-2.6548 1.1367-0.3834 1.4111 4.1933-5.0173 1.6662z"/><path d="m172.38 168.84-0.05635-0.38581c-0.03675-0.3207-0.11514-0.52808-0.23518-0.63658-0.12985-0.10851-0.27439-0.15915-0.44833-0.13986-0.16169 0.02652-0.29399 0.09404-0.39443 0.20737-0.10534 0.12539-0.13964 0.33276-0.09555 0.63418l0.0441 0.46297 1.1857-0.14227zm-2.0579 1.8784-0.31603-2.6741c-0.0637-0.57389 0.01959-1.032 0.26213-1.3552 0.24989-0.3207 0.63207-0.51361 1.1465-0.57148 0.52917-0.0651 0.9677 0.04823 1.3009 0.32553 0.32829 0.28212 0.53897 0.75233 0.61737 1.3986l0.10044 0.88013 1.9476-0.22426 0.19109 1.618-5.2501 0.60283z"/><path d="m170.13 160.49 0.16904-1.6108 3.1407 0.33517c0.30868 0.03617 0.59776 0.11815 0.855 0.23872 0.27684 0.12297 0.49732 0.30141 0.68106 0.5329 0.1813 0.23148 0.30869 0.45332 0.36749 0.69204 0.08084 0.31588 0.10289 0.70169 0.05144 1.1454-0.02205 0.24355-0.07594 0.52567-0.14699 0.81985-0.06615 0.29659-0.16904 0.54013-0.29643 0.72821-0.12985 0.19291-0.29644 0.36411-0.50958 0.5112-0.21314 0.14468-0.42872 0.2339-0.64431 0.27248-0.34788 0.06993-0.64677 0.08439-0.90646 0.05546l-3.126-0.32794 0.16904-1.6132 3.2069 0.34481c0.28909 0.02894 0.51937-0.02411 0.69821-0.16879 0.17885-0.14227 0.27929-0.34964 0.31359-0.62212 0.0294-0.28694-0.0294-0.50878-0.16904-0.67999-0.13965-0.17602-0.35523-0.27488-0.64677-0.30864l-3.2069-0.34482z"/><path d="m175.4 156.08 0.28174-0.77644c0.08574-0.26283 0.11024-0.46538 0.05144-0.61247-0.05144-0.13263-0.16169-0.23631-0.32093-0.28695-0.15679-0.05305-0.28664-0.0434-0.41403 0.03376-0.13229 0.07957-0.24499 0.24836-0.33563 0.5112l-0.27929 0.78126 1.0167 0.34964zm-1.9624-0.6824 0.23764-0.65829c0.08085-0.24113 0.1029-0.42439 0.0441-0.54736-0.0441-0.11816-0.14699-0.2122-0.30624-0.25801-0.13964-0.05305-0.27193-0.04341-0.38707 0.01687-0.11515 0.06752-0.21069 0.2122-0.28909 0.44369l-0.24744 0.67757 0.9481 0.32553zm-2.4964 0.87048 1.0044-2.8719c0.17394-0.47744 0.42138-0.79573 0.75456-0.97658 0.32094-0.16397 0.65902-0.19531 1.0192-0.07475 0.28908 0.11333 0.50957 0.28695 0.66146 0.54255 0.09065 0.16879 0.147 0.39063 0.147 0.64864 0.20823-0.32794 0.44832-0.53531 0.71536-0.62453 0.27193-0.09645 0.56837-0.09163 0.8893 0.01929 0.25234 0.08681 0.46303 0.22908 0.62962 0.41716 0.15924 0.19772 0.26458 0.41474 0.31603 0.6607 0.0245 0.15914 0.01225 0.37134-0.0441 0.63417-0.08329 0.36893-0.13229 0.60283-0.17394 0.71134l-0.93095 2.6428-4.9879-1.7289z"/><path d="m173.63 149.55 0.855-1.3841 3.4053 2.0472 1.3254-2.1605 1.1098 0.67275-2.1608 3.5422-4.5347-2.7175z"/><path d="m177.12 144.39 1.051-1.2418 4.0349 3.3831-1.0534 1.2418-4.0325-3.3831z"/><path d="m184.45 141.57 1.3744-0.58354c0.17639 0.36652 0.27683 0.71616 0.29153 1.0586 0.01225 0.33758-0.05389 0.65587-0.19599 0.95246-0.15679 0.30142-0.41403 0.59319-0.76681 0.89942-0.44832 0.3617-0.8599 0.59801-1.2494 0.70169-0.38463 0.09887-0.81581 0.07475-1.296-0.07475-0.46303-0.15191-0.90401-0.48226-1.3303-0.97658-0.55367-0.67275-0.80846-1.331-0.75211-1.9773 0.05389-0.65829 0.41157-1.2491 1.0632-1.794 0.51692-0.42439 0.9971-0.64623 1.4699-0.6824 0.46058-0.04341 0.95055 0.09404 1.443 0.40027l-0.90401 1.1622c-0.13719-0.08921-0.25233-0.1495-0.35033-0.16879-0.14944-0.0434-0.29398-0.0434-0.43852-0.00482-0.14455 0.03135-0.28419 0.09886-0.40178 0.19773-0.28664 0.23872-0.41158 0.5329-0.36993 0.88495 0.0245 0.26283 0.19354 0.56907 0.48752 0.93317 0.37973 0.4461 0.70801 0.69687 0.9775 0.74751 0.28418 0.05787 0.54632-0.0217 0.79131-0.22425 0.23764-0.20255 0.36748-0.41475 0.37238-0.64623 0.00735-0.24596-0.0588-0.51361-0.21559-0.80538"/><path d="m189.8 138.42-1.3817-1.4178 0.34788 1.9459 1.0338-0.52808zm0.82316 0.86084-1.6561 0.83431 0.16904 0.88977-1.4871 0.74992-0.62961-5.5677 1.59-0.80538 4.1721 3.7785-1.5214 0.77162-0.63696-0.65105z"/><path d="m197.06 133.81 0.40668 2.8309 0.39688-0.05788c0.34053-0.04099 0.57817-0.11574 0.71291-0.20978 0.12984-0.10369 0.21804-0.23631 0.27194-0.44368 0.05879-0.1929 0.05879-0.49432-0.00245-0.91389-0.0784-0.54736-0.22539-0.91388-0.43118-1.0875-0.21069-0.17361-0.52672-0.2363-0.9481-0.17361l-0.40668 0.05546zm-1.7786-0.94764 2.4009-0.34241c0.47282-0.06269 0.85745-0.05787 1.1661 0.02894 0.31848 0.08921 0.58062 0.23389 0.8109 0.44609 0.22294 0.21219 0.40178 0.4702 0.52918 0.77162 0.13474 0.30141 0.22538 0.63658 0.27438 0.99104 0.08575 0.54978 0.08575 0.99346-0.0049 1.3093-0.08084 0.32312-0.22294 0.61007-0.41648 0.8512-0.20089 0.23389-0.42382 0.40992-0.67126 0.50878-0.33808 0.15192-0.65412 0.24113-0.9481 0.28695l-2.4058 0.33517-0.73496-5.1867z"/></g><path d="m299.55 132.05 4.3636 0.32343-0.08086 1.1259-2.7318-0.20427-0.06371 0.83898 2.5334 0.18725-0.09066 1.0724-2.5211-0.17996-0.0735 1.0311 2.8102 0.20913-0.0882 1.1916-4.4469-0.3283 0.38956-5.2673z"/><path d="m306.27 132.67 1.5705 0.43774-1.0854 3.8423 2.4525 0.69307-0.35772 1.2451-4.0255-1.1405 1.4455-5.0777z"/><path d="m315.19 138.54 0.33811 0.21886c0.25971 0.17266 0.48022 0.24562 0.63947 0.22859 0.1715-0.01945 0.2989-0.09484 0.38956-0.24318 0.0882-0.13375 0.12005-0.28452 0.10045-0.44746-0.03185-0.15563-0.1764-0.3137-0.43121-0.4815l-0.38956-0.26263-0.64682 0.98732zm-0.12985-2.7844 2.2712 1.498c0.49246 0.32343 0.78157 0.68821 0.86977 1.0822 0.09556 0.39882 0 0.8171-0.29156 1.25-0.28421 0.44016-0.65172 0.69794-1.0878 0.77333-0.441 0.07052-0.92367-0.06567-1.4749-0.42801l-0.74727-0.49609-1.0731 1.6366-1.3696-0.90708 2.9033-4.4089z"/><path d="m320.8 143.81 0.92123-1.7631-1.7494 0.94598zm-0.55861 1.0506-1.3255-1.3035-0.79873 0.43773-1.1883-1.1673 2.4424-1.1282 2.6905-1.2428 1.2642 1.25-2.2982 5.1676-1.2152-1.2062z"/><path d="m325.15 147.16 0.37241 0.5885c0.04411 0.05836 0.12495 0.17266 0.29157 0.32829 0.08329 0.07296 0.1666 0.11917 0.2842 0.12403 0.11515 0.01459 0.21316-0.01459 0.31361-0.07782 0.13966-0.08998 0.21805-0.20184 0.24256-0.34532 0.0196-0.13618-0.05391-0.34045-0.21806-0.5885l-0.37731-0.6031-0.90898 0.57392zm-3.5354 0.3137 4.4567-2.8452 1.4627 2.2932c0.27196 0.42314 0.44347 0.77089 0.52677 1.0408 0.06125 0.26994 0.04165 0.54229-0.0686 0.8025-0.1078 0.26751-0.30626 0.4888-0.58557 0.67118-0.25236 0.16051-0.49491 0.25049-0.74482 0.25049-0.23766 0.01459-0.48021-0.04621-0.71787-0.14591-0.13965-0.08268-0.30137-0.20428-0.48267-0.37694 0.04655 0.19455 0.07595 0.35262 0.07105 0.46205-0.0098 0.07539-0.0441 0.19941-0.0931 0.36477-0.0588 0.1751-0.1127 0.29912-0.15926 0.3745l-0.86242 1.4932-0.99963-1.5588 0.89672-1.6001c0.12006-0.21401 0.17886-0.36721 0.17886-0.47422 0.0049-0.14347-0.01714-0.27966-0.1127-0.40124l-0.07106-0.1216-1.813 1.1551-0.88202-1.3837z"/><path d="m327.86 154.59 1.5852-1.1965-1.9821 0.10944 0.39692 1.087zm-0.96288 0.70766-0.63458-1.7485-0.90162 0.06322-0.57577-1.5685 5.6499 0.06567 0.61007 1.6682-4.2901 3.6769-0.58801-1.6147 0.73012-0.5423z"/><path d="m329.43 160.92 1.0878-0.14348 0.31606 2.5194-2.2369 0.26993c-0.37731-0.43773-0.66642-0.82925-0.82077-1.1867-0.17151-0.35505-0.28176-0.78549-0.34546-1.2889-0.08086-0.62255-0.0392-1.143 0.13475-1.5612 0.1568-0.41827 0.43612-0.76602 0.82812-1.0408 0.39446-0.2602 0.85998-0.43286 1.4014-0.49852 0.57086-0.07539 1.0878-0.01703 1.5386 0.17022 0.45082 0.17996 0.81343 0.48394 1.0952 0.91195 0.21806 0.33802 0.36261 0.8025 0.43122 1.4056 0.08086 0.57634 0.08086 1.0165 0.0049 1.3156-0.06126 0.30397-0.19601 0.56175-0.39936 0.78061-0.19111 0.21401-0.44837 0.39882-0.77668 0.53015l-0.47531-1.5248c0.18866-0.09484 0.32831-0.21642 0.41161-0.38908 0.08575-0.16537 0.10781-0.37451 0.08575-0.6031-0.0588-0.35991-0.2058-0.62741-0.47532-0.80736-0.27685-0.17996-0.68356-0.23589-1.2177-0.17024-0.56841 0.07053-0.95307 0.23346-1.176 0.46935-0.21071 0.24804-0.28911 0.56661-0.24991 0.94598 0.0196 0.17995 0.0735 0.34775 0.14211 0.50339 0.07594 0.16537 0.1862 0.33316 0.33811 0.5423l0.49736-0.0681-0.13965-1.0822z"/><path d="m332.78 168.85-0.1862 1.6196-3.1263-0.35262c-0.31116-0.03648-0.59781-0.11672-0.86242-0.24561s-0.49246-0.30398-0.67622-0.53744c-0.17886-0.22858-0.30136-0.45961-0.36017-0.69306-0.07594-0.33803-0.09555-0.7174-0.04409-1.1624 0.03429-0.25291 0.08329-0.53257 0.14455-0.83169 0.07106-0.29911 0.1764-0.5423 0.30871-0.73198 0.12741-0.18968 0.29891-0.35747 0.50472-0.50825 0.2303-0.14348 0.441-0.23345 0.65171-0.26993 0.34301-0.06566 0.64927-0.08755 0.90653-0.04863l3.1312 0.35747-0.1862 1.6147-3.2022-0.36721c-0.29156-0.03162-0.52186 0.01945-0.70317 0.16293-0.17641 0.14592-0.28176 0.35019-0.31116 0.62985-0.03185 0.28695 0.02205 0.51311 0.16415 0.68577 0.13722 0.17509 0.35281 0.27967 0.63948 0.32343l3.2071 0.35505z"/><path d="m327.91 174.87 1.9919 0.07052-1.6072-1.1721-0.38466 1.1016zm-1.1809-0.06079 0.60272-1.7534-0.73747-0.5277 0.54882-1.5783 4.3464 3.6113-0.59782 1.6901-5.6327 0.13862 0.55372-1.6196 0.91632 0.03891z"/><path d="m329.65 179.67-0.91877 1.5637-2.0826 0.0073 0.99718 1.8287-0.91389 1.5442-1.6072-3.3292-1.9062-1.1235 0.83792-1.4129 1.9037 1.1308 3.6898-0.20914z"/><path d="m335.02 164.99c0 19.345-15.676 35.023-35.012 35.023-19.341 0-35.016-15.678-35.016-35.023 0-19.331 15.676-35.006 35.016-35.006 19.336 0 35.012 15.676 35.012 35.006z" fill="none" stroke="#000" stroke-miterlimit="10" stroke-width=".73716"/><path d="m326.06 164.87c0 14.396-11.662 26.057-26.054 26.057-14.392 0-26.059-11.661-26.059-26.057 0-14.382 11.667-26.045 26.059-26.045 14.392 0 26.054 11.663 26.054 26.045z" fill="none" stroke="#000" stroke-miterlimit="10" stroke-width=".73716"/><path d="m300.01 155.49 2.1879 6.2644 6.6226 0.14834-5.2775 4.0125 1.9184 6.3495-5.4514-3.7742-5.4539 3.7742 1.9086-6.3495-5.2848-4.0125 6.6348-0.14834 2.1953-6.2644z" fill="#fedf00" stroke="#000" stroke-width=".30129"/><path d="m312.04 182.85c-0.22051 0.18482-1.1099 0.28452-1.3451 0.32343-0.23766 0.03161-1.1711 0.04135-1.5656 0.05593-0.21806 0.01459-0.63701 0.07538-0.85507 0.07538-1.9141-0.21831 3.1092-0.18768 3.7658-0.45474m-5.0153-1.481c0.12496-0.22373 0.75218-1.6196 0.97759-2.016 0.2303-0.38909 0.74972-1.4275 1.0609-1.8604 0.15926-0.23346 0.78403-0.91193 0.93348-0.60796-1.088 0.9404-1.9456 2.581-2.4023 3.6851-0.05881 0.11916-0.41652 0.73337-0.54882 0.89387-0.12741 0.15807-0.07538 0.4558-0.27628 0.48011-0.21071 0.02676-0.06303 0.0648-0.06303 0.0648s0.1813-0.40369 0.3185-0.63958zm7.2155 1.0676s-0.86487-0.12889-1.4014-0.31857c-0.53411-0.17996-1.4308-0.31858-2.1953-0.29911-0.75707 0.00972-1.4504 0.23831-2.0679 0.4742-0.61497 0.22859-1.4112 0.24804-1.4112 0.24804s-0.45082 0.07053-0.24011-0.03404c0.2009-0.09971 0.89917-0.64443 0.89917-0.64443l0.45082-0.61769c0.1299-0.03608 2.418-3.0388 2.1693-3.8444 0.35036-0.59337 0.761-1.6516 0.60665-1.8364-0.0735-0.07538-1.7812 0.5423-2.1561 0.88275-0.43367 0.37451-0.73993 1.1551-0.86978 1.605-0.1274 0.44746-0.78403 0.8171-0.78403 0.8171-0.53411 0.38422-0.92122 1.6001-1.1025 2.5948-0.18375 0.98246-2.6036 1.5264-2.6036 1.5264s-0.67132 0.25049-0.07595 0.44017c0.10289 0.02918 0.36845 0.47829 0.58161 0.48558 0.29645 0.03405 1.7991-0.60886 2.0318-0.5578 0.27441 0.05593 0.93837 0.2286 1.5141 0.41341 0.57332 0.19455 1.0462 0.29425 1.448 0.14591 0.40671-0.14591 0.98738-0.08997 1.4235-0.00487 0.42876 0.09241 0.90898 0.05351 1.1858-0.03161 0.29646-0.08997 1.0756-0.52284 1.0756-0.52284s0.84283-0.36477 1.3304-0.59337c0.48758-0.22859 0.19111-0.32829 0.19111-0.32829" fill="#009b3a" stroke="#000" stroke-width=".37661"/><path d="m307.66 185.36s-3.3321-1.7436-3.511-1.785c-0.10535-0.0146-1.5117-0.79035-2.1561-0.98976-0.46552-0.15077-1.1074-0.18969-1.3377-0.17509-0.54882 0.03891-1.4442 0.28079-1.4442 0.28079l0.82813 0.33802s0.77667 0.38179 1.1564 0.58607c0.54392 0.28696 0.56842 0.63714 0.56842 0.63714l3.0171 1.3266 0.61252 0.44016s0.55617-0.76846 2.2663-0.65902" fill="#009b3a" stroke="#000" stroke-width=".30129"/><path d="m311.01 178.44c1.0479-0.93442 1.5605-2.2638 2.4228-2.9995 0.13948 0.09998 0.13948 0.26664-0.03099 0.56146-0.16272 0.28968-0.37969 0.38966-0.47527 0.54093-0.17563 0.23586-0.70045 0.67212-0.84252 0.93362-0.12657 0.24867-0.28961 0.59499-0.74679 0.85906-0.4546 0.27174-0.31172 0.70436-0.35046 0.88639-0.03616 0.19996-0.73706 0.70174-1.0754 1.3222-0.06425 0.64676-0.09367 0.37577-0.48567 0.60539 0.71372-1.0764 1.0893-1.7693 1.5843-2.7095m-2.3556 2.9585c-0.06717 0.141-2.1344 1.3149-1.4887 1.1405 0.64316-0.1692 2.5528-0.85853 3.0952-1.0995 0.66382-0.2897 1.0616-0.89729 1.5601-1.3921 0.50883-0.50506 2.0824-2.0081 2.3536-2.5875 0.26603-0.59733 0.50824-1.4273-0.5585-3.2911 0 0-0.16532 0.35636-0.56309 0.70503-0.3926 0.35635-0.97892 0.75116-0.97892 0.75116l-0.68449 0.64605s-2.415 4.4378-2.7353 5.1274" fill="#009b3a" stroke="#000" stroke-width=".39703"/><path d="m317.05 179.84s-1.323-0.11916-1.4382-0.11916c-0.12496 0-0.85018-0.09971-1.9037-0.09971-1.0437 0-1.4358 0.36235-1.7102 0.65416-0.29647 0.32587-1.1197 1.0797-1.1197 1.0797l0.44347-0.03892c1.0584-0.82438 1.8818-0.52215 2.2101-0.54646 0.34301-0.01216 0.7561 0.02162 1.8145-0.35288 1.0756-0.37693 1.0128-0.02474 0.89514 0.01173-0.1176 0.0462-0.80684 0.28809-1.5958 0.32214-0.79873 0.04376-1.4991 0.19888-1.8127 0.19888-0.31606 0-2.6452 0.6368-2.6452 0.6368s2.5206 0.14807 2.7925 0.23805c0.26951 0.10943 0.69337 0.05836 1.0437-0.10943 0.96533-0.44503 1.4014-0.53015 1.7984-0.62011 0.39936-0.07783 0.87468-0.34776 0.87468-0.34776s0.25482-0.1605 0.49001-0.5885c0.24256-0.43773-0.1372-0.31857-0.1372-0.31857" fill="#009b3a" stroke="#000" stroke-width=".37661"/><path d="m318.29 172.93c0.15925-0.39396 0.55616-1.3205 0.97757-1.6853 0.25726-0.22373 0.70072-0.32829 0.93592-0.428 0.10046-0.03405 0.8235-0.06858-0.08057 0.17946-0.37487 0.09972-0.88094 0.32198-1.1064 0.69892-0.31592 0.87764-0.59225 1.6415-1.179 2.2022-0.4312 0.45233-0.70397 1.0413-0.70397 1.0413l-0.4626 0.16058c0.84728-0.51926 1.2154-1.481 1.619-2.1693zm4.0965-0.49367c-0.48267 0.16051-0.65172 0.29426-0.65172 0.29426-1.0805 0.32343-1.5223 1.0016-1.9951 1.5537-0.2401 0.28938-0.57831 0.50511-1.7176 0.99391-1.0413 0.44745-1.8464 1.1385-1.866 1.1385 0 0-0.33076 0.0681-0.26706 0.2286 0.02451 0.07539 0.30626 0.01458 0.30626 0.01458s2.1444-0.30554 3.0386-0.85027c0.57087-0.35748 0.89363-0.61796 1.4351-1.4545 0.24256-0.36964 0.51451-1.0651 0.52677-0.61769 0.04165 1.1867-1.8008 2.337-2.6044 2.692-0.42877 0.18238-1.0021 0.25777-1.7518 0.3818-0.73993 0.13618-1.1907 0.09484-1.1368-0.0681 0.07596-0.23588 0.16171-0.28452 0.35771-0.51798 0.35281-0.4207 1.2054-0.56904 1.8327-0.86329 0.74237-0.33316 1.4455-0.82196 1.7984-1.2402 0.36016-0.42314 0.48512-0.57877 0.58312-0.93625 0.27441-0.93383 0.28911-1.4518 0.54636-1.785 0.90653-1.1162 1.0388-1.4761 1.0829-1.9746 0.0098-0.11429-0.47041 0.26508-0.72032 0.40369-0.48756 0.28939-0.66886 0.28939-1.6685 0.54959-1.0143 0.25291-0.99229 0.90708-1.1491 1.2159-0.04655 0.12403-0.45816 0.63714-0.65416 0.73199-0.19601 0.0997-0.67868 0.79763-0.85753 1.2062-0.1323 0.29912-0.36751 0.51312-0.55617 0.4888-0.19846-0.03648 0.37976-2.1984 0.50716-2.5558 0.13721-0.35505 0.16416-1.0481 0.16416-1.2816 0-0.22373 0.00762-0.81255-0.38438-0.87822-0.38956-0.06565-0.40713-0.60423-0.40713-0.60423-0.93838 0.81223-0.41392 2.2436-0.31347 3.0923 0.10045 0.84141-0.19356 2.3978-0.19356 2.3978 0.90653 0.38666 0.19356 1.4883-0.0882 1.8433-0.29646 0.36235-0.85753 0.428-1.1099 0.74657-0.26706 0.3283-2.1653 2.9718-2.1653 2.9718l2.3613-0.66885s0.22049 0.03891-0.13231-0.22859c-0.35771-0.25534 0.11515-1.2475 0.41896-1.4907 0.58067-0.45476 1.3647-0.12403 1.3647-0.12403s1.0952 0.1678 2.4378-0.36478c1.1221-0.44258 1.6048-1.16 2.1365-1.6998 0.2891-0.29425 0.81832-1.2694 1.1515-1.8482 0.2009-0.33315 0.56106-0.96786 0.34055-0.89248" fill="#009b3a" stroke="#000" stroke-width=".37661"/><path d="m315.69 178.79c0.18026-0.07319 0.20756-0.10572 0.538-0.46623 0.325-0.36052 0.03824-0.9677-0.46425-0.9433-0.2458 0.01626-0.50797-0.04066-0.99135 0.60989-0.467 0.65056 0.22393 0.88909 0.48611 0.9162 0.11198 0.00542 0.25944-0.04337 0.43149-0.11656" fill="#009b3a" stroke="#000" stroke-width=".41979"/><path d="m314.47 174.67c-0.31253 0.52349-0.47995 1.1245-0.23439 1.3101 0.05583 0.03047 0.27349 0.22157 0.45765 0.22157 0.18137 0 0.69483-0.24648 0.98784-0.69797 0.29299-0.43761 0.53299-0.91953-0.06697-1.2187-0.54416-0.26866-0.91808-0.01662-1.1441 0.385" fill="#009b3a" stroke="#000" stroke-width=".42894"/><path d="m316.26 168.28s0.049-0.08025-0.1568-0.29425c-0.32586-0.33316-0.73381-0.92765-0.73381-0.92765-0.64926 0.35504-0.86487 1.0724-0.86487 1.357 0 0.29668 0.11025 0.94111 0.0098 1.5977-0.0343 0.22372-0.07105 0.47906-0.39201 1.2913-0.32831 0.8025 0.04655 1.5394 0.12005 1.7996 0.05636 0.25777 0.32342 1.0603 0.32342 1.0603s0.2548-0.16293 0.34056-0.18239c0.10044-0.02674 0.44591-0.01215 0.44591-0.01215s0.39079-0.70653 0.40549-1.1005c0.00735-0.28939-0.03921-0.78062-0.17641-1.5345-0.1911-1.0968-0.17885-1.4105-0.049-2.0233 0.12985-0.62254 0.72767-1.0311 0.72767-1.0311" fill="#009b3a" stroke="#000" stroke-width=".37661"/><path d="m317.23 169.37s0.36882-0.08818 0.55458-0.4222c0.23422-0.40348 0.1723-0.83102 0.1723-0.83102-0.57074-1.1063-1.338-0.21378-1.338-0.21378-0.68651 1.4056 0.61113 1.467 0.61113 1.467" fill="#009b3a" stroke="#000" stroke-width=".41382"/><path d="m319.17 167.34c-0.85142 0.04449-1.2708 1.5758-1.2708 1.5758s-0.1376 0.37805-0.59212 0.67033c-0.48336 0.29866-0.19846 0.72756-0.19846 1.49 0 0.76249-0.53138 2.1096-0.53138 2.1096l-0.19842 0.45747s0.0192 0.34312 0.32967-0.27954c0.52816-1.0484 1.1075-0.79427 1.3252-1.9221 0.13763-0.83876 1.5268-1.1056 1.5268-1.1056l-0.39051-0.07308c-1.4436-0.6767 0.08324-2.3637 0.32971-2.6623 0.26246-0.29867 0.51212-0.29867-0.32971-0.26055" fill="#009b3a" stroke="#000" stroke-width=".49201"/><path d="m318.93 169.16c-0.38988 0.83617 0.71976 0.87676 0.97603 0.73063 0.10361-0.05953 0.33807-0.33825 0.33807-0.33825 0.44987-0.64675 0.03818-1.0851-0.19629-1.1474-0.22629-0.07577-0.70886-0.1326-1.1178 0.755" fill="#009b3a" stroke="#000" stroke-width=".41908"/><path d="m316.82 165.92c0.29156 0.5423 1.105 2.0525 1.2961 1.9576 0.12006-0.05836 0.0245-0.3672 0.0245-0.3672s-0.0245-0.40855-0.1568-0.90221c-0.12985-0.49853-0.09838-1.1357-0.35809-1.5443-0.25236-0.40855-0.85668-0.89242-1.0943-1.5369-0.23521-0.64687-0.05094-1.87-0.03134-2.0208 0.02451-0.14104 0.09555-0.04863-0.0294-0.19454-0.1274-0.15808-1.156-0.70537-1.156-0.70537s0.05988 0.39893 0.03538 1.1212c-0.0098 0.17509-0.0588 0.37937-0.08575 0.68334-0.02451 0.28939 0.14945 0.65416 0.57086 1.4858 0.49002 0.963 0.72522 1.5539 0.98493 2.0233" fill="#009b3a" stroke="#000" stroke-width=".37661"/><path d="m322.99 158.73s-0.29645 0.49366-0.40181 0.60308c-0.11025 0.10944-1.7861 1.5491-1.8817 1.6099-0.08085 0.06322-0.95552 0.34289-1.7518 2.495-0.79873 2.1449-0.45326 4.1511-0.45326 4.1511l0.38711-0.04864 0.06615-0.20914s0.12986-0.71252 0.23031-1.2524c0.11025-0.53257 0.70731-1.277 1.1042-1.8266 0.37733-0.53743 0.68269-1.3105 0.68269-1.3105 0.44879-0.90452 0.66473-1.7135 1.1091-2.3443 0.01821 0.75146-2.8378 5.3709-3.1432 6.9429l0.84504-0.12889c0.67621-0.61768 1.5607-1.9138 2.1585-2.7504 0.60271-0.83898 0.85752-2.1497 0.96777-2.7309 0.10536-0.57391 0.08085-3.2003 0.08085-3.2003" fill="#009b3a" stroke="#000" stroke-width=".37661"/><path d="m317.29 159.21c-0.43121-0.39881-0.76687-0.51798-0.76687-0.51798s0.1029 0.78305 0.1029 1.2597c0 0.47907 0.04165 1.2816 0.01715 1.7096-0.01715 0.428-0.2303 1.1357 0.07351 1.8287 0.31115 0.68334 0.66152 1.0311 0.90897 1.4615 0.22541 0.42071 0.63842 2.6082 0.63842 2.6082s-0.15085-2.9584-0.021-3.7949c0.12005-0.82196 0.15925-2.1035-0.0245-2.7455-0.19111-0.64443-0.50716-1.4007-0.92858-1.8093" fill="#009b3a" stroke="#000" stroke-width=".37661"/><path d="m319.26 156.32c0.12985-0.25292 0.43366-0.77576 0.56106-1.571 0.04656-0.33802 0.07841-0.88518 0.06616-1.2646-0.0098-0.2529-0.11026-0.69307 0-0.72224 0.098-0.02433 0.01583 0.13701 0.07218 0.51151 0.02695 0.13376-0.06535 0.50392-0.0825 0.97814-0.02204 0.37936-0.03707 0.69603-0.20614 1.2091-0.147 0.45232-0.01385 0.95381-0.10451 1.0949-0.098 0.14347-0.35771 0.68577-0.35771 0.68577s-0.15925 0.43773-0.1323 0.83655c0.0147 0.40855 0.0392 0.8487 0.0392 0.8487s0.18866-0.35018 0.61007-0.40854c0 0 0.09555-0.68334 0.09555-0.89735 0-0.214 0.27441-1.6147 0.41407-2.0427 0.1911-0.62742 0.32585-1.7193 0.02205-2.9863-0.08331-0.34288-0.14455-1.4153-0.14455-1.4153s-0.40427 0.32344-0.64438 1.5466c-0.0735 0.37207 0.0833 1.3691 0.02205 2.4318-0.0245 0.58607-0.5865 2.9612-0.66245 3.1095" fill="#009b3a" stroke="#000" stroke-width=".37661"/><path d="m319.26 156.32c-0.01961 0.03647-0.02696 0.05107-0.02696 0.05107s0.01715-0.0146 0.02696-0.05107" fill="#009b3a" stroke="#000" stroke-width=".37661"/><path d="m317.67 150.16c0.21561 0 0.21561 0.23346 0.17151 0.41827-0.0343 0.18969-0.0294 0.54231-0.0294 0.61526 0 0.08268 0.09065 0.58607 0.1617 0.8487 0.07841 0.26994 0.21316 0.35505 0.15435 0.89735-0.03919 0.34046-0.38956 0.7417-0.26705 1.3205 0.06615 0.30397 0.2842 0.62254 0.39201 0.88518 0.09065 0.18238 0.04117 0.62788 0.06568 0.99266 0.0098 0.35504 0.20627 0.59532 0.20627 0.59532s-0.24255 0.45232-0.3234-0.11429c-0.08821-0.6493-0.1176-0.93869-0.24256-1.2329-0.20336-0.48151-0.38959-1.3477-0.07353-2.0164 0.0539-0.12889 0.09605-0.36917 0.09605-0.65369 0-0.2894-0.17862-0.78399-0.21292-1.0904-0.02941-0.24318-0.00981-0.75641-0.00981-0.94123m-1.1326 2.7198c0.05145 0.3672 0.16905 0.57635 0.58312 1.374 0.12741 0.26264 0.41651 0.93383 0.46061 1.1478 0.05145 0.21401 0.09555 0.47178 0.09555 0.53744 0 0.07052 0.04656 0.57391 0.04656 0.57391v0.20913s-1.1466-0.66875-1.6489-1.0262c-0.49982-0.35991-1.0682-0.85358-1.4308-1.1527-0.41161-0.33802-1.3916-1.5004-1.4039-2.4318l-0.45082-0.40855s-0.34301 2.0695 1.2789 3.4094c0.46797 0.38422 0.97758 0.80736 2.0679 1.301 1.0927 0.50339 0.94937 0.95439 1.4051 1.9223 0.44837 0.97273 0.72899 1.5321 0.78534 1.8069 0.0392 0.29425-0.12404 4.429-0.12404 4.429l0.0392 0.3745s0.99867-3.8295 1.4789-4.2575c0 0-0.95307-0.14591-0.87712-1.6439l-0.16661-0.98732s-0.1911-1.1867 0.16661-1.9236c0 0 0.42386-1.3497 0.27931-2.517-0.09066-0.69793-0.12251-0.90707-0.20826-1.5758-0.12986-1.0408-0.54636-2.5291-0.59291-2.709-0.14211-0.52286-0.19111-0.6031-0.35771-1.0165-0.04901-0.14591-0.14212-0.62742-0.29647-0.63471-0.0882-0.00486-0.22296 0.62012-0.22296 0.62012s-0.20089 0.68091-0.24255 0.86573c-0.12986 0.54959-0.43366 1.0116-0.57331 2.247-0.02451 0.22373-0.04901 0.82682-0.07596 0.90706-0.0147 0.0681-0.0441 0.42314-0.0147 0.55933" fill="#009b3a" stroke="#000" stroke-width=".37661"/><path d="m317.48 158.62s-0.16661-0.36964-0.33566-0.55932c-0.34056-0.40125-0.79873-0.7417-2.1022-1.3788-1.2985-0.64687-1.6416-1.7096-2.3031-2.1473-0.30381-0.20913-0.89183-0.30883-0.89183-0.30883s0.57822 0.7952 0.71542 1.07c0.17641 0.35019 0.21806 0.58851 0.93348 1.2548 0.71052 0.66875 1.5778 0.9022 2.1365 1.0676 0.78892 0.24561 1.8474 1.0019 1.8474 1.0019" fill="#009b3a" stroke="#000" stroke-width=".37661"/><path d="m313.39 152.48c0.0343 0.10457 0.36922 1.2478 1.0724 2.1355 1.0756 1.3594 3.1459 2.3303 3.1459 2.3303-0.19356-0.84627-0.53117-1.8245-0.79823-2.2574-0.94083-1.5199-3.4274-2.2642-3.4274-2.2642s-0.0441-0.05836 0.00735 0.05593" fill="#009b3a" stroke="#000" stroke-width=".37661"/><path d="m316.35 153.12c0.55697-1.2193-1.1065-2.3845-1.5754-3.2343 0.17395-0.13862 0.37976 0.22373 0.57086 0.46448 0.27196 0.36234 1.0388 1.4105 1.0388 1.4105l0.23766-1.1162-1.9806-1.8022c-0.0245 0.26263-0.63578 0.47768-0.63578 0.47768-0.29645 1.6682 2.3445 3.8001 2.3445 3.8001" fill="#009b3a" stroke="#000" stroke-width=".37661"/><path d="m312.91 150.29c-0.47776 0.21401-0.64682 0.21401-0.64682 0.21401l0.26679 0.70683 0.15436 0.19212s0.62231 0.89978 0.98492 1.0116c0.15192 0.05593 0.71788 0.15564 1.2863 0.39882 0.71542 0.30398 1.8826 1.3252 1.8826 1.3252s-1.9419-2.1902-2.6867-3.8321l-0.25089-0.94655-0.70388 0.04723s0.19356 0.6639-0.28665 0.88276" fill="#009b3a" stroke="#000" stroke-width=".37661"/><path d="m305.64 148.89c0.22296 0.19942 0.58802 0.50339 1.056 0.78305 0.42876 0.25778 1.6636 0.98489 2.5873 1.16 0.21561 0.03404 1.3764 0.18006 1.3764 0.18006 0.04656-0.50826 0.59782-0.55203 0.59782-0.55203l-1.6435-0.18006c-1.3253-0.09869-2.334-0.65222-3.119-1.5394 1.0534 0.63836 2.5668 1.6441 3.7939 1.5906 5.0376-0.49585-1.5178-0.62034-2.0862-0.98511-0.60272-0.37207-1.1172-0.98976-1.1172-0.98976l-1.4774-0.06565s-0.72522-0.04621 0.03185 0.59822" fill="#009b3a" stroke="#000" stroke-width=".37661"/><path d="m311.57 151.76c0.32586-0.02431 0.55372-0.08512 0.62722-0.44259 0.06615-0.39882-0.08576-0.68821-0.56596-0.79277-0.26707-0.06567-0.73503-0.08026-0.92613 0.39395-0.20826 0.48637 0.54881 0.79764 0.54881 0.79764s0.14456 0.06323 0.31606 0.04377" fill="#009b3a" stroke="#000" stroke-width=".37661"/><path d="m312.13 148.87c-0.42632 0-0.57087 0.34776-0.48021 1.0262 0.1127 0.68335 1.1589 0.38424 1.1589 0.38424l0.19356-0.09971s0.14211-0.10943 0.0637-0.65416c-0.0735-0.55689-0.50716-0.6566-0.93592-0.6566" fill="#009b3a" stroke="#000" stroke-width=".37661"/><path d="m313.85 149.35h-0.01715c-0.00735 0.00486 0.01715 0 0.01715 0" fill="#009b3a" stroke="#000" stroke-width=".37661"/><path d="m313.83 149.35c0.01225-0.00486 0.04165-0.01945 0.1519-0.05107 0.21806-0.08268 0.43857-0.60552 0.43857-0.60552 0.11024-0.70766-0.39692-0.88276-0.39692-0.88276-0.85263-0.17022-0.87467 0.57878-0.87467 0.57878-0.23521 0.97517 0.55617 0.96543 0.68112 0.96057" fill="#009b3a" stroke="#000" stroke-width=".37661"/><path d="m310.03 146c0.04656 0.32343 0.50717 0.79278 0.57822 0.87302 0.08331 0.07296 0.67132 0.68578 0.86977 0.96058 0.19846 0.27479 0.85801 1.5214 0.85801 1.5214s0.11515-0.01946 0.16415-0.1143c0.11516-0.19455-0.44149-1.7037-0.49783-1.8083-0.20383-0.45855-0.53717-0.80028-0.87224-1.1575-0.07839-0.05107-0.35281-0.40369-0.65416-0.78305 0.59606 0.76305 2.125 2.9328 2.5755 3.8972 0 0-0.05437-1.0277-0.11072-1.5797-0.1911-1.6099-0.61007-2.1084-0.74482-2.3418-0.23766-0.43529-0.84038-0.85843-1.2716-1.0068-0.43121-0.15563-0.94083-0.36964-1.4872-0.54473-0.56351-0.17265-0.12985 0.33559 0.07841 0.77332 0.2597 0.51798 0.46796 0.98246 0.51451 1.3108" fill="#009b3a" stroke="#000" stroke-width=".37661"/><path d="m307.93 148.65c0.55617 0.47177 0.80608 0.80007 1.9601 0.9703 1.1638 0.18239 1.2618 0.10457 1.2618 0.10457s0.60319-0.29146 0.29693-0.54681c-1.7099-0.75179-3.329-1.6474-4.1509-2.6535 0 0 0.14211-0.13862 0.73502 0.45474 0.34302 0.34776 0.57332 0.52285 0.78402 0.68578 0.62232 0.43529 0.89184 0.55932 1.5117 0.89734 0.33076 0.17996 1.1564 0.3745 1.1564 0.3745s0.11761-0.25047 0.22296-0.27966c0.10046-0.02431-0.06396-0.41676-0.78183-0.99797-0.63213-0.51068-1.0486-1.1381-1.0486-1.1381s-0.84991-0.18633-1.7711-0.33954c-0.68601-0.10943-1.9772-1.1113-1.9552-0.83897 0.0245 0.27965 0.19356 1.1478 0.54148 1.6998 0.35036 0.55445 0.68356 1.1211 1.2373 1.6074" fill="#009b3a" stroke="#000" stroke-width=".37661"/><path d="m298.32 183.45c-0.50471 0.14834-4.2861 1.5684-4.2861 1.5684l-1.056 0.42314c1.4578-0.3283 2.575 0.40612 2.575 0.40612l4.2126-1.9502s-0.01225-0.06322-0.1176-0.1386c-0.11025-0.07539-0.81833-0.46205-1.3279-0.30885" fill="#009b3a" stroke="#000" stroke-width=".30129"/><path d="m292.82 185.56c-0.028 0.02432-0.05599 0.12403 0.01679 0.15564 0.20989 0.11673 0.15392 0.16293 1.1083 0.27723 0.96275 0.10457 1.5896-0.07782 1.7548-0.26021 0.19312-0.21156-2.3845-0.60552-2.8798-0.17266" fill="#009b3a" stroke="#000" stroke-width=".32201"/><path d="m286.76 171.96-0.17523-1.1814s-0.22039-3.1961-0.58273-3.837c-0.06987-0.14207-0.0388-0.4737-0.26925-0.47923-0.44051-0.03347-0.44051 1.0059-0.49398 1.9477-0.71741 4.7506 3.0709 8.3772 3.0709 8.3772z" fill="#009b3a" stroke="#000" stroke-width=".41802"/><path d="m305.51 186.03s-0.39736-0.0889-0.14548-0.39861c0.241-0.29539 0.95753-0.4531 1.1008-0.4531 0.14114-0.00574 0.54283 0.02866 0.84246 0.11183 0.30182 0.07456 0.71872 0.34127 0.59714 0.53341-0.12812 0.18353-0.53633 0.41293-1.0944 0.41293-0.47769 0-0.72303-0.01146-0.93365-0.07168-0.20411-0.07743-0.36695-0.13478-0.36695-0.13478" fill="#009b3a" stroke="#000" stroke-width=".385"/><path d="m301.4 183.77s-1.301-0.59823-2.5334-1.2013c-1.6244-0.79277-3.5771-1.8944-4.9369-3.9152-1.7028-2.5024-3.1826-3.8423-3.5404-4.1122-0.36751-0.26993-0.42141-0.36964-0.55616-0.17995-0.1225 0.16537-0.03676 0.30884 0.06615 0.48394 0.35036 0.56904 1.2103 1.639 1.519 2.213 0.53166 1.0262 1.6317 2.1473 1.6219 2.8112 0 0.09241-0.32096-0.06565-0.32096-0.06565s-2.575-0.88276-3.6188-4.0028c-0.75952-2.2616-0.43611-2.9255-0.61252-4.0563-0.30135-2.0087-0.36261-2.1716-1.3573-4.4235-0.02695-0.05593-0.60762-0.99705-0.68601-0.78792-0.10781 0.26994 0.09799 1.2767 0.09799 1.2767l0.10536 1.16s-0.0833 2.5753-0.0833 2.7309-0.64927 1.7631 2.1071 4.4648c0 0 0.04165 0.45962-0.32831 0.05593-0.26216-0.28939-2.2345-1.8044-2.8347-4.297-0.61742-2.4926-0.70808-4.9877-0.24011-6.0236 0.42386-0.93625 1.274-3.2246 0.91142-5.2236-0.04165-0.20914-0.10044-0.82196-0.23276-0.66145-0.05634 0.07781-0.3038 1.0894-0.45325 1.4396-0.20826 0.47907-0.53167 0.95084-0.63213 1.2816-0.19355 0.56175-1.1442 1.4299-0.95797 3.0276 0.2107 1.836 0.33075 2.123 0.55126 2.7772 0.07596 0.23831 0.25971 0.84627 0.13965 0.90706-0.11025 0.05838-0.49981-0.72711-0.49981-0.72711s-1.7444-3.4289-0.66886-6.2109c1.0878-2.7698 3.8172-5.3962 3.8172-5.3962s2.2173-1.8385 2.6681-2.2665c0.17642-0.16536 0.13476-0.28939 0.07596-0.26993-0.55127 0.13862-4.8168 1.0214-6.3163 6.1039 0 0-0.0784 0.214-0.18866 0.16049-0.1372-0.06079 0-0.29911 0-0.29911s0.93838-3.604 3.5722-5.2382c2.8739-1.7922 2.5358-1.5296 3.4864-2.0938 0.59782-0.37206 1.1393-0.87059 1.8082-1.9771 0.0686-0.12401 0.34056-0.76845 0.30381-0.87789-0.0294-0.10943-0.15925 0.04134-0.22051 0.22373 0 0-0.81343 1.2573-2.0311 1.6804-1.2226 0.42314-2.2149-0.17995-3.4424 1.177-1.2299 1.3642-2.2075 3.2538-2.2075 3.2538s-0.32097 0.48879-0.39202 0.4742c-0.13476-0.04134 0.06615-0.52041 0.06615-0.52041s1.6416-3.4824 2.9597-4.19c1.3206-0.71252 2.4966-1.3959 3.2464-1.9746 0.91143-0.71496 2.4819-2.4659 3.0479-3.069 0.12005-0.12889 0.96288-0.98246 1.1491-1.2597 0.1127-0.15078 0.37976-0.36964 0.33566-0.40855-0.12006-0.08998-0.91878 0.29425-0.91878 0.29425s-4.3477 1.198-7.0526 5.2835c-0.12496 0.18969-0.42253 0.57556-0.58178 0.73849-0.28911 0.29912-0.43329 0.79836-0.43329 0.79836-0.17641-0.14591 1.5284-2.2777 1.5284-2.2777l0.29891-1.3788s0.50472-2.0719 1.5656-3.5334c0.10536-0.13376 0.73257-0.76603 0.83793-0.89735 0.21071-0.22859-0.39936 0.19941-0.29156 0.10457 0 0-4.0549 2.9109-4.0549 6.5781 0 0.65902-0.40916 1.2597-0.97513 2.0792-0.66152 0.95085-0.88202 1.5345-1.1687 2.9498-0.20336 1.0116-0.37241 1.7825-0.37241 1.7825s0.0392 0.52285-0.12985 0.48394c-0.17641-0.03892-0.11516-0.47178-0.11516-0.47178s0.41406-2.7334 0.70807-3.5748c0.28666-0.81709 0.47531-1.374 0.47531-1.374s-0.16905-2.0549 0.28667-3.1808c0.38711-0.98246 1.3671-2.2762 1.519-2.5996 0.06615-0.14105 0.51942-1.0627 0.64682-2.1133 0.01715-0.14104-0.0931-0.02431-0.27686 0.38667-0.44591 1.0043-0.81832 1.267-1.5509 2.213 0 0-1.8792 1.3618-2.5603 5.4132 0 0-0.02205 1.5102-0.25235 3.8763-0.16661 1.7339-0.0245 3.3584 0.17151 4.336 0.12495 0.59823 0.36261 0.6031 0.2156 0.67605-0.09065 0.0462 0.05847 0.00782-0.15468-0.44449-0.25971-0.5423-0.45872-1.377-0.45872-2.5296 0-2.1133 0.18376-3.8107 0.18376-3.8107s0.13808-3.4143-1.2781-4.9536c-0.0686-0.08025 0.24745 0.69063 0.38956 1.4591 0.17396 0.95328-0.14211 2.2762-0.2352 2.7917-0.09066 0.51798-1.0339 2.7747-0.70073 4.8928 0 0 0.79872 3.5918 1.8278 5.333 0 0 0.63993 0.74953 0.07396 0.04674-0.56107-0.7028-1.7131-3.4975-1.8135-3.7358-0.08821-0.22859-0.91388-1.9673-1.6906-2.675-0.40182-0.3745-1.5068-1.0384-1.5068-1.0384s-0.60027-0.45719-0.14455 0.15077c0.36016 0.47907 0.84282 1.3399 1.0731 1.7144 0.57822 0.93138 1.0143 1.8239 1.274 2.4124 0.36996 0.81223 1.23 3.2027 1.23 3.2027l0.5506 1.5162s0.92189 0.51189 1.4242 1.0712c0.41161 0.45232 1.2642 1.4907 1.9723 3.3389 0.31851 0.8171 0.95386 1.5661 0.95386 1.5661s-0.13458 0.25934-0.70054-0.72068c-0.55862-0.99219-1.1055-2.8542-2.4506-4.3035-1.0217-1.1114-3.7711-2.2324-3.7711-2.2324s1.7665 3.0787 2.2051 3.6283c0.74237 0.88032 1.8155 2.1157 2.0924 2.4416 0.28666 0.33316 1.9478 2.3856 2.1928 2.7139 0.38712 0.51312 0.64193 0.73928 0.84528 0.94842 0.43856 0.46691 1.7366 1.3181 1.8371 1.4522 0.0196 0.13618 0.04553 0.02352-0.06473-0.05673-0.57576-0.34289-1.2634-0.88561-1.9739-1.3477-0.70806-0.46934-3.4423-1.6359-5.2841-4.1746-0.43611-0.75143-0.64437-1.0505-0.79137-0.97272-0.22541 0.11916 1.2397 4.9682 4.2533 6.51 0 0 3.3248 1.4786 4.0622 1.9236 0.40427 0.24318 1.2201 0.60309 1.5974 0.90707 0.2156 0.17752-0.196 0.1678-0.22295 0.16294-1.7665-0.13862-4.3023-0.37208-5.8581-1.2743 0 0-0.66887-0.46934-0.12006 0.18968 0.43612 0.51069 1.2642 1.7679 2.8617 2.4756 1.5999 0.7028 3.925 1.1114 4.7752 1.1551 0.83548 0.0462 3.8148 0.06079 4.3856 0.24561 0.55861 0.18968 1.5091 0.79861 2.053 0.9737 0.49492 0.1605 1.987 0.73199 1.987 0.73199s0.44837 0.24561 0.68847 0.33316c0.26951 0.10699 1.3873 0.09749 1.4657-0.11164 0.07596-0.18725-0.31893-0.47298-0.31893-0.47298" fill="#009b3a" stroke="#000" stroke-width=".30129"/><path d="m320.72 158.53c0.33811 0.12402 0.48756 1.1259 0.48756 1.1259s-0.02939-0.57392-0.02939-0.85601c0-0.28453-0.13966-1.3521-0.13966-1.3521l-0.29891 0.214c-0.35771 0.28453-0.55616 0.78792-0.55616 0.78792s0.2058-0.03405 0.53656 0.08025" fill="#009b3a" stroke="#000" stroke-width=".37661"/></svg>