<svg viewBox="0 0 1e3 500" xmlns="http://www.w3.org/2000/svg" fill="#005da4"><path d="M0,0H1e3V500H0" fill="#ed1c24"/><path d="M0,0H1e3V333H0"/><path d="M0,0H1e3V167H0" fill="#fff"/><path d="m310 175l5-77c-41-20-88-20-129 0l5 77c2 35 26 65 59 75 34-10 57-40 60-75z"/><path d="m202 186c5 25 24 46 48 54 25-8 43-29 49-54l-24-32-10 12-15-29-14 29-10-12-24 32z" fill="#fff"/><path d="m204 194c4 8 14 10 22 6 5-3 11-3 16 0s11 3 16 0 12-3 17 0c7 4 17 2 22-6v5c-5 7-15 10-22 6-5-3-12-3-17 0-5 2-11 2-16 0-5-3-11-3-16 0-8 4-18 1-22-6v-5z"/><path d="m204 203c4 8 14 11 22 6 5-3 11-3 16 0s11 3 16 0 12-3 17 0c7 5 17 2 22-6v5c-5 8-15 10-22 6-5-3-12-3-17 0s-11 3-16 0-11-3-16 0c-8 4-18 2-22-6v-5z"/><g fill="#fd0"><polygon points="250 115 251 119 256 118 253 121 256 124 251 123 250 127 249 123 245 124 248 121 245 118 249 119"/><polygon points="232 91 233 95 237 94 234 97 237 100 233 99 232 103 231 99 227 100 230 97 227 94 231 95"/><polygon points="268 91 270 95 274 94 271 97 274 100 270 99 268 103 267 99 263 100 266 97 263 94 267 95"/></g><path fill="#ed1c24" d="m190 96l5 79c3 32 24 60 55 70 31-10 53-38 55-70l5-79c2 1 3 1 5 2l-5 77c-3 35-26 65-60 75-33-10-57-40-59-75l-5-77c1-1 3-1 4-2z"/></svg>