<svg viewBox="0 0 600 400" xmlns="http://www.w3.org/2000/svg" xmlns:xlink="http://www.w3.org/1999/xlink" fill="#fff"><defs><path id="a" transform="scale(21)" d="m0-1l0.58779 1.809-1.5388-1.118h1.9021l-1.5388 1.118z"/></defs><path d="M0,0H600V400H0" fill="#002395"/><path d="M0,0H244V164H0"/><path d="M0,0H80V160H0" fill="#002395"/><path d="M160,0H240V160H160" fill="#ED2939"/><path d="m355 183l12.875 20.5h36.625v71.5l-27.5-43-37 59h18l19-34 39 70 39-70 19 34h18l-37-59-27.5 43v-39.5h16.5l12.25-19.5h-28.75v-12.5h36.625l12.875-20.5h-122zm43 87.5h-40v14h40zm76 0h-40v14h40z"/><use x="416" y="362" xlink:href="#a"/><use x="371" y="328" xlink:href="#a"/><use x="461" y="328" xlink:href="#a"/><use x="333" y="227" xlink:href="#a"/><use x="499" y="227" xlink:href="#a"/></svg>