<svg viewBox="0 0 1400 700" xmlns="http://www.w3.org/2000/svg" xmlns:xlink="http://www.w3.org/1999/xlink"><path d="M0,0H1400V700H0" fill="#060"/><path d="M0,0H1400V500H0" fill="#fff"/><path d="M0,0H1400V200H0" fill="#c00"/><g fill="#f8c300"><path d="m672 340.7a12.5 12.5 0 0 1 23.3 5.9v50h9.4v-50a12.5 12.5 0 0 1 23.3 -5.9 29.5 29.5 0 1 0 -56 0"/><path d="m678.7 327.65a20 20 0 0 1 21.3 9.55 20 20 0 0 1 21.3 -9.55 21.5 21.5 0 0 0 -42.6 0" fill="#fff"/><path id="c" d="m695.3 376.63a38 38 0 0 1 -63.845 24.316 39.5 39.5 0 0 1 -59.734 17.467c3.6496 36.426 58.252 28.989 62.32-6.4288 17.154 30.115 54.873 21.49 65.91-15.4z"/><use transform="translate(700) scale(-1 1) translate(-700)" xlink:href="#c"/><path id="b" d="m658.84 441.31c-7.6181 16.446-22.845 19.271-36.164 5.9953 0 0 5.3539-3.7831 11.086-4.826-1.0748-4.5744 1.1291-10.902 4.2354-14.324 3.2575 2.2264 7.8036 6.6886 8.9598 11.874 8.0291-1.0394 11.883 1.2815 11.883 1.2815z"/><use transform="rotate(9.37 700 804)" xlink:href="#b"/><use transform="rotate(18.74 700 804)" xlink:href="#b"/><path d="m603 478a340 340 0 0 1 194 0" fill="none" stroke="#f8c300" stroke-width="16"/><g transform="translate(700,380)"><g transform="translate(0,-140)"><polygon id="a" transform="scale(4.8669e-5)" points="0 -5.1367e5 3.0193e5 4.1557e5 -4.8853e5 -1.5873e5 4.8853e5 -1.5873e5 -3.0193e5 4.1557e5"/></g><g id="d"><use transform="rotate(-30) translate(0,-140) rotate(30)" xlink:href="#a"/><use transform="rotate(-60) translate(0,-140) rotate(60)" xlink:href="#a"/><use transform="rotate(-90) translate(0,-140) rotate(90)" xlink:href="#a"/></g><use transform="scale(-1,1)" xlink:href="#d"/></g></g></svg>