<svg viewBox="0 0 1800 900" xmlns="http://www.w3.org/2000/svg" xmlns:xlink="http://www.w3.org/1999/xlink" fill="#fed100"><defs><g id="a" fill="#fff"><g id="b" transform="translate(0 -.32492)"><path d="M1,0H0V0.5z"/><path transform="rotate(-36,1,0)" d="M1,0H0V-0.5z"/></g><use transform="rotate(72)" xlink:href="#b"/><use transform="rotate(144)" xlink:href="#b"/><use transform="rotate(216)" xlink:href="#b"/><use transform="rotate(288)" xlink:href="#b"/></g></defs><path d="M0,0H1800V900H0" fill="#00247d"/><path d="m329.38 777.27c-17.934-0.14984 168.62-99.431 324.77-226.6 204.64-166.67 645.4-433.51 774.97-476.87 13.543-4.5322-27.776 23.073-33.14 32.015-138.34 163.74-27.925 472.72 144.97 628.05 51.99 39.763 49.327 41.851 145.71 45.746v9l-1357.3-11.34z"/><path d="m318.13 795.32s-13.163 9.4029-13.125 16.406c0.043 7.7725 14.766 18.047 14.766 18.047l1338.7 14.766 24.609-16.406-34.453-21.328-1330.5-11.484z"/><use transform="translate(342.96 112.58) scale(45)" xlink:href="#a"/><use transform="translate(521.2 267.53) scale(37.5)" xlink:href="#a"/><use transform="translate(135 321.81) scale(45)" xlink:href="#a"/><use transform="translate(342.96 652.58) scale(52.5)" xlink:href="#a"/></svg>