<svg viewBox="-60 -40 120 80" xmlns="http://www.w3.org/2000/svg" fill="#e70013"><path d="m-60-40h120v80h-120z"/><circle r="20" fill="#fff"/><path transform="matrix(.1 0 0 .1 -60 -40)" d="m600 250a150 150 0 0 0 -150 150 150 150 0 0 0 150 150 150 150 0 0 0 121.02 -61.648 120 120 0 0 1 -81.023 31.648 120 120 0 0 1 -120 -120 120 120 0 0 1 120 -120 120 120 0 0 1 81.014 31.674 150 150 0 0 0 -121.01 -61.674z" stroke-width="10"/><path transform="matrix(0 -9 9 0 4 0)" d="m0-1 0.58779 1.809-1.5388-1.118h1.9021l-1.5388 1.118z"/></svg>