<svg viewBox="0 0 1200 600" xmlns="http://www.w3.org/2000/svg" xmlns:xlink="http://www.w3.org/1999/xlink"><defs><clipPath id="c"><path d="M0,0V150H700V300H600zM0,300V400H300V0H600z"/></clipPath><clipPath id="z"><path d="m0 0h1200v600h-1200z"/></clipPath><path id="a" d="m0-50.081 29.437 90.597-77.066-55.992h95.259l-77.066 55.993z" fill="#ffce00"/><use id="b" transform="rotate(36)" xlink:href="#a"/></defs><path d="M0,0H1200V600H0" fill="#00247d"/><path d="M0,0 600,300M0,300 600,0" stroke="#fff" stroke-width="60" clip-path="url(#z)"/><path d="M0,0 600,300M0,300 600,0" clip-path="url(#c)" stroke="#cf142b" stroke-width="40"/><path d="M300,0V400M0,150H700" stroke="#fff" stroke-width="100"/><path d="M300,0V400M0,150H700" stroke="#cf142b" stroke-width="60"/><path d="M0,300H600V0H1200V600H0z" fill="#5b97b1"/><use x="645.3396" y="540.9936" xlink:href="#a"/><use x="788.0256" y="504.516" xlink:href="#b"/><use x="788.0256" y="382.5324" xlink:href="#b"/><use x="914.0304" y="473.6844" xlink:href="#b"/><use x="914.0304" y="208.2708" xlink:href="#b"/><use x="996.4416" y="390.0456" xlink:href="#a"/><use x="1019.928" y="172.0776" xlink:href="#b"/><use x="1102.836" y="321.5544" xlink:href="#a"/><use x="1102.836" y="87.486" xlink:href="#a"/></svg>