<svg viewBox="0 0 900 600" xmlns="http://www.w3.org/2000/svg"><path d="M0,0H900V600H0" fill="#d90000"/><path d="M0,0H900V200H0M0,300H900V500H0" fill="#fcdc04"/><path d="M0,0H900V100H0M0,300H900V400H0"/><circle cx="450" cy="300" r="93.5" fill="#fff"/><g stroke="#000"><path fill="#d90000" d="m433.52 228.39l-6.0644-11.17c2.3401-2.3401 6.2772-4.149 12.554-4.149 0 0.42563-0.63844 12.234-0.63844 12.234z"/><path fill="#fcdc04" d="m439.37 225.41l0.85125-12.341s12.554-0.74404 19.362 7.4468c0.1064-0.1064-6.702 9.5742-6.702 9.5742z"/><path fill="#d90000" d="m453.1 229.99l6.17-9.5742c4.149 4.3619 5.8508 7.4468 6.4892 12.128 0.10641 0.10641-9.787 2.4466-9.787 2.3401s-2.7658-4.7875-2.8722-4.8939z"/><path d="m436.61 388.07s11.596-13.298 34.149-10.425c-3.4042-5.5323-14.362-4.8939-14.362-4.8939s-3.4042-25.851-0.74484-27.128c2.6594-1.2769 13.936 0.10641 13.936 0.10641 1.4889 0 4.0426-4.0426 2.0217-6.5956-2.0217-2.5538-7.9789-12.341-5.5323-14.256 2.4474-1.9145 15.745 1.0641 15.745 1.0641l-37.553-48.085s-3.8298-18.085 3.8298-26.809c9.2558-7.6597 8.2981-15.958 7.9789-15.851-1.2769-8.4045-14.042-14.469-22.66-6.702-5.1067 6.17-1.7025 10.851-1.7025 10.851s-13.404 3.617-13.936 5.9572c-0.53203 2.341 15.107-0.42481 15.107-0.42481l-1.4897 10.745s-30.426 27.659-7.1276 51.596c0.21282-0.10641 0.74485-1.0641 0.74485-1.0641s8.1917 10.107 16.808 12.341c8.0853 8.2981 7.3413 7.0212 7.3413 7.0212s1.5953 13.086 0.10641 15.639c-2.0217-0.63844-22.66-1.3825-25.746-0.21281-2.7658 0.85126-13.404 0.31922-10.745 17.66 2.0209-4.6811 3.8298-8.8302 3.8298-8.8302s-0.31922 6.2764 2.2345 8.5109c-0.42563-6.5964 2.4465-11.064 2.4465-11.064s0.53204 7.234 2.1273 8.2973c1.5961 1.0641 1.5961-11.702 10.426-10.638 8.8293 1.0641 15.213 0.74485 15.213 0.74485s2.9786 25 2.0209 27.341c-6.3836-1.4897-21.596 0.63844-22.553 4.4683 8.9357-0.53204 13.086 0.53122 13.086 0.53122s-7.234 6.3836-5.0003 10.107z"/><path fill="#9ca69c" stroke="#9ca69c" d="m440.19 251.66s-22.139 24.402-12.588 43.075c0.50848-2.6041 0.28673-4.24 0.60595-4.1336-0.53203-0.31922 2.7455 2.2467 2.4961 1.7472 0.06986-1.35-0.99827-4.2433-0.99827-4.2433 0.99827 0.24936 1.9974 0.49954 2.9956 0.7489-0.5824-1.0819-1.1656-2.1631-1.748-3.245 1.415 0.16652 2.8291 0.33222 4.2441 0.49873 0 0-1.4978-3.9939-0.99828-3.9939 0.49874 0 3.4944 0.24937 3.4944 0.24937-6.2959-11.299-0.35658-20.682 2.4961-30.704z"/><path fill="#9ca69c" stroke="#9ca69c" d="m447.88 230.73s1.1705 8.4045-3.4042 10.851c-0.74484 0.53203-3.617 1.4897-3.1914 3.1922 0.53203 2.3401 1.8081 1.9145 3.617 1.4889 4.7867-0.85125 10.319-11.064 2.9786-15.532z"/><circle fill="#fff" cx="438" cy="238" r="1.8" stroke="none"/><path fill="#d90000" d="m432.56 244.99c-1.1705 0.95766-7.3404 7.3413-1.2769 9.6814 6.2772-1.7025 4.5747-2.8722 5.958-4.2555 0.03574-2.8722-3.1207-3.617-4.6811-5.4259z"/><path fill="#9ca69c" stroke="#9ca69c" d="m445.97 305.31c-0.31922 1.3833-1.7017 6.4892 0.21281 10.425 5.3195-2.2337 7.7661-1.5961 9.575-0.42562-4.361-3.5106-6.0636-5.0003-9.7878-9.9998z"/><path fill="#fff" stroke="#fff" d="m455.12 329.46l0.31922 11.915s4.1491 0.74485 6.0636 0c1.9153-0.74485-0.10641-8.2981-6.3828-11.915z"/><path fill="#9ca69c" d="m485.22 330.94s-7.6597-18.511-27.234-23.192c-19.575-4.6811-17.022-25.532-15.426-26.809 0.85126-1.8089 1.4897-4.5747 7.1276-1.9145 5.6388 2.6594 31.596 15.744 35.32 16.383 3.7234 0.63844 0.53203 35.958 0.21281 35.533z"/><path fill="#d90000" d="m466.61 307.65c-0.31922 0.21281 26.17 15.638 18.192 28.936 7.5541-5.0003 5.1067-13.723 5.1067-13.723s6.17 16.064-8.8301 23.937c1.5961 1.3833 2.6602 1.0632 2.6602 1.0632l-2.5538 2.5538s-1.1705 1.9145 8.9366-2.9794c-2.7666 2.2346-2.9786 3.8298-2.9786 3.8298s0.74404 2.1281 7.3404-3.617c-5.3195 5.7452-6.49 8.7237-6.49 8.6173 14.362-1.2769 45.639-47.979-9.8934-61.809 2.9794 3.0858 2.553 2.6602 2.553 2.6602z"/><path fill="#fff" d="m467.78 303.07c3.617 2.553 4.8931 3.4042 5.3187 4.6811-3.2978-0.74404-6.2764-0.53204-6.2764-0.53204s-7.1276-6.8084-8.4045-7.3404c-0.95766 0-6.4892-3.5106-6.4892-3.5106-2.7658-1.3833-5.3187-10.957 4.8939-8.1917 10.531 4.9995 12.021 5.4259 12.021 5.4259 4.1848 1.3118 8.3688 2.6244 12.554 3.9362 2.4116 2.6951 4.8224 5.3902 7.234 8.0853 0 0-12.872-6.3836-14.468-6.49 3.5106 2.8722 5.5323 6.8084 5.5323 6.8084-4.0784-1.1705-7.6239-2.2337-11.915-2.8722z"/><path stroke="#fff" d="m417.67 245.94s12.341-2.9786 13.83-2.553"/></g></svg>