<svg viewBox="0 0 950 570" xmlns="http://www.w3.org/2000/svg" xmlns:xlink="http://www.w3.org/1999/xlink"><path d="M0,0H950V570H0" fill="#009543"/><path d="M0,0H950V285H0" fill="#d21034"/><path d="m0 0l552.81 285-552.81 285z"/><path d="M0,234H950V336H0"/><g fill="#fdce12"><path d="m0 40.502l474.25 244.5-474.25 244.5z"/><path d="M0,270H950V300H0"/></g><path d="m0 74.255l408.78 210.75-408.78 210.74z"/><path d="m115.48 339.52v32.476c28.253 0 83.7-21.65 83.7-91.356s-59.144-82.644-76.835-82.644c-17.69 0-72.346 12.674-72.346 69.706s53.6 62.313 64.161 62.313 50.167-9.506 45.679-52.28c0 12.146-13.73 37.758-42.511 37.758-28.78 0-46.734-21.388-46.734-42.51 0-21.124 17.426-49.376 47.79-49.376s52.543 26.931 52.543 54.128c0 27.196-21.386 61.785-55.447 61.785z" fill="#fdce12"/><g id="a" fill="#fdce12"><path d="m90.728 297.24l1.683 1.089s13.367-30.496 49.309-52.18c-4.555 2.475-28.615 14.456-50.992 51.091z" stroke="#fdce12"/><path d="m94.193 292s-4.158-8.515-0.495-12.277c3.664-3.763 1.981 10 1.981 10l1.584-2.277s-2.476-10.397 0.297-12.575c2.772-2.178 1.386 10 1.386 10l1.683-2.178s-1.782-10.099 0.891-11.981c2.674-1.881 0.991 9.506 0.991 9.506l1.98-2.278s-1.485-9.604 1.782-11.881c3.268-2.278 0.396 9.109 0.396 9.109l2.178-2.376s-0.99-8.813 1.783-10.793c2.772-1.98 0.396 8.317 0.396 8.317l1.98-2.079s-0.594-8.218 2.079-10.099c2.674-1.882 0.198 7.822 0.198 7.822l2.08-1.981s-0.495-8.218 2.871-9.802-0.594 7.723-0.594 7.723l2.277-1.98s0.693-9.604 3.565-10.496c2.871-0.891-1.287 8.516-1.287 8.516l2.079-1.684s1.089-8.218 4.257-9.208c3.169-0.99-1.98 7.525-1.98 7.525l2.079-1.584s2.278-8.218 5.248-9.109c2.971-0.891-3.069 7.723-3.069 7.723l1.98-1.386s3.267-7.427 5.941-7.922c2.673-0.495-2.971 6.139-2.971 6.139l2.476-1.485s4.257-7.723 5.743-5.347c1.485 2.377-5.941 5.842-5.941 5.842l-2.476 1.386s9.011-4.257 10.1-2.079-12.377 3.565-12.377 3.565l-2.178 1.485s9.01-2.476 7.921-0.198c-1.089 2.277-10 1.782-10 1.782l-2.08 1.485s9.01-2.178 7.822-0.099-10 1.881-10 1.881l-2.178 1.783s8.812-2.278 7.525 0.396c-1.288 2.673-11.288 2.574-11.288 2.574l-2.475 2.277s9.307-3.168 8.515-0.693c-0.792 2.476-11.387 3.763-11.387 3.763l-2.376 2.376s10-3.366 7.03-0.297c-2.97 3.07-10.198 3.862-10.198 3.862l-2.872 3.465s9.902-5.941 8.515-2.574c-1.386 3.366-11.089 5.644-11.089 5.644l-1.98 2.376s8.911-5.149 8.02-2.277c-0.891 2.871-10.397 5.94-10.397 5.94l-1.584 2.179s10.495-6.238 9.604-3.07c-0.891 3.169-10.891 5.446-10.891 5.446l-1.287 1.98s9.703-5.544 9.802-2.871-11.387 5.347-11.387 5.347l-0.198-2.278z"/></g><use transform="translate(238.5) scale(-1,1)" xlink:href="#a"/></svg>