<svg viewBox="0 0 2100 1400" xmlns="http://www.w3.org/2000/svg"><path d="M0,0H2100V1400H0" fill="#198a00"/><path d="M1350,500H2100V1400H1350" fill="#ef7d00"/><path d="M1350,500H1850V1400H1350"/><path d="M1350,500H1600V1400H1350" fill="#de2010"/><g fill="#ef7d00" stroke="#000" stroke-linecap="round" stroke-linejoin="round" stroke-width="2.25"><path d="m1916.4 168.33s86.002-33.706 94.335-40.656c3.7896 4.1698-34.476 46.563-108.73 62.2 67.436-14.595 125.02-60.463 136.77-59.073 3.4099 0.695 2.6504 44.826-151.92 83.049 106.84-25.714 168.97-72.972 168.21-67.76 0.7576 1.0424-10.607 37.181-104.18 65.327 26.142-5.5606 96.987-45.173 96.23-37.528 2.2726 3.1273-68.573 86.524-196.63 59.421 102.29 24.324 168.59-34.402 178.06-33.359 1.8948 0.34745-18.944 51.428-147.75 54.555 61.755-5.9067 43.946-0.34821 43.946-0.34821s-36.371 26.061-80.318 8.3412c34.476 8.6878 38.264 9.0343 39.022 11.813-2.2727 3.474-30.687 8.6878-57.964-4.8654 21.972 8.3395 41.674 9.7309 42.052 12.858-0.3779 1.0413-14.395 8.3395-26.897 3.1275-12.502-5.2137-127.68-70.193-127.68-70.193l196.25-49.343z"/><path d="m1685.7 344.11c-17.257 0-17.733 14.085-17.733 14.085s-1.4243 1.0171-0.4742 7.8439c2.8489-4.6488 4.2752-6.1008 4.2752-6.1008 1.9004 0.29114 9.8158 2.4691 22.324-6.534-11.401 10.89-4.5906 14.957-4.5906 14.957s-2.6918 8.5682 6.0151 10.311c-2.6902-3.4862-1.1071-6.5357-1.1071-6.5357s12.19-1.1609 11.399-14.811c0.476 12.342 7.7585 15.391 7.7585 15.391s0 6.8251 7.9154 7.4073c-4.2731-3.4862-3.3249-8.8592-3.3249-8.8592s10.292-6.8251 1.5832-18.443c5.2252-2.7603 9.5003-10.455 9.5003-10.455s-7.1238-2.7602-10.449-5.082c-1.585-3.0513-0.1586-19.751-0.1586-19.751l-4.2752-21.638-12.192 33.692c0.4741-4.7927 0.7916 14.522-16.466 14.522z"/><path d="m1770.9 295.51c0.3778 0.3483 12.882 13.207 25.004 12.51 4.5451-3.4741-9.4721-11.119-9.4721-12.857 4.9249 4.1705 25.762 20.501 39.023 14.594 5.3027-6.9498-9.472-5.9068-25.764-24.672 11.365 6.9498 39.781 22.239 53.041 16.332 5.6843-5.5602-29.551-22.936-41.296-36.487l-30.307-14.246-41.296 30.927z"/><path d="m1724.3 189.88s14.017-7.6446 70.088-3.8223c6.0622 0.6948 38.264-10.077 48.494-13.204 16.29-2.7799 68.193-13.205 82.212-22.934 9.8499-1.0423-2.6542 16.68-15.154 20.849-13.262 5.5599-61.376 20.849-78.425 18.764 20.459 0.34762 9.0943 15.637-25.004 8.3396 16.292 8.3396 10.23 9.7296 10.23 9.7296s-28.792 1.39-36.369-4.5173c19.322 6.6023 11.365 9.0346 11.365 9.0346s-19.7 1.7374-28.794-2.0849c14.017 3.8223 6.8197 6.2549 6.8197 6.2549s-11.365 1.7374-20.837-1.39c-9.4702-3.1274-23.867-25.019-24.625-25.019z"/><path d="m1746.8 302.72l2.0591 33.982s-1.1089 1.7431-2.0591 2.7602c-0.9503 1.0154-26.283-3.6317-22.8 14.085 0 7.2618 0.1587 9.1487 5.5427 13.215-1.4263-4.7926-0.9502-8.1315-0.9502-8.1315s7.1238 3.9211 14.091-6.8251c-4.7493 10.601-1.4264 14.376-0.3174 14.667 1.1089 1.8886-1.8986 10.455 7.5999 10.31-3.6403-3.1951-1.8986-7.8422-1.8986-7.8422s9.9746-1.4502 6.491-18.006c3.6422-3.3407 5.0666-0.14554 5.0666-0.14554s1.1071 9.8746 9.8159 7.8422c3.9596 2.0324-0.6328 7.4055-0.6328 7.4055s6.3322 0.14562 8.2327-4.7926c1.9005-4.9364 4.1164-13.796-6.3342-17.426-1.2657-3.4844 4.1183-3.7756 4.1183-3.7756s6.6496 2.0324 8.5482 5.0821c1.9005 3.0495 1.2676-7.9861-6.9652-9.1487-10.133-0.29105-10.766-2.178-10.766-2.6129 0-0.43658-1.7418-24.687-2.5333-31.658z"/><path d="m1782.1 331.67c0.1246-1.5577-17.285-23.059-12.869-25.838 4.4148 0.83336 11.656 10.613 17.522 7.4384-1.7777-3.8119-7.018-1.6651-12.969-11.424-5.9488-11.032-6.8178-27.593-27.655-45.658 13.49 19.117 44.092 30.322 45.388 24.748 1.2959-5.5741-26.946-26.652-25.499-31.733 5.6163 10.433 33.974 33.678 54.867 31.753 1.432-4.4756-17.11-13.508-21.882-21.943-13.347-8.2234-49.064-36.462-49.78-43.011-12.997-17.387-21.111-22.646-24.889-24.649-1.4603-1.5776-1.8267-3.0858-2.112-4.0446-8.0684-17.446 2.6183-23.111 8.8732-23.949 5.1478-0.5247 6.6421 0.1821 10.347-1.4632-4.3866-1.5739-8.7712-3.0458-13.156-4.6197 5.7184 3.8472 20.325 0.4601 17.159 11.541 6.4041-2.2348 20.03-17.104-15.444-20.46-11.544-12.147-59.008-19.128-70.889 33.888 0.9483 0.74329 1.4451 1.3541 4.464 3.4219-14.988-6.6634-55.421-11.802-69.992-13.961-39.364-10.417-80.244-35.52-84.174-32.433-5.256 2.1397 23.783 26.919 22.274 27.468-25.18-13.466-48.182-23.006-69.585-31.687-15.057-5.1625-30.139-17.182-31.802-14.896-5.5416 10.529 24.141 36.996 29.662 40.11 5.5229 2.9782 48.947 21.453 48.307 21.684-65.405-27.229-76.371-32.165-79.653-35.304-5.7647-1.1909-19.807-18.581-23.721-17.463-2.1425 1.9306 2.1546 29.409 33.365 41.743 5.0871 3.4006 66.9 23.739 66.295 25.334-0.1512 0.39848-70.798-26.744-73.542-27.714-13.621-4.8989-30.334-22.071-33.459-20.14-2.9822 1.7522 7.7047 20.338 21.468 26.168 7.2143 2.92 34.887 15.491 59.818 23.492 1.5912 0.52777-44.814-16.141-67.126-24.692-10.116-5.1497-14.88-11.569-16.421-10.188-2.2793 1.3809 3.6824 28.837 75.38 44.33 1.889 0.73742 25.238-5.0733 24.084-4.3026-0.2887 0.19273-23.186 4.7647-25.415 4.6085-1.9841-0.27796-14.528 1.362-14.755 1.9583-0.7579 1.8572 4.5448 11.688 41.564 9.6381 4.7326-0.26095 30.415-8.5784 28.258-6.7892-1.0789 0.89511-34.973 10.997-37.554 11.196-2.242 0.29055-14.149 1.4326-14.589 2.5942-0.5376 1.5842 8.8133 8.581 28.694 9.702 17.602 0.85769 51.049-9.8647 50.378-9.1696-0.6711 0.69506-32.244 10.618-33.07 11.223-1.1424 0.59258-12.704 1.1678-13.11 1.9822-0.9421 2.0256 16.677 17.138 68.786 1.0102-5.2348 6.4855-30.493 10.921-30.457 12.089-0.1171 0.84731 5.5647 5.8825 14.395 7.6846 4.415 0.90098 10.46 0.71726 15.982-0.08319 9.918-1.8211 20.37-5.4199 33.651-16.677 1.587 3.533-33.175 19.668-31.542 21.206 7.5376 6.411 32.576-0.82647 34.216-1.6668 1.6416-0.84212 48.216-24.93 48.055-27.718 0.7236 3.5728-60.045 33.859-59.39 35.101 3.901 5.7092 24.66-0.29982 25.652-0.82477 0.99-0.52334 26.493-13.16 27.192-13.532 0.6972-0.37253-29.973 16.464-27.241 19.027-1.3205 10.933 47.898-7.5458 51.756-9.8469 1.9288-1.1505-23.644 10.313-23.712 15.759 8.2348 12.77 34.603 8.719 38.67 5.9102 2.0346-1.4052-2.3935 9.4865-0.9672 8.4972 0.4969-0.20446 5.7354-5.886 7.7492-9.9977-0.6424 3.5677-3.5327 9.1885-5.2197 15.638-1.6888 6.4491-2.1725 13.726-4.4903 21.458-0.531 3.396 16.248-6.6396 13.811-30.631 1.4358 12.479-5.2989 35.813-3.5365 37.026 3.5252 2.4258 13.271-11.621 14.255-21.12 2.8942 4.7978 8.9677 14.813 14.193 17.117-0.5686-7.2582 0.1001-6.9255-2.2518-14.059 1.3563-9.4708 1.5453-22.579 1.8739-37.379 14.199 24.947 19.862 35.482 15.895 54.587 4.2221 1.6148 10.966-13.335 10.422-21.03 5.4218 21.381 28.824 24.587 29.196 23.965z"/><path d="m1545.6 173.29s-9.6643 6.6972-21.691 6.3034c3.0066 11.031 27.919 2.5607 27.919 2.5607s-12.026 12.213-20.617 14.182c5.1542 3.9395 26.845 2.5608 30.497 0.59104 3.6499-1.9698 10.094-9.6519 10.094-9.6519s-22.336 23.637-25.557 23.44c-0.4296 2.7576 23.409 1.7727 28.349-2.3637 4.9382-4.1366 17.395-10.243 17.395-10.243s-32.644 20.879-34.148 20.879c12.242 2.9548 36.724-3.5456 52.402-12.41-23.195 14.182-25.341 16.743-37.153 21.47 10.524 2.1669 15.891 8.6673 51.543-5.5153 20.402-8.8637 31.998-25.016 31.998-25.016-12.67 15.561-32.644 28.76-54.762 41.76-1.2903 2.3634 23.621 12.014 55.406-18.319"/><path d="m1718.2 239.08s2.1478 9.2578 10.738 16.35c8.5918 7.0902 9.236 13.985 9.236 13.985"/><path d="m1713.9 178.8s3.0056 8.2729 11.811 13.591c9.0206 5.3183 22.552 22.061 23.625 25.016 1.039 3.5761 6.2265 29.35 5.7978 32.107"/><path d="m1659.2 191.61c0.6441 3.1516-12.672 19.107 5.5823 37.82-16.537 18.515-16.535 20.88-16.535 20.88s9.2339 4.7268 25.771-8.2736c27.273 30.729 18.185 44.792 18.185 44.792"/><path d="m1690 265.13s-2.5125-3.3008 1.9666-15.627c4.0332 4.4565 8.518 5.4077 10.485 7.2115 1.9646 1.8037 22.558 4.538 23.867 17.161"/><path d="m1714.2 149.43c0-0.9273-4.1466-9.0883-19.616 1.1129 8.2913 0.4635 16.481 4.8223 19.616-1.1129z"/><path d="m1861.9 186.75c0.7575 0.34736 46.221 9.3821 61.376 4.8648-19.322 23.629-57.966 7.6446-57.966 7.6446 18.942 5.2123 19.702 4.8649 25.762 9.7296 1.8948 4.5173-34.854 2.4324-46.978-3.8223 33.719 9.7297 34.476 9.0347 35.614 12.857 1.5171 5.2123-55.313-1.39-60.238-8.3396 15.154 10.772 23.489 12.857 31.824 17.722-10.23 4.17-29.172 8.339-64.028-14.247 45.841 38.223 87.137 35.791 93.579 42.74-15.912 21.544-77.667-12.857-106.08-30.231-28.414-17.374 62.133 42.046 70.47 41.003-4.1692 5.9067-34.098 0.6948-35.993-2.0844"/><path d="m1873.6 226.71c-5.3028 0.69497-21.215 0.69497-23.487 0.34744"/><path d="m1532.3 166.98s34.576 16.743 49.179 15.561c-3.8651 3.3486-9.6647 4.7275-9.6647 4.7275 3.6517 1.3789 13.745 6.3033 28.994 3.1516-3.6516 3.3486-8.3763 7.0914-8.3763 7.0914s13.101 4.5303 27.919-2.5609c-4.5093 5.1213-7.088 8.8641-7.088 8.8641l10.309 0.59087"/></g></svg>