<svg viewBox="0 0 840 420" xmlns="http://www.w3.org/2000/svg" xmlns:xlink="http://www.w3.org/1999/xlink"><path d="M0,0H840V420H0" fill="#006400"/><path d="M0,60H840V360H0" fill="#ffd200"/><path d="M0,120H840V300H0" fill="#d40000"/><path d="M0,180H840V240H0"/><path d="m0 0v420l280-210z" stroke="#000" stroke-width="20"/><path d="m0 0v420l280-210z" fill="#fff"/><path d="m106.52 104.41l55.459 170.68-145.19-105.49h179.47l-145.19 105.49z" fill="#d40000"/><path d="m82.77 253.66l9.8005-1.7819 18.175-0.71276 6.6822 0.62366 14.968 2.4947 1.1582-1.5146v-10.781l1.6928-9.2659 3.1183-9.4441 3.2074-7.484 4.1875-7.7513 6.8603 1.6928h1.7819l0.17819-1.3364-14.344-12.295-15.057-11.493-21.65-16.215-1.9601-0.53458-2.4056-16.928-1.6928-5.1675-2.2274-1.9601-4.3657-1.4255-4.8112 0.17819-2.1383 1.2473-4.633 1.0692-2.4056 0.35638-1.6037 1.871-0.17819 2.4056 6.6822 0.17819 1.6928 0.71276-0.17819 0.71277-3.8311 0.53457-1.7819 0.53457 2.1383 1.6037 2.1383 0.80186 2.851 1.0692 0.53457 1.871 0.26729 25.927-1.5146 4.0093-0.53458 7.484 2.2274 8.9986-5.613 6.3258-3.1183 5.7021-0.53457 3.5638-1.6928 3.4747-0.26729 2.2274 1.1582 2.3165 4.2766 14.255 2.2274 11.671z" fill="#fc0"/><path d="m87.956 141.92c-1.7151-0.00107-2.5382 0.29522-4.2375 1.2188-1.534 0.83372-3.3537 1.3875-4.5938 1.3875-2.5209 0-4.5562 1.8094-4.5562 4.0688v1.5l3.675-0.1125c10.534 0.35236 0.91676 1.3234 0.15 1.4625-2.6152 0.47448 0.58013 2.6076 3.6562 3.6375 3.31 1.1082 3.1688 0.46693 3.1688 14.981 0 11.917-0.10328 13.603-1.0125 16.35-1.3347 4.0321-1.3347 10.025 0 13.969 0.53945 1.594 0.98465 3.0798 0.99375 3.3 0.0091 0.22021-1.5589 2.1693-3.4875 4.3312-3.4831 3.9045-5.625 8.095-5.625 11.025 0 0.67457-0.45485 1.8131-1.0125 2.55-1.2864 1.6999-1.3234 4.6265-0.075 5.7375 1.295 1.1525 6.642 21.793 6.6562 25.688 0.00519 1.4202 0.25897 1.4116 8.3812-0.225 6.5572-1.3212 22.059-1.6018 29.906-0.54375 3.6247 0.48874 7.8415 1.2 9.375 1.5938 4.8299 1.2401 4.5636 1.4954 4.575-4.3312 0.01761-9.0087 1.6595-17.576 5.1375-26.738 1.5822-4.1677 5.7412-12.631 6.8438-13.931 0.10899-0.12855 1.8804 0.19882 3.9375 0.73125 4.2085 1.0893 5.3625 0.88589 5.3625-0.9375 0-1.0439-4.296-4.6256-25.331-21.094-14.174-11.096-25.799-19.838-26.381-19.838-0.57215 0-1.1499-0.29398-1.275-0.65625-0.12511-0.36226-0.79337-4.652-1.5-9.5438-0.70663-4.8917-1.661-9.7222-2.1188-10.725-1.3385-2.9319-4.1101-4.4864-8.5312-4.7812-0.83668-0.05581-1.5096-0.07465-2.0812-0.075zm0.15 1.05c0.55159-0.00668 1.1726 0.01643 1.9312 0.05625 6.6408 0.34856 7.8972 2.1811 9.6375 13.988 0.67541 4.5822 1.2316 8.8195 1.2375 9.4312 0.00773 0.79479-0.9152 1.7348-3.2438 3.3-3.4289 2.3049-7.8542 6.5089-10.012 9.4875l-1.2938 1.7625-0.24375-4.1438c-0.14228-2.2779-0.14224-7.5937 0-11.812 0.29398-8.7194 0.06556-9.5802-2.7938-10.538-2.3342-0.78151-5.3809-1.6218-4.4812-2.1562 0.98219-0.58355 1.8912-0.16655 4.3875-0.7875 0.88402-0.21989 0.83605-0.18256 0.69375-0.9375-0.25632-1.3599-1.5841-1.984-5.3438-1.7812-2.9526 0.15923-3.3313 0.08261-3.1312-0.7125 0.40438-1.6072 2.0754-2.6629 4.5562-2.9062 1.3357-0.13105 3.2838-0.7227 4.35-1.3125 1.18-0.65272 2.0952-0.91747 3.75-0.9375zm14.869 25.875c0.13955-0.0023 0.27014-6.7e-4 0.39375 0.01875 1.7019 0.26741 50.794 38.649 50.794 39.712 0 0.42078-0.39331 0.7576-0.88125 0.75-0.48795-0.00759-12.982-3.5464-27.75-7.8562-23.6-6.8876-26.994-8.0126-28.012-9.2438-1.4479-1.7496-1.4963-4.4212-0.13125-6.225 0.55766-0.73687 1.0125-1.6426 1.0125-2.025 0-1.1659-2.5022 1.8078-2.9812 3.5438-0.55994 2.0293 0.48332 5.4249 2.0062 6.525 0.60181 0.43472 5.1002 1.9807 9.9938 3.4312 8.3519 2.4757 8.9128 2.7423 9.3562 4.125 1.0646 3.3197-2.443 7.1735-7.5188 8.2688-1.6368 0.35318-3.7185 1.3168-5.1562 2.4-5.7156 4.306-9.6953 6.8503-13.031 8.2875-1.9617 0.84514-3.8566 1.8001-4.2 2.1375s-0.84423 1.8737-1.125 3.4125c-0.59624 3.2678-0.84912 3.7688-1.8188 3.7688-0.56121 0-0.61147-0.29348-0.225-1.35 0.71281-1.9487 0.635-4.4438-0.15-4.4438-0.41522 0-0.675 0.69431-0.675 1.8562 0 1.0143-0.28628 2.1315-0.65625 2.4938-0.55603 0.54445-0.62617 0.14194-0.39375-2.3625 0.15463-1.6664 0.08706-3.0375-0.15-3.0375-0.4548 0-1.3483 2.5255-1.6688 4.7438-0.18788 1.3007-0.19901 1.2901-0.61875-0.24375-0.32779-1.1979-0.16867-2.0014 0.675-3.525 0.60175-1.0868 1.1062-2.6674 1.1062-3.525 0-1.2919 0.95217-2.5413 5.625-7.275 3.1019-3.1423 6.7141-7.0415 8.025-8.6625 2.2683-2.8049 2.3878-3.1026 2.3062-5.9438-0.04716-1.642-0.237-3.1176-0.4125-3.3-0.59248-0.61581-1.3819 2.5586-1.0688 4.2938 0.28312 1.5686-0.00936 2.1032-3.2812 5.9625-1.975 2.3296-5.3297 5.842-7.4438 7.8188-3.8942 3.6414-5.2875 5.6094-5.2875 7.4625 0 0.56237-0.43635 2.0495-0.975 3.3-0.53866 1.2505-0.83632 2.5286-0.675 2.8312 0.18059 0.3388 0.05193 0.3164-0.31875-0.0375-0.43893-0.41907-0.47421-1.1955-0.1125-2.8688 0.27286-1.2622 0.38508-2.4811 0.24375-2.7188-0.54382-0.91457-1.1814 0.2596-1.5 2.7562-0.18271 1.4316-0.52514 2.4815-0.76875 2.325-0.73334-0.47108-0.50194-3.0771 0.39375-4.4062 0.46158-0.68495 1.0376-2.3167 1.275-3.6375 0.66583-3.7044 2.2575-6.6448 5.7938-10.65 1.7822-2.0186 3.2438-3.7454 3.2438-3.8438 0-0.09833-0.47504-1.5882-1.05-3.3-1.3294-3.958-1.4175-9.9856-0.20625-13.65 1.2765-3.8616 3.9064-7.6845 8.0625-11.719 4.0224-3.9044 7.8443-6.3405 9.9375-6.375zm15.019 32.175a0.85942 0.57294 0 0 1 0.99375 0.5625 0.85942 0.57294 0 0 1 -1.7062 0 0.85942 0.57294 0 0 1 0.7125 -0.5625zm2.475 0.31875a0.85942 0.57294 0 0 1 0.01875 0 0.85942 0.57294 0 0 1 1.0125 0.58125 0.8625 0.575 0 0 1 -1.725 0 0.85942 0.57294 0 0 1 0.69375 -0.58125zm2.625 0.4875a0.85942 0.57294 0 0 1 0.09375 0 0.85942 0.57294 0 0 1 0.91875 0.58125 0.85942 0.57294 0 0 1 -1.7062 0 0.85942 0.57294 0 0 1 0.69375 -0.58125zm2.3625 0.4875a0.85942 0.57294 0 0 1 0.1125 0 0.85942 0.57294 0 0 1 0.91875 0.58125 0.8625 0.575 0 0 1 -1.725 0 0.85942 0.57294 0 0 1 0.69375 -0.58125zm-6.3 0.58125a0.85942 0.57294 0 0 1 0.01875 0 0.85942 0.57294 0 0 1 1.0125 0.58125 0.8625 0.575 0 0 1 -1.725 0 0.85942 0.57294 0 0 1 0.69375 -0.58125zm2.475 0.4125a0.85942 0.57294 0 0 1 1.0125 0.5625 0.8625 0.575 0 0 1 -1.725 0 0.85942 0.57294 0 0 1 0.7125 -0.5625zm5.1938 0.20625a0.85942 0.57294 0 0 1 1.0125 0.5625 0.8625 0.575 0 0 1 -1.725 0 0.85942 0.57294 0 0 1 0.7125 -0.5625zm-2.7375 0.0375a0.85942 0.57294 0 0 1 1.0125 0.5625 0.8625 0.575 0 0 1 -1.725 0 0.85942 0.57294 0 0 1 0.7125 -0.5625zm5.0625 0.58125c0.07636-0.1124 3.675 0.80266 7.9875 2.0438l7.8375 2.25-1.5188 2.7c-0.83578 1.4796-1.8905 3.4644-2.3438 4.4062-0.92014 1.9123-1.2467 1.9455-5.9625 0.8625-5.2154-1.1978-13.459-2.3354-21.844-3.0188l-8.0625-0.65625 3.0375-1.1438c1.673-0.63397 4.0783-1.7203 5.3438-2.4188 1.9854-1.0957 2.7859-1.2366 5.8312-1.0125 4.5218 0.33281 7.5693-0.50139 8.7-2.3812 0.47252-0.7856 0.91739-1.5188 0.99375-1.6312zm-8.85 0.5625a0.85942 0.57294 0 0 1 0.01875 0 0.85942 0.57294 0 0 1 1.0125 0.58125 0.8625 0.575 0 0 1 -1.725 0 0.85942 0.57294 0 0 1 0.69375 -0.58125zm5.6438 0a0.85942 0.57294 0 0 1 0.01875 0 0.85942 0.57294 0 0 1 1.0125 0.58125 0.8625 0.575 0 0 1 -1.725 0 0.85942 0.57294 0 0 1 0.69375 -0.58125zm-8.1 0.075a0.85942 0.57294 0 0 1 0.1125 0 0.85942 0.57294 0 0 1 0.91875 0.58125 0.8625 0.575 0 0 1 -1.725 0 0.85942 0.57294 0 0 1 0.69375 -0.58125zm5.3438 0.09375a0.85942 0.57294 0 0 1 1.0125 0.5625 0.8625 0.575 0 0 1 -1.725 0 0.85942 0.57294 0 0 1 0.7125 -0.5625zm-6.5625 1.1812a0.85942 0.57294 0 0 1 0.01875 0 0.85942 0.57294 0 0 1 0.99375 0.58125 0.85942 0.57294 0 0 1 -1.7062 0 0.85942 0.57294 0 0 1 0.69375 -0.58125zm2.4562 0.0375a0.85942 0.57294 0 0 1 0.09375 0 0.85942 0.57294 0 0 1 0.91875 0.58125 0.85942 0.57294 0 0 1 -1.7062 0 0.85942 0.57294 0 0 1 0.69375 -0.58125zm2.625 0.09375a0.85942 0.57294 0 0 1 1.0125 0.5625 0.8625 0.575 0 0 1 -1.725 0 0.85942 0.57294 0 0 1 0.7125 -0.5625zm2.775 0.075a0.85942 0.57294 0 0 1 0.01875 0 0.85942 0.57294 0 0 1 0.99375 0.58125 0.85942 0.57294 0 0 1 -1.7062 0 0.85942 0.57294 0 0 1 0.69375 -0.58125zm-20.306 8.0812c3.431-0.10968 15.409 0.75887 21.094 1.6125 5.0031 0.7513 13.767 2.3779 14.062 2.6062 0.0737 0.05692-0.67706 2.4552-1.6875 5.325-1.0104 2.8698-1.9317 5.5491-2.0438 5.9438-0.1529 0.53852-0.76866 0.62221-2.475 0.35625-8.3311-1.2985-32.336-1.1808-41.569 0.20625-5.2489 0.78851-6.0199 0.73105-5.5688-0.375 0.20689-0.50717 0.64571-2.0947 0.975-3.5438l0.6-2.6438 5.5688-2.8875c3.0609-1.594 6.4719-3.6255 7.575-4.5188s2.2538-1.7797 2.5688-1.9688c0.09854-0.05916 0.40986-0.09683 0.9-0.1125zm-26.962 14.231c0.24988-2.5e-4 0.87476 0.28814 1.5938 0.75 0.9391 0.60325 2.1378 1.0998 2.6625 1.1062 2.6122 0.03208 4.0476 3.7121 6.2625 16.069 0.31168 1.7388 0.67827 3.6656 0.80625 4.2938 0.20393 1.001-0.0823 1.2251-2.325 1.725-2.8348 0.63189-3.525 0.67817-3.525 0.3 0-1.0612-2.8186-13.721-4.05-18.188-0.8388-3.0424-1.5375-5.7209-1.5375-5.9625 0-0.0302 0.01466-0.06115 0.0375-0.075 0.01999-0.01212 0.0393-0.01871 0.075-0.01875zm28.612 1.8562h2.8688l-0.95625 1.0875c-1.6981 1.9503-2.5093 2.1355-3.6938 0.825-0.59612-0.65954-1.0875-1.3576-1.0875-1.5562 0-0.19867 1.292-0.35625 2.8688-0.35625zm6.075 0h2.7188 2.7188l-1.2 1.3125c-1.4701 1.6265-1.5674 1.6265-3.0375 0l-1.2-1.3125zm8.2125 0h1.2562c0.68342 0 1.9386 0.14098 2.7938 0.31875l1.5562 0.31875-1.4438 1.2562c-0.79085 0.69166-1.5133 1.2535-1.6125 1.2375-0.09916-0.01604-0.7202-0.74036-1.3688-1.5938l-1.1812-1.5375zm8.4562 0.375l1.2562 0.31875c0.69707 0.18228 2.1847 0.35085 3.3 0.35625h2.025l-1.5188 1.2938c-0.83648 0.71267-1.643 1.3021-1.8 1.3125-0.15695 0.01043-0.96231-0.72048-1.7812-1.6312l-1.4812-1.65zm-30.206 0.16875c0.14571 0.0041 0.2368 0.01066 0.2625 0.0375 0.10282 0.10736-0.32105 0.82672-0.95625 1.5938l-1.1625 1.3875-1.4625-1.2-1.4625-1.2188 2.4375-0.375c1.0021-0.1562 1.9066-0.23732 2.3438-0.225zm2.3062 0.15c2.3e-4 -0.04995 0.72858 0.58537 1.6125 1.4062l1.6125 1.5-2.9812 0.16875-2.9812 0.16875 1.3688-1.575c0.75319-0.86798 1.3686-1.6188 1.3688-1.6688zm18.112 0c0.21365 0.01432 0.42001 0.1363 0.675 0.35625 0.44164 0.38096 1.0203 1.1377 1.2938 1.6688 0.42863 0.83243 0.29867 0.94529-0.91875 0.9-0.77658-0.02888-1.9389-0.2041-2.5875-0.39375l-1.1812-0.3375 1.2938-1.2562c0.68337-0.66728 1.0689-0.96137 1.425-0.9375zm-8.4 0.01875c0.56098-0.07736 0.99717 0.34111 1.5938 1.275 0.73033 1.1432 0.70421 1.1602-1.9875 1.1438l-2.7188-0.01875 1.4438-1.3125c0.71477-0.65332 1.2324-1.0273 1.6688-1.0875zm16.969 0.1875l1.2375 1.2188c1.3557 1.3237 1.5949 2.132 0.6 1.9875-0.34853-0.05064-1.6065-0.1702-2.7938-0.28125l-2.1562-0.20625 1.5562-1.35 1.5562-1.3688zm-35.138 0.675c0.23432 0 0.95896 0.57268 1.5938 1.275l1.1438 1.275-2.4562 0.3375c-1.353 0.18221-2.9111 0.42731-3.4688 0.54375-0.7534 0.15732-0.52583-0.26017 0.88125-1.6125 1.0415-1.001 2.0719-1.8188 2.3062-1.8188zm-3.75 0.075c0.1671-0.00277 0.31928 0.01628 0.45 0.0375 0.83057 0.13485 0.75139 0.34739-0.6 1.6875l-1.5562 1.5375-0.45-1.275c-0.37591-1.0455-0.26651-1.3436 0.6-1.6875 0.43431-0.17236 1.055-0.2917 1.5562-0.3zm45.956 1.7625c0.24053-0.01481 0.29131 0.17975 0.15 0.5625-0.30771 0.83345-1.2 1.0388-1.2 0.28125 0-0.2588 0.34596-0.58885 0.75-0.75 0.12275-0.04896 0.21982-0.08881 0.3-0.09375zm-21.319 1.5938c7.6677 0 15.48 0.19082 17.362 0.43125 3.1663 0.40447 3.4125 0.52616 3.4125 1.7062 0 1.4055-0.42756 1.4728-4.5562 0.73125-1.2547-0.22537-6.2865-0.70382-11.194-1.0688-8.5177-0.63339-19.075-0.291-28.481 0.91875-1.9416 0.24972-2.4 0.15431-2.4-0.4875 0-1.3587 10.167-2.2312 25.856-2.2312zm-10.312 2.8875h2.7 2.7188l-1.2 1.3125c-1.4701 1.6265-1.5674 1.6265-3.0375 0l-1.1812-1.3125zm6.9562 0l1.425 1.4062c0.78322 0.77993 1.425 1.5031 1.425 1.5938s-1.3018 0.16875-2.8875 0.16875h-2.8875l1.4625-1.5938 1.4625-1.575zm2.1562 0h2.7188 2.7188l-1.2 1.3125c-1.4701 1.6265-1.5674 1.6265-3.0375 0l-1.2-1.3125zm-12.825 0.075c0.23756 0.0154 0.02399 0.41596-0.69375 1.425-0.65252 0.91736-1.341 1.6688-1.5188 1.6688-0.17778 0-0.84515-0.60672-1.5-1.3312l-1.2-1.3125h1.8188c1.0017 0 2.2165-0.16342 2.7-0.35625 0.17727-0.0707 0.31456-0.09888 0.39375-0.09375zm2.0438 0.45l1.2938 1.1812c0.7148 0.65185 1.3733 1.2306 1.4625 1.275s-1.0857 0.16205-2.625 0.2625l-2.8125 0.1875 1.35-1.4625 1.3312-1.4438zm17.362 0l1.4625 1.5938c1.5936 1.7289 1.4338 1.8041-2.1938 1.1062l-1.7062-0.31875 1.2188-1.2 1.2188-1.1812zm2.0438 0h2.3625c2.5602 0 2.8903 0.4018 1.4438 1.7625-1.1894 1.1188-1.1959 1.1104-2.6062-0.45l-1.2-1.3125zm-30.619 0.54375c1.1523-0.01048 1.1178 0.0986-0.375 1.5562-1.1445 1.1176-1.283 1.1418-1.5938 0.3-0.37227-1.0083 0.52024-1.8431 1.9688-1.8562zm38.794 0.15c0.38908-0.00322 1.1888 0.08513 2.0812 0.24375l2.175 0.375-1.2562 1.2188-1.2375 1.2188-1.0875-1.425c-0.59517-0.78645-1.01-1.499-0.91875-1.5938 0.0228-0.0237 0.11406-0.03643 0.24375-0.0375zm-35.962 0.46875c0.30729-0.05238 0.57944 0.19822 1.1062 0.69375 1.0051 0.94538 1.0174 1.032 0.15 1.3875-0.50614 0.20741-1.6074 0.39214-2.4375 0.4125l-1.5 0.0375 1.3688-1.425c0.67363-0.70016 1.0052-1.0539 1.3125-1.1062zm34.088 0.28125c0.35223-0.01955 0.63187 0.28161 1.125 0.975l0.91875 1.275h-2.1c-1.3676 0-2.0223-0.21797-1.8938-0.61875 0.10823-0.33746 0.63887-0.90806 1.1812-1.275 0.32034-0.21673 0.55741-0.34452 0.76875-0.35625zm6.4125 1.35c0.112 0.02562 0.13125 0.20884 0.13125 0.54375 0 0.98372-0.81881 1.6289-1.2188 0.95625-0.15561-0.26169 0.05359-0.76687 0.46875-1.125 0.30688-0.26472 0.50675-0.40062 0.61875-0.375zm-25.931 1.2c8.6704-0.0096 18.313 0.56635 23.906 1.6125l1.65 0.31875v4.4062c0 3.2236-0.15661 4.403-0.61875 4.35-0.34853-0.03994-2.58-0.49841-4.95-1.0312-7.1511-1.6078-15.236-2.2303-24.338-1.8562-4.6006 0.18907-9.4146 0.53478-10.706 0.76875l-2.3625 0.43125-0.58125-3.675c-0.32042-2.0166-0.50138-3.7326-0.4125-3.825 0.08887-0.09238 2.3115-0.46868 4.95-0.825 3.3969-0.45872 8.2602-0.66924 13.462-0.675z"/><path id="a" d="m124.76 217.76c-2.9644 0-5.0812 2.1876-5.0812 5.2688 0 4.8008 5.3969 7.1254 8.6625 3.7312s1.0376-9-3.5812-9zm-0.01875 1.2375c2.1903-0.08669 4.0688 1.6175 4.0688 4.0875 0 2.8908-3.3455 4.9064-5.925 3.5625-2.7588-1.4372-2.5537-6.0571 0.31875-7.2938 0.52018-0.22396 1.032-0.33625 1.5375-0.35625z"/><use x="-20.06485" y="-.6" xlink:href="#a"/><path d="m88.012 145.28a1.7228 1.7637 0 0 0 -1.5938 1.7625 1.725 1.766 0 1 0 3.45 0 1.7228 1.7637 0 0 0 -1.8562 -1.7625zm0.1125 0.61875a1.1596 1.1432 0 0 1 1.125 1.1438 1.1625 1.1461 0 1 1 -2.325 0 1.1596 1.1432 0 0 1 1.2 -1.1438z"/></svg>